<?xml version="1.0" standalone="no"?>
<!DOCTYPE svg PUBLIC "-//W3C//DTD SVG 20010904//EN"
 "http://www.w3.org/TR/2001/REC-SVG-20010904/DTD/svg10.dtd">
<svg version="1.0" xmlns="http://www.w3.org/2000/svg"
 width="768.000000pt" height="768.000000pt" viewBox="0 0 768.000000 768.000000"
 preserveAspectRatio="xMidYMid meet">
<metadata>
Created by potrace 1.11, written by Peter Selinger 2001-2013
</metadata>
<g transform="translate(0.000000,768.000000) scale(0.100000,-0.100000)"
fill="#000000" stroke="none">
<path d="M929 7455 c-2 0 -9 -43 -10 -60 0 -11 0 -69 1 -128 1 -60 0 -111 -3
-113 -3 -3 -2 -18 2 -32 4 -15 4 -39 0 -54 -4 -18 -3 -28 3 -28 7 0 7 -5 -1
-13 -6 -8 -8 -16 -6 -19 5 -4 6 -117 4 -258 -1 -55 0 -239 1 -260 1 -14 1 -32
1 -40 0 -8 0 -40 0 -70 0 -30 0 -62 0 -70 0 -8 0 -37 0 -65 0 -27 0 -57 0 -65
-3 -61 0 -86 13 -96 16 -11 117 -11 135 1 6 3 11 3 11 -2 0 -10 133 -9 149 1
6 4 11 4 11 -1 0 -10 133 -9 149 1 6 4 11 4 11 -1 0 -10 133 -9 149 1 6 4 11
4 11 -1 0 -9 102 -8 124 0 8 3 17 3 20 0 9 -10 106 -9 106 0 0 5 5 5 12 1 10
-7 79 -9 103 -4 6 1 12 1 15 0 15 -6 110 -4 110 2 0 4 8 4 17 1 10 -4 33 -6
53 -5 40 3 41 3 135 -1 39 -1 78 1 88 6 9 4 17 4 17 0 0 -10 133 -9 149 1 6 4
11 4 11 -1 0 -4 20 -8 45 -8 25 0 45 3 45 7 0 4 12 3 28 0 33 -9 75 -8 91 2 6
4 11 3 11 -1 0 -5 19 -8 42 -6 23 1 47 -2 53 -7 7 -6 10 -256 9 -792 0 -624 2
-775 12 -742 20 68 53 123 107 178 50 51 165 126 217 141 14 4 30 11 35 16 6
4 22 9 35 11 14 2 30 7 36 11 7 4 28 9 48 12 20 2 40 7 45 10 9 5 50 12 131
21 25 2 56 7 70 9 28 6 312 16 405 15 132 -1 317 -13 385 -25 14 -2 48 -7 75
-10 87 -10 80 7 79 -202 0 -104 2 -194 4 -200 3 -10 206 -13 961 -12 l958 1
-1 632 -1 631 -50 26 c-43 22 -251 106 -280 114 -5 1 -17 5 -25 8 -44 18 -290
85 -410 112 -8 2 -46 11 -85 20 -38 9 -86 18 -105 21 -19 3 -38 8 -41 10 -3 2
-20 6 -37 9 -17 3 -86 16 -154 29 -116 23 -159 31 -218 41 -14 2 -38 6 -55 9
-33 5 -105 16 -145 21 -14 2 -43 6 -65 10 -22 3 -60 8 -85 10 -25 2 -65 7 -90
10 -45 6 -90 10 -255 22 -162 13 -825 7 -825 -7 0 -3 -12 -5 -27 -6 -34 -1
-159 -13 -193 -19 -14 -2 -46 -7 -72 -10 -73 -8 -141 -17 -162 -21 -10 -2 -44
-6 -75 -10 -31 -3 -65 -8 -76 -10 -11 -2 -32 -6 -46 -9 l-26 -5 1 641 c1 353
-2 645 -5 651 -5 8 -767 13 -1910 13z"/>
<path d="M967 4398 c-8 -4 -12 -31 -10 -80 2 -83 11 -213 17 -243 2 -11 7 -40
12 -65 4 -25 8 -47 9 -50 1 -3 5 -18 9 -35 33 -134 104 -292 184 -405 61 -87
234 -259 322 -320 12 -8 31 -23 43 -33 12 -10 37 -28 57 -39 19 -12 37 -25 40
-28 14 -16 282 -159 310 -165 3 -1 23 -9 45 -19 59 -26 442 -150 497 -160 7
-2 33 -8 58 -15 25 -7 52 -14 60 -16 8 -2 35 -8 60 -14 75 -19 84 -21 114 -27
16 -2 32 -7 36 -9 4 -2 22 -7 41 -10 19 -3 59 -12 89 -19 56 -14 138 -29 142
-26 2 1 15 -3 31 -9 23 -9 78 -20 172 -36 11 -2 67 -13 125 -24 58 -12 119
-24 135 -27 94 -16 206 -40 308 -64 23 -6 51 -12 62 -14 87 -16 396 -104 505
-144 156 -57 269 -146 319 -252 37 -79 37 -201 0 -281 -74 -157 -282 -263
-599 -304 -30 -4 -66 -8 -80 -10 -146 -20 -626 -21 -753 -1 -18 3 -61 8 -97
11 -36 3 -78 9 -95 11 -16 3 -43 7 -60 10 -111 14 -275 46 -276 53 -1 3 -2
132 -3 286 l-2 280 -994 0 -995 0 -3 -633 c-2 -599 -1 -633 15 -631 38 3 44 0
33 -20 -5 -11 -10 -22 -10 -24 0 -10 293 -168 320 -172 3 -1 25 -10 50 -22 96
-45 329 -132 435 -163 22 -6 47 -14 55 -17 8 -3 24 -8 35 -10 11 -2 27 -6 35
-10 8 -4 22 -8 30 -9 21 -4 42 -10 60 -17 19 -7 167 -45 200 -51 14 -2 63 -14
110 -25 47 -11 99 -22 115 -25 17 -3 41 -7 55 -11 28 -6 41 -8 195 -35 61 -10
128 -21 150 -24 22 -3 76 -10 120 -15 44 -6 105 -13 135 -16 153 -14 187 -17
215 -20 223 -25 839 -19 1105 9 30 3 78 8 105 11 28 3 66 8 85 11 19 2 49 6
65 9 60 8 111 16 135 21 14 3 36 8 50 10 14 3 49 9 77 15 29 6 56 11 60 11 5
0 64 16 133 35 69 19 130 35 135 37 37 9 161 52 165 56 3 3 37 16 75 29 39 13
79 30 90 37 11 7 23 13 28 13 16 0 208 98 302 154 103 62 222 142 240 161 6 6
28 24 50 41 63 47 253 241 290 296 6 9 31 47 57 86 85 127 186 352 203 456 3
18 10 48 15 67 32 126 35 476 6 620 -1 8 -6 33 -10 55 -22 114 -95 295 -169
416 -110 180 -386 414 -657 557 -95 49 -267 125 -315 138 -5 1 -44 14 -85 28
-41 15 -77 27 -80 27 -8 0 -113 30 -130 36 -8 3 -19 7 -25 9 -5 1 -28 7 -50
13 -86 22 -161 41 -180 45 -11 3 -90 21 -175 41 -85 20 -166 38 -180 40 -14 2
-32 6 -40 9 -8 3 -32 8 -54 11 -21 3 -41 7 -45 9 -3 3 -26 7 -51 11 -25 4 -47
8 -50 10 -3 2 -45 10 -95 19 -49 9 -101 18 -115 21 -14 3 -40 8 -59 11 -18 3
-41 7 -50 9 -19 4 -204 43 -241 51 -14 2 -33 7 -42 10 -9 3 -25 6 -35 8 -46 9
-274 68 -330 85 -35 11 -63 17 -63 15 0 -3 -13 2 -30 11 -16 8 -31 15 -32 14
-7 -5 -90 27 -157 59 -107 53 -184 129 -211 210 -11 35 -18 67 -15 73 4 5 3 9
-2 10 -49 5 -1878 2 -1886 -3z"/>
</g>
</svg>
