<svg width="84" height="68" viewBox="0 0 84 68" fill="none" xmlns="http://www.w3.org/2000/svg">
    <path d="M77.2665 14.5293C79.8808 14.5293 82.0001 12.4361 82.0001 9.85397C82.0001 7.27186 79.8808 5.17865 77.2665 5.17865C74.6522 5.17865 72.533 7.27186 72.533 9.85397C72.533 12.4361 74.6522 14.5293 77.2665 14.5293Z" stroke="#BFCFFF" stroke-width="3" stroke-linecap="round" stroke-linejoin="round"/>
    <path d="M6.73358 65.8223C9.34786 65.8223 11.4672 63.729 11.4672 61.1469C11.4672 58.5647 9.34786 56.4714 6.73358 56.4714C4.1193 56.4714 2 58.5647 2 61.1469C2 63.729 4.1193 65.8223 6.73358 65.8223Z" stroke="#BFCFFF" stroke-width="3" stroke-linecap="round" stroke-linejoin="round"/>
    <ellipse cx="41.0778" cy="34.0001" rx="14.2735" ry="14.0981" stroke="#304CCF" stroke-width="3" stroke-linecap="round" stroke-linejoin="round"/>
    <ellipse cx="20.7094" cy="9.87793" rx="4.75784" ry="4.69928" stroke="#304CCF" stroke-width="3" stroke-linecap="round" stroke-linejoin="round"/>
    <ellipse cx="60.2393" cy="57.343" rx="4.75784" ry="4.69946" stroke="#304CCF" stroke-width="3" stroke-linecap="round" stroke-linejoin="round"/>
    <path d="M67.2689 51.8466C70.8839 46.6494 72.9612 40.3344 72.8631 33.5497C72.611 16.1253 58.1057 2.20155 40.4645 2.45021C36.0004 2.51313 31.7633 3.47754 27.9282 5.1655M53.8543 62.8604C50.0348 64.5323 45.8183 65.4871 41.3771 65.5497C23.7359 65.7984 9.23058 51.8747 8.97855 34.4502C8.87669 27.4078 11.1187 20.8715 14.9913 15.566" stroke="#BFCFFF" stroke-width="3" stroke-linecap="round" stroke-linejoin="round"/>
</svg>
