<svg width="365" height="364" viewBox="0 0 365 364" fill="none" xmlns="http://www.w3.org/2000/svg">
<ellipse cx="182.907" cy="182.428" rx="179.954" ry="179.573" fill="#F4F4FF"/>
<path d="M182.907 2.85498C201.791 2.85498 220.557 5.82091 238.516 11.6439L199.59 131.192C194.202 129.446 188.572 128.556 182.907 128.556V2.85498Z" fill="#D3D4FF" stroke="#F4F4FF" stroke-width="4"/>
<path d="M238.516 11.6439C245.687 13.9691 252.705 16.7417 259.528 19.9454L205.893 133.683C203.847 132.722 201.741 131.89 199.59 131.192L238.516 11.6439Z" fill="#F1F1FF" stroke="#F4F4FF" stroke-width="4"/>
<path d="M258.959 19.6796C279.515 29.2446 298.073 42.6011 313.657 59.0456L222.132 145.413C217.457 140.48 211.89 136.473 205.723 133.603L258.959 19.6796Z" fill="#4D89FF" stroke="#F4F4FF" stroke-width="4"/>
<path d="M314.517 59.9594C337.806 84.881 353.509 115.901 359.79 149.395C366.072 182.889 362.673 217.476 349.992 249.115L233.033 202.434C236.837 192.942 237.857 182.566 235.972 172.518C234.088 162.469 229.377 153.164 222.39 145.687L314.517 59.9594Z" fill="#29F589" stroke="#F4F4FF" stroke-width="4"/>
<path d="M349.757 249.697C344.103 263.663 336.709 276.865 327.751 288.989L226.36 214.396C229.048 210.759 231.266 206.798 232.962 202.608L349.757 249.697Z" fill="#09B768" stroke="#F4F4FF" stroke-width="4"/>
<path d="M328.493 287.978C306.156 318.657 274.659 341.493 238.516 353.211C202.374 364.93 163.441 364.93 127.299 353.211C91.156 341.493 59.659 318.657 37.3217 287.978C14.9844 257.298 2.95361 220.35 2.95361 182.428L128.921 182.428C128.921 193.804 132.53 204.889 139.232 214.093C145.933 223.296 155.382 230.147 166.225 233.663C177.067 237.178 188.747 237.178 199.59 233.663C210.433 230.147 219.882 223.296 226.583 214.093L328.493 287.978Z" fill="#25DC89" stroke="#F4F4FF" stroke-width="4"/>
<path d="M2.95361 182.428C2.95362 144.506 14.9844 107.557 37.3217 76.8775L139.232 150.763C132.53 159.966 128.921 171.051 128.921 182.428L2.95361 182.428Z" fill="#4161DE" stroke="#F4F4FF" stroke-width="4"/>
<path d="M37.3217 76.8774C54.014 53.9512 75.9067 35.2926 101.21 22.4272C126.513 9.56184 154.509 2.85498 182.907 2.85498V128.556C174.388 128.556 165.989 130.568 158.398 134.427C150.807 138.287 144.239 143.885 139.232 150.763L37.3217 76.8774Z" fill="#A2ABF1" stroke="#F4F4FF" stroke-width="4"/>
</svg>
