<svg width="710" height="330" viewBox="0 0 710 330" fill="none" xmlns="http://www.w3.org/2000/svg">
<path d="M4.86498 137.027C3.75564 137.027 2.82231 136.782 2.06498 136.291C1.30764 135.79 0.77431 135.113 0.464977 134.259L2.35298 133.155C2.79031 134.297 3.64898 134.867 4.92898 134.867C5.54764 134.867 6.00098 134.755 6.28898 134.531C6.57698 134.307 6.72098 134.025 6.72098 133.683C6.72098 133.289 6.54498 132.985 6.19298 132.771C5.84098 132.547 5.21164 132.307 4.30498 132.051C3.80364 131.902 3.37698 131.753 3.02498 131.603C2.68364 131.454 2.33698 131.257 1.98498 131.011C1.64364 130.755 1.38231 130.435 1.20098 130.051C1.01964 129.667 0.928977 129.219 0.928977 128.707C0.928977 127.694 1.28631 126.889 2.00098 126.291C2.72631 125.683 3.59564 125.379 4.60898 125.379C5.51564 125.379 6.31031 125.603 6.99298 126.051C7.68631 126.489 8.22498 127.102 8.60898 127.891L6.75298 128.963C6.30498 128.003 5.59031 127.523 4.60898 127.523C4.15031 127.523 3.78764 127.63 3.52098 127.843C3.26498 128.046 3.13698 128.313 3.13698 128.643C3.13698 128.995 3.28098 129.283 3.56898 129.507C3.86764 129.721 4.43298 129.955 5.26498 130.211C5.60631 130.318 5.86231 130.403 6.03298 130.467C6.21431 130.521 6.45431 130.611 6.75298 130.739C7.06231 130.857 7.29698 130.969 7.45698 131.075C7.62764 131.182 7.81964 131.326 8.03298 131.507C8.24631 131.689 8.40631 131.875 8.51298 132.067C8.63031 132.259 8.72631 132.494 8.80098 132.771C8.88631 133.038 8.92898 133.331 8.92898 133.651C8.92898 134.686 8.55031 135.507 7.79298 136.115C7.04631 136.723 6.07031 137.027 4.86498 137.027ZM14.6147 130.787H12.8067V134.115C12.8067 134.393 12.8761 134.595 13.0147 134.723C13.1534 134.851 13.3561 134.926 13.6227 134.947C13.8894 134.958 14.2201 134.953 14.6147 134.931V136.803C13.1961 136.963 12.1934 136.83 11.6067 136.403C11.0307 135.977 10.7427 135.214 10.7427 134.115V130.787H9.35073V128.803H10.7427V127.187L12.8067 126.563V128.803H14.6147V130.787ZM21.9 128.803H23.964V136.803H21.9V135.859C21.2813 136.638 20.412 137.027 19.292 137.027C18.2253 137.027 17.308 136.622 16.54 135.811C15.7826 134.99 15.404 133.987 15.404 132.803C15.404 131.619 15.7826 130.622 16.54 129.811C17.308 128.99 18.2253 128.579 19.292 128.579C20.412 128.579 21.2813 128.969 21.9 129.747V128.803ZM18.092 134.435C18.508 134.851 19.036 135.059 19.676 135.059C20.316 135.059 20.844 134.851 21.26 134.435C21.6866 134.009 21.9 133.465 21.9 132.803C21.9 132.142 21.6866 131.603 21.26 131.187C20.844 130.761 20.316 130.547 19.676 130.547C19.036 130.547 18.508 130.761 18.092 131.187C17.676 131.603 17.468 132.142 17.468 132.803C17.468 133.465 17.676 134.009 18.092 134.435ZM33.2116 136.803H30.8116L27.8996 133.171V136.803H25.8356V125.603H27.8996V132.323L30.6516 128.803H33.1156L29.8996 132.755L33.2116 136.803ZM35.2659 127.843C34.9245 127.843 34.6259 127.721 34.3699 127.475C34.1245 127.219 34.0019 126.921 34.0019 126.579C34.0019 126.238 34.1245 125.939 34.3699 125.683C34.6259 125.427 34.9245 125.299 35.2659 125.299C35.6179 125.299 35.9165 125.427 36.1619 125.683C36.4179 125.939 36.5459 126.238 36.5459 126.579C36.5459 126.921 36.4179 127.219 36.1619 127.475C35.9165 127.721 35.6179 127.843 35.2659 127.843ZM34.2419 136.803V128.803H36.3059V136.803H34.2419ZM42.643 128.579C43.5176 128.579 44.2376 128.873 44.803 129.459C45.379 130.046 45.667 130.857 45.667 131.891V136.803H43.603V132.147C43.603 131.614 43.459 131.209 43.171 130.931C42.883 130.643 42.499 130.499 42.019 130.499C41.4856 130.499 41.059 130.665 40.739 130.995C40.419 131.326 40.259 131.822 40.259 132.483V136.803H38.195V128.803H40.259V129.699C40.7603 128.953 41.555 128.579 42.643 128.579ZM53.5574 128.803H55.5734V136.419C55.5734 137.657 55.1627 138.601 54.3414 139.251C53.5307 139.902 52.5494 140.227 51.3974 140.227C50.5334 140.227 49.7707 140.062 49.1094 139.731C48.4587 139.401 47.9574 138.915 47.6054 138.275L49.3654 137.267C49.7707 138.014 50.4694 138.387 51.4614 138.387C52.112 138.387 52.624 138.217 52.9974 137.875C53.3707 137.534 53.5574 137.049 53.5574 136.419V135.555C52.9494 136.366 52.096 136.771 50.9974 136.771C49.8667 136.771 48.9174 136.377 48.1494 135.587C47.392 134.787 47.0134 133.817 47.0134 132.675C47.0134 131.545 47.3974 130.579 48.1654 129.779C48.9334 128.979 49.8774 128.579 50.9974 128.579C52.096 128.579 52.9494 128.985 53.5574 129.795V128.803ZM49.7014 134.259C50.128 134.665 50.6667 134.867 51.3174 134.867C51.968 134.867 52.5014 134.665 52.9174 134.259C53.344 133.843 53.5574 133.315 53.5574 132.675C53.5574 132.046 53.344 131.529 52.9174 131.123C52.5014 130.707 51.968 130.499 51.3174 130.499C50.6667 130.499 50.128 130.707 49.7014 131.123C49.2854 131.529 49.0774 132.046 49.0774 132.675C49.0774 133.315 49.2854 133.843 49.7014 134.259Z" fill="black"/>
<path d="M3.2 148.457H4.16V159.657H3.04V149.689L0.528 150.441L0.24 149.481L3.2 148.457ZM13.5975 158.281C12.8615 159.327 11.8215 159.849 10.4775 159.849C9.1335 159.849 8.08817 159.327 7.3415 158.281C6.6055 157.225 6.2375 155.817 6.2375 154.057C6.2375 152.297 6.6055 150.895 7.3415 149.849C8.08817 148.793 9.1335 148.265 10.4775 148.265C11.8215 148.265 12.8615 148.793 13.5975 149.849C14.3442 150.895 14.7175 152.297 14.7175 154.057C14.7175 155.817 14.3442 157.225 13.5975 158.281ZM8.1735 157.529C8.72817 158.351 9.49617 158.761 10.4775 158.761C11.4588 158.761 12.2215 158.351 12.7655 157.529C13.3202 156.708 13.5975 155.551 13.5975 154.057C13.5975 152.564 13.3202 151.407 12.7655 150.585C12.2215 149.764 11.4588 149.353 10.4775 149.353C9.49617 149.353 8.72817 149.764 8.1735 150.585C7.6295 151.407 7.3575 152.564 7.3575 154.057C7.3575 155.551 7.6295 156.708 8.1735 157.529ZM18.6111 153.065C17.9178 153.065 17.3365 152.836 16.8671 152.377C16.3978 151.908 16.1631 151.337 16.1631 150.665C16.1631 149.993 16.3978 149.428 16.8671 148.969C17.3365 148.5 17.9178 148.265 18.6111 148.265C19.3045 148.265 19.8858 148.5 20.3551 148.969C20.8245 149.428 21.0591 149.993 21.0591 150.665C21.0591 151.337 20.8298 151.908 20.3711 152.377C19.9125 152.836 19.3258 153.065 18.6111 153.065ZM17.5871 151.689C17.8538 151.967 18.1951 152.105 18.6111 152.105C19.0271 152.105 19.3685 151.967 19.6351 151.689C19.9018 151.412 20.0351 151.071 20.0351 150.665C20.0351 150.26 19.9018 149.919 19.6351 149.641C19.3685 149.364 19.0271 149.225 18.6111 149.225C18.1951 149.225 17.8538 149.364 17.5871 149.641C17.3205 149.919 17.1871 150.26 17.1871 150.665C17.1871 151.071 17.3205 151.412 17.5871 151.689ZM16.7231 158.137L24.2271 149.705L24.9151 150.089L17.3951 158.521L16.7231 158.137ZM24.8831 159.161C24.4138 159.62 23.8325 159.849 23.1391 159.849C22.4458 159.849 21.8645 159.62 21.3951 159.161C20.9258 158.692 20.6911 158.121 20.6911 157.449C20.6911 156.777 20.9258 156.212 21.3951 155.753C21.8645 155.284 22.4458 155.049 23.1391 155.049C23.8325 155.049 24.4138 155.284 24.8831 155.753C25.3525 156.212 25.5871 156.777 25.5871 157.449C25.5871 158.121 25.3525 158.692 24.8831 159.161ZM22.1151 158.473C22.3818 158.751 22.7231 158.889 23.1391 158.889C23.5551 158.889 23.8965 158.751 24.1631 158.473C24.4298 158.196 24.5631 157.855 24.5631 157.449C24.5631 157.044 24.4298 156.703 24.1631 156.425C23.8965 156.148 23.5551 156.009 23.1391 156.009C22.7231 156.009 22.3818 156.148 22.1151 156.425C21.8485 156.703 21.7151 157.044 21.7151 157.449C21.7151 157.855 21.8485 158.196 22.1151 158.473Z" fill="black"/>
<path d="M107.972 135.495H162.479L202.039 150.187" stroke="black" stroke-width="0.817971"/>
<path d="M208.992 151.004C208.992 153.032 207.345 154.676 205.311 154.676C203.277 154.676 201.63 153.032 201.63 151.004C201.63 148.977 203.277 147.332 205.311 147.332C207.345 147.332 208.992 148.977 208.992 151.004Z" stroke="black" stroke-width="0.817971"/>
<path d="M625.57 300.052L623.314 296.164H621.634V300.052H619.426V288.852H623.906C624.941 288.852 625.821 289.214 626.546 289.94C627.272 290.665 627.634 291.54 627.634 292.564C627.634 293.257 627.437 293.902 627.042 294.5C626.648 295.086 626.125 295.529 625.474 295.828L627.954 300.052H625.57ZM621.634 290.916V294.228H623.906C624.322 294.228 624.68 294.068 624.978 293.748C625.277 293.417 625.426 293.022 625.426 292.564C625.426 292.105 625.277 291.716 624.978 291.396C624.68 291.076 624.322 290.916 623.906 290.916H621.634ZM630.496 296.9C630.773 297.902 631.525 298.404 632.752 298.404C633.541 298.404 634.139 298.137 634.544 297.604L636.208 298.564C635.419 299.705 634.256 300.276 632.72 300.276C631.397 300.276 630.336 299.876 629.536 299.076C628.736 298.276 628.336 297.268 628.336 296.052C628.336 294.846 628.731 293.844 629.52 293.044C630.309 292.233 631.323 291.828 632.56 291.828C633.733 291.828 634.699 292.233 635.456 293.044C636.224 293.854 636.608 294.857 636.608 296.052C636.608 296.318 636.581 296.601 636.528 296.9H630.496ZM630.464 295.3H634.544C634.427 294.756 634.181 294.35 633.808 294.084C633.445 293.817 633.029 293.684 632.56 293.684C632.005 293.684 631.547 293.828 631.184 294.116C630.821 294.393 630.581 294.788 630.464 295.3ZM639.64 294.324C639.64 294.537 639.779 294.713 640.056 294.852C640.344 294.98 640.691 295.097 641.096 295.204C641.502 295.3 641.907 295.428 642.312 295.588C642.718 295.737 643.059 295.993 643.336 296.356C643.624 296.718 643.768 297.172 643.768 297.716C643.768 298.537 643.459 299.172 642.84 299.62C642.232 300.057 641.47 300.276 640.552 300.276C638.91 300.276 637.79 299.641 637.192 298.372L638.984 297.364C639.219 298.057 639.742 298.404 640.552 298.404C641.288 298.404 641.656 298.174 641.656 297.716C641.656 297.502 641.512 297.332 641.224 297.204C640.947 297.065 640.606 296.942 640.2 296.836C639.795 296.729 639.39 296.596 638.984 296.436C638.579 296.276 638.232 296.025 637.944 295.684C637.667 295.332 637.528 294.894 637.528 294.372C637.528 293.582 637.816 292.964 638.392 292.516C638.979 292.057 639.704 291.828 640.568 291.828C641.219 291.828 641.811 291.977 642.344 292.276C642.878 292.564 643.299 292.98 643.608 293.524L641.848 294.484C641.592 293.94 641.166 293.668 640.568 293.668C640.302 293.668 640.078 293.726 639.896 293.844C639.726 293.961 639.64 294.121 639.64 294.324ZM646.73 296.9C647.008 297.902 647.76 298.404 648.986 298.404C649.776 298.404 650.373 298.137 650.778 297.604L652.442 298.564C651.653 299.705 650.49 300.276 648.954 300.276C647.632 300.276 646.57 299.876 645.77 299.076C644.97 298.276 644.57 297.268 644.57 296.052C644.57 294.846 644.965 293.844 645.754 293.044C646.544 292.233 647.557 291.828 648.794 291.828C649.968 291.828 650.933 292.233 651.69 293.044C652.458 293.854 652.842 294.857 652.842 296.052C652.842 296.318 652.816 296.601 652.762 296.9H646.73ZM646.698 295.3H650.778C650.661 294.756 650.416 294.35 650.042 294.084C649.68 293.817 649.264 293.684 648.794 293.684C648.24 293.684 647.781 293.828 647.418 294.116C647.056 294.393 646.816 294.788 646.698 295.3ZM656.347 293.428C656.539 292.916 656.854 292.532 657.291 292.276C657.739 292.02 658.235 291.892 658.779 291.892V294.196C658.15 294.121 657.585 294.249 657.083 294.58C656.593 294.91 656.347 295.46 656.347 296.228V300.052H654.283V292.052H656.347V293.428ZM665.25 292.052H667.522L664.482 300.052H662.13L659.09 292.052H661.362L663.298 297.652L665.25 292.052ZM669.949 296.9C670.227 297.902 670.979 298.404 672.205 298.404C672.995 298.404 673.592 298.137 673.997 297.604L675.661 298.564C674.872 299.705 673.709 300.276 672.173 300.276C670.851 300.276 669.789 299.876 668.989 299.076C668.189 298.276 667.789 297.268 667.789 296.052C667.789 294.846 668.184 293.844 668.973 293.044C669.763 292.233 670.776 291.828 672.013 291.828C673.187 291.828 674.152 292.233 674.909 293.044C675.677 293.854 676.061 294.857 676.061 296.052C676.061 296.318 676.035 296.601 675.981 296.9H669.949ZM669.917 295.3H673.997C673.88 294.756 673.635 294.35 673.261 294.084C672.899 293.817 672.483 293.684 672.013 293.684C671.459 293.684 671 293.828 670.637 294.116C670.275 294.393 670.035 294.788 669.917 295.3Z" fill="black"/>
<path d="M627.266 319.61V320.666H625.826V322.906H624.706V320.666H618.786V319.61L622.946 311.706H624.178L620.018 319.61H624.706V316.186H625.826V319.61H627.266ZM630.279 316.314C629.585 316.314 629.004 316.085 628.535 315.626C628.065 315.157 627.831 314.586 627.831 313.914C627.831 313.242 628.065 312.677 628.535 312.218C629.004 311.749 629.585 311.514 630.279 311.514C630.972 311.514 631.553 311.749 632.023 312.218C632.492 312.677 632.727 313.242 632.727 313.914C632.727 314.586 632.497 315.157 632.039 315.626C631.58 316.085 630.993 316.314 630.279 316.314ZM629.255 314.938C629.521 315.215 629.863 315.354 630.279 315.354C630.695 315.354 631.036 315.215 631.303 314.938C631.569 314.661 631.703 314.319 631.703 313.914C631.703 313.509 631.569 313.167 631.303 312.89C631.036 312.613 630.695 312.474 630.279 312.474C629.863 312.474 629.521 312.613 629.255 312.89C628.988 313.167 628.855 313.509 628.855 313.914C628.855 314.319 628.988 314.661 629.255 314.938ZM628.391 321.386L635.895 312.954L636.583 313.338L629.063 321.77L628.391 321.386ZM636.551 322.41C636.081 322.869 635.5 323.098 634.807 323.098C634.113 323.098 633.532 322.869 633.063 322.41C632.593 321.941 632.359 321.37 632.359 320.698C632.359 320.026 632.593 319.461 633.063 319.002C633.532 318.533 634.113 318.298 634.807 318.298C635.5 318.298 636.081 318.533 636.551 319.002C637.02 319.461 637.255 320.026 637.255 320.698C637.255 321.37 637.02 321.941 636.551 322.41ZM633.783 321.722C634.049 321.999 634.391 322.138 634.807 322.138C635.223 322.138 635.564 321.999 635.831 321.722C636.097 321.445 636.231 321.103 636.231 320.698C636.231 320.293 636.097 319.951 635.831 319.674C635.564 319.397 635.223 319.258 634.807 319.258C634.391 319.258 634.049 319.397 633.783 319.674C633.516 319.951 633.383 320.293 633.383 320.698C633.383 321.103 633.516 321.445 633.783 321.722Z" fill="black"/>
<path d="M595.483 306.906H540.976L501.417 292.214" stroke="black" stroke-width="0.817971"/>
<path d="M494.464 291.399C494.464 289.371 496.111 287.726 498.145 287.726C500.179 287.726 501.826 289.371 501.826 291.399C501.826 293.426 500.179 295.071 498.145 295.071C496.111 295.071 494.464 293.426 494.464 291.399Z" stroke="black" stroke-width="0.817971"/>
<path d="M621.635 229.375H626.355V231.487H619.427V220.287H626.275V222.399H621.635V224.783H625.875V226.863H621.635V229.375ZM631.451 231.711C630.246 231.711 629.238 231.306 628.427 230.495C627.627 229.685 627.227 228.682 627.227 227.487C627.227 226.293 627.627 225.29 628.427 224.479C629.238 223.669 630.246 223.263 631.451 223.263C632.23 223.263 632.939 223.45 633.579 223.823C634.219 224.197 634.705 224.698 635.035 225.327L633.259 226.367C633.099 226.037 632.854 225.775 632.523 225.583C632.203 225.391 631.841 225.295 631.435 225.295C630.817 225.295 630.305 225.503 629.899 225.919C629.494 226.325 629.291 226.847 629.291 227.487C629.291 228.117 629.494 228.639 629.899 229.055C630.305 229.461 630.817 229.663 631.435 229.663C631.851 229.663 632.219 229.573 632.539 229.391C632.87 229.199 633.115 228.938 633.275 228.607L635.067 229.631C634.715 230.261 634.219 230.767 633.579 231.151C632.939 231.525 632.23 231.711 631.451 231.711ZM642.85 230.495C642.029 231.306 641.026 231.711 639.842 231.711C638.658 231.711 637.655 231.306 636.834 230.495C636.023 229.674 635.618 228.671 635.618 227.487C635.618 226.303 636.023 225.306 636.834 224.495C637.655 223.674 638.658 223.263 639.842 223.263C641.026 223.263 642.029 223.674 642.85 224.495C643.671 225.306 644.082 226.303 644.082 227.487C644.082 228.671 643.671 229.674 642.85 230.495ZM638.29 229.071C638.706 229.487 639.223 229.695 639.842 229.695C640.461 229.695 640.978 229.487 641.394 229.071C641.81 228.655 642.018 228.127 642.018 227.487C642.018 226.847 641.81 226.319 641.394 225.903C640.978 225.487 640.461 225.279 639.842 225.279C639.223 225.279 638.706 225.487 638.29 225.903C637.885 226.319 637.682 226.847 637.682 227.487C637.682 228.127 637.885 228.655 638.29 229.071ZM647.266 225.759C647.266 225.973 647.405 226.149 647.682 226.287C647.97 226.415 648.317 226.533 648.722 226.639C649.127 226.735 649.533 226.863 649.938 227.023C650.343 227.173 650.685 227.429 650.962 227.791C651.25 228.154 651.394 228.607 651.394 229.151C651.394 229.973 651.085 230.607 650.466 231.055C649.858 231.493 649.095 231.711 648.178 231.711C646.535 231.711 645.415 231.077 644.818 229.807L646.61 228.799C646.845 229.493 647.367 229.839 648.178 229.839C648.914 229.839 649.282 229.61 649.282 229.151C649.282 228.938 649.138 228.767 648.85 228.639C648.573 228.501 648.231 228.378 647.826 228.271C647.421 228.165 647.015 228.031 646.61 227.871C646.205 227.711 645.858 227.461 645.57 227.119C645.293 226.767 645.154 226.33 645.154 225.807C645.154 225.018 645.442 224.399 646.018 223.951C646.605 223.493 647.33 223.263 648.194 223.263C648.845 223.263 649.437 223.413 649.97 223.711C650.503 223.999 650.925 224.415 651.234 224.959L649.474 225.919C649.218 225.375 648.791 225.103 648.194 225.103C647.927 225.103 647.703 225.162 647.522 225.279C647.351 225.397 647.266 225.557 647.266 225.759ZM657.609 223.487H659.817L656.905 231.487C656.489 232.639 655.935 233.471 655.241 233.983C654.559 234.506 653.705 234.741 652.681 234.687V232.767C653.236 232.778 653.673 232.661 653.993 232.415C654.324 232.17 654.585 231.775 654.777 231.231L651.497 223.487H653.753L655.833 228.863L657.609 223.487ZM662.203 225.759C662.203 225.973 662.342 226.149 662.619 226.287C662.907 226.415 663.254 226.533 663.659 226.639C664.065 226.735 664.47 226.863 664.875 227.023C665.281 227.173 665.622 227.429 665.899 227.791C666.187 228.154 666.331 228.607 666.331 229.151C666.331 229.973 666.022 230.607 665.403 231.055C664.795 231.493 664.033 231.711 663.115 231.711C661.473 231.711 660.353 231.077 659.755 229.807L661.547 228.799C661.782 229.493 662.305 229.839 663.115 229.839C663.851 229.839 664.219 229.61 664.219 229.151C664.219 228.938 664.075 228.767 663.787 228.639C663.51 228.501 663.169 228.378 662.763 228.271C662.358 228.165 661.953 228.031 661.547 227.871C661.142 227.711 660.795 227.461 660.507 227.119C660.23 226.767 660.091 226.33 660.091 225.807C660.091 225.018 660.379 224.399 660.955 223.951C661.542 223.493 662.267 223.263 663.131 223.263C663.782 223.263 664.374 223.413 664.907 223.711C665.441 223.999 665.862 224.415 666.171 224.959L664.411 225.919C664.155 225.375 663.729 225.103 663.131 225.103C662.865 225.103 662.641 225.162 662.459 225.279C662.289 225.397 662.203 225.557 662.203 225.759ZM672 225.471H670.192V228.799C670.192 229.077 670.262 229.279 670.4 229.407C670.539 229.535 670.742 229.61 671.008 229.631C671.275 229.642 671.606 229.637 672 229.615V231.487C670.582 231.647 669.579 231.514 668.992 231.087C668.416 230.661 668.128 229.898 668.128 228.799V225.471H666.736V223.487H668.128V221.871L670.192 221.247V223.487H672V225.471ZM674.95 228.335C675.227 229.338 675.979 229.839 677.206 229.839C677.995 229.839 678.592 229.573 678.998 229.039L680.662 229.999C679.872 231.141 678.71 231.711 677.174 231.711C675.851 231.711 674.79 231.311 673.99 230.511C673.19 229.711 672.79 228.703 672.79 227.487C672.79 226.282 673.184 225.279 673.974 224.479C674.763 223.669 675.776 223.263 677.014 223.263C678.187 223.263 679.152 223.669 679.91 224.479C680.678 225.29 681.062 226.293 681.062 227.487C681.062 227.754 681.035 228.037 680.982 228.335H674.95ZM674.918 226.735H678.998C678.88 226.191 678.635 225.786 678.262 225.519C677.899 225.253 677.483 225.119 677.014 225.119C676.459 225.119 676 225.263 675.638 225.551C675.275 225.829 675.035 226.223 674.918 226.735ZM691.351 223.263C692.268 223.263 692.999 223.562 693.543 224.159C694.097 224.757 694.375 225.557 694.375 226.559V231.487H692.311V226.703C692.311 226.223 692.193 225.85 691.959 225.583C691.724 225.317 691.393 225.183 690.967 225.183C690.497 225.183 690.129 225.338 689.863 225.647C689.607 225.957 689.479 226.405 689.479 226.991V231.487H687.415V226.703C687.415 226.223 687.297 225.85 687.063 225.583C686.828 225.317 686.497 225.183 686.071 225.183C685.612 225.183 685.244 225.338 684.967 225.647C684.7 225.957 684.567 226.405 684.567 226.991V231.487H682.503V223.487H684.567V224.335C685.047 223.621 685.788 223.263 686.791 223.263C687.772 223.263 688.497 223.647 688.967 224.415C689.5 223.647 690.295 223.263 691.351 223.263Z" fill="black"/>
<path d="M621.587 243.142H622.547V254.342H621.427V244.374L618.915 245.126L618.627 244.166L621.587 243.142ZM630.096 248.566C630.662 248.833 631.11 249.206 631.44 249.686C631.782 250.156 631.952 250.694 631.952 251.302C631.952 252.316 631.595 253.11 630.88 253.686C630.166 254.252 629.275 254.534 628.208 254.534C627.142 254.534 626.251 254.252 625.536 253.686C624.822 253.11 624.464 252.316 624.464 251.302C624.464 250.694 624.63 250.156 624.96 249.686C625.302 249.206 625.755 248.833 626.32 248.566C625.328 248.001 624.832 247.164 624.832 246.054C624.832 245.052 625.163 244.284 625.824 243.75C626.496 243.217 627.291 242.95 628.208 242.95C629.126 242.95 629.915 243.217 630.576 243.75C631.248 244.284 631.584 245.052 631.584 246.054C631.584 247.164 631.088 248.001 630.096 248.566ZM629.808 244.534C629.382 244.204 628.848 244.038 628.208 244.038C627.568 244.038 627.03 244.204 626.592 244.534C626.166 244.865 625.952 245.372 625.952 246.054C625.952 246.694 626.171 247.19 626.608 247.542C627.056 247.894 627.59 248.07 628.208 248.07C628.827 248.07 629.355 247.894 629.792 247.542C630.24 247.19 630.464 246.694 630.464 246.054C630.464 245.372 630.246 244.865 629.808 244.534ZM626.304 252.902C626.784 253.265 627.419 253.446 628.208 253.446C628.998 253.446 629.632 253.265 630.112 252.902C630.592 252.529 630.832 251.996 630.832 251.302C630.832 250.609 630.592 250.081 630.112 249.718C629.632 249.345 628.998 249.158 628.208 249.158C627.419 249.158 626.784 249.345 626.304 249.718C625.824 250.081 625.584 250.609 625.584 251.302C625.584 251.996 625.824 252.529 626.304 252.902ZM635.685 247.75C634.992 247.75 634.411 247.521 633.941 247.062C633.472 246.593 633.237 246.022 633.237 245.35C633.237 244.678 633.472 244.113 633.941 243.654C634.411 243.185 634.992 242.95 635.685 242.95C636.379 242.95 636.96 243.185 637.429 243.654C637.899 244.113 638.133 244.678 638.133 245.35C638.133 246.022 637.904 246.593 637.445 247.062C636.987 247.521 636.4 247.75 635.685 247.75ZM634.661 246.374C634.928 246.652 635.269 246.79 635.685 246.79C636.101 246.79 636.443 246.652 636.709 246.374C636.976 246.097 637.109 245.756 637.109 245.35C637.109 244.945 636.976 244.604 636.709 244.326C636.443 244.049 636.101 243.91 635.685 243.91C635.269 243.91 634.928 244.049 634.661 244.326C634.395 244.604 634.261 244.945 634.261 245.35C634.261 245.756 634.395 246.097 634.661 246.374ZM633.797 252.822L641.301 244.39L641.989 244.774L634.469 253.206L633.797 252.822ZM641.957 253.846C641.488 254.305 640.907 254.534 640.213 254.534C639.52 254.534 638.939 254.305 638.469 253.846C638 253.377 637.765 252.806 637.765 252.134C637.765 251.462 638 250.897 638.469 250.438C638.939 249.969 639.52 249.734 640.213 249.734C640.907 249.734 641.488 249.969 641.957 250.438C642.427 250.897 642.661 251.462 642.661 252.134C642.661 252.806 642.427 253.377 641.957 253.846ZM639.189 253.158C639.456 253.436 639.797 253.574 640.213 253.574C640.629 253.574 640.971 253.436 641.237 253.158C641.504 252.881 641.637 252.54 641.637 252.134C641.637 251.729 641.504 251.388 641.237 251.11C640.971 250.833 640.629 250.694 640.213 250.694C639.797 250.694 639.456 250.833 639.189 251.11C638.923 251.388 638.789 251.729 638.789 252.134C638.789 252.54 638.923 252.881 639.189 253.158Z" fill="black"/>
<path d="M595.484 238.342H557.336L517.777 223.65" stroke="black" stroke-width="0.817971"/>
<path d="M510.824 222.833C510.824 220.806 512.471 219.161 514.505 219.161C516.539 219.161 518.186 220.806 518.186 222.833C518.186 224.86 516.539 226.505 514.505 226.505C512.471 226.505 510.824 224.86 510.824 222.833Z" stroke="black" stroke-width="0.817971"/>
<path d="M623.603 153.356C624.68 153.356 625.587 153.719 626.323 154.444C627.059 155.169 627.427 156.06 627.427 157.116C627.427 158.172 627.059 159.063 626.323 159.788C625.587 160.513 624.68 160.876 623.603 160.876H621.635V164.556H619.427V153.356H623.603ZM623.603 158.812C624.072 158.812 624.461 158.652 624.771 158.332C625.08 158.001 625.235 157.596 625.235 157.116C625.235 156.625 625.08 156.22 624.771 155.9C624.461 155.58 624.072 155.42 623.603 155.42H621.635V158.812H623.603ZM630.66 157.932C630.852 157.42 631.167 157.036 631.604 156.78C632.052 156.524 632.548 156.396 633.092 156.396V158.7C632.463 158.625 631.898 158.753 631.396 159.084C630.906 159.415 630.66 159.964 630.66 160.732V164.556H628.596V156.556H630.66V157.932ZM635.323 155.596C634.982 155.596 634.683 155.473 634.427 155.228C634.182 154.972 634.059 154.673 634.059 154.332C634.059 153.991 634.182 153.692 634.427 153.436C634.683 153.18 634.982 153.052 635.323 153.052C635.675 153.052 635.974 153.18 636.219 153.436C636.475 153.692 636.603 153.991 636.603 154.332C636.603 154.673 636.475 154.972 636.219 155.228C635.974 155.473 635.675 155.596 635.323 155.596ZM634.299 164.556V156.556H636.363V164.556H634.299ZM643.517 156.556H645.789L642.749 164.556H640.397L637.357 156.556H639.629L641.565 162.156L643.517 156.556ZM652.551 156.556H654.615V164.556H652.551V163.612C651.933 164.391 651.063 164.78 649.943 164.78C648.877 164.78 647.959 164.375 647.191 163.564C646.434 162.743 646.055 161.74 646.055 160.556C646.055 159.372 646.434 158.375 647.191 157.564C647.959 156.743 648.877 156.332 649.943 156.332C651.063 156.332 651.933 156.721 652.551 157.5V156.556ZM648.743 162.188C649.159 162.604 649.687 162.812 650.327 162.812C650.967 162.812 651.495 162.604 651.911 162.188C652.338 161.761 652.551 161.217 652.551 160.556C652.551 159.895 652.338 159.356 651.911 158.94C651.495 158.513 650.967 158.3 650.327 158.3C649.687 158.3 649.159 158.513 648.743 158.94C648.327 159.356 648.119 159.895 648.119 160.556C648.119 161.217 648.327 161.761 648.743 162.188ZM661.063 158.54H659.255V161.868C659.255 162.145 659.324 162.348 659.463 162.476C659.602 162.604 659.804 162.679 660.071 162.7C660.338 162.711 660.668 162.705 661.063 162.684V164.556C659.644 164.716 658.642 164.583 658.055 164.156C657.479 163.729 657.191 162.967 657.191 161.868V158.54H655.799V156.556H657.191V154.94L659.255 154.316V156.556H661.063V158.54ZM664.012 161.404C664.29 162.407 665.042 162.908 666.268 162.908C667.058 162.908 667.655 162.641 668.06 162.108L669.724 163.068C668.935 164.209 667.772 164.78 666.236 164.78C664.914 164.78 663.852 164.38 663.052 163.58C662.252 162.78 661.852 161.772 661.852 160.556C661.852 159.351 662.247 158.348 663.036 157.548C663.826 156.737 664.839 156.332 666.076 156.332C667.25 156.332 668.215 156.737 668.972 157.548C669.74 158.359 670.124 159.361 670.124 160.556C670.124 160.823 670.098 161.105 670.044 161.404H664.012ZM663.98 159.804H668.06C667.943 159.26 667.698 158.855 667.324 158.588C666.962 158.321 666.546 158.188 666.076 158.188C665.522 158.188 665.063 158.332 664.7 158.62C664.338 158.897 664.098 159.292 663.98 159.804ZM679.485 164.78C678.376 164.78 677.442 164.535 676.685 164.044C675.928 163.543 675.394 162.865 675.085 162.012L676.973 160.908C677.41 162.049 678.269 162.62 679.549 162.62C680.168 162.62 680.621 162.508 680.909 162.284C681.197 162.06 681.341 161.777 681.341 161.436C681.341 161.041 681.165 160.737 680.813 160.524C680.461 160.3 679.832 160.06 678.925 159.804C678.424 159.655 677.997 159.505 677.645 159.356C677.304 159.207 676.957 159.009 676.605 158.764C676.264 158.508 676.002 158.188 675.821 157.804C675.64 157.42 675.549 156.972 675.549 156.46C675.549 155.447 675.906 154.641 676.621 154.044C677.346 153.436 678.216 153.132 679.229 153.132C680.136 153.132 680.93 153.356 681.613 153.804C682.306 154.241 682.845 154.855 683.229 155.644L681.373 156.716C680.925 155.756 680.21 155.276 679.229 155.276C678.77 155.276 678.408 155.383 678.141 155.596C677.885 155.799 677.757 156.065 677.757 156.396C677.757 156.748 677.901 157.036 678.189 157.26C678.488 157.473 679.053 157.708 679.885 157.964C680.226 158.071 680.482 158.156 680.653 158.22C680.834 158.273 681.074 158.364 681.373 158.492C681.682 158.609 681.917 158.721 682.077 158.828C682.248 158.935 682.44 159.079 682.653 159.26C682.866 159.441 683.026 159.628 683.133 159.82C683.25 160.012 683.346 160.247 683.421 160.524C683.506 160.791 683.549 161.084 683.549 161.404C683.549 162.439 683.17 163.26 682.413 163.868C681.666 164.476 680.69 164.78 679.485 164.78ZM691.192 156.556H693.256V164.556H691.192V163.612C690.573 164.391 689.704 164.78 688.584 164.78C687.517 164.78 686.6 164.375 685.832 163.564C685.075 162.743 684.696 161.74 684.696 160.556C684.696 159.372 685.075 158.375 685.832 157.564C686.6 156.743 687.517 156.332 688.584 156.332C689.704 156.332 690.573 156.721 691.192 157.5V156.556ZM687.384 162.188C687.8 162.604 688.328 162.812 688.968 162.812C689.608 162.812 690.136 162.604 690.552 162.188C690.979 161.761 691.192 161.217 691.192 160.556C691.192 159.895 690.979 159.356 690.552 158.94C690.136 158.513 689.608 158.3 688.968 158.3C688.328 158.3 687.8 158.513 687.384 158.94C686.968 159.356 686.76 159.895 686.76 160.556C686.76 161.217 686.968 161.761 687.384 162.188ZM695.128 164.556V152.876H697.192V164.556H695.128ZM700.825 161.404C701.102 162.407 701.854 162.908 703.081 162.908C703.87 162.908 704.467 162.641 704.873 162.108L706.537 163.068C705.747 164.209 704.585 164.78 703.049 164.78C701.726 164.78 700.665 164.38 699.865 163.58C699.065 162.78 698.665 161.772 698.665 160.556C698.665 159.351 699.059 158.348 699.849 157.548C700.638 156.737 701.651 156.332 702.889 156.332C704.062 156.332 705.027 156.737 705.785 157.548C706.553 158.359 706.937 159.361 706.937 160.556C706.937 160.823 706.91 161.105 706.857 161.404H700.825ZM700.793 159.804H704.873C704.755 159.26 704.51 158.855 704.137 158.588C703.774 158.321 703.358 158.188 702.889 158.188C702.334 158.188 701.875 158.332 701.513 158.62C701.15 158.897 700.91 159.292 700.793 159.804Z" fill="black"/>
<path d="M622.627 180.21C623.725 180.21 624.627 180.557 625.331 181.25C626.035 181.933 626.387 182.818 626.387 183.906C626.387 184.994 626.035 185.885 625.331 186.578C624.627 187.261 623.725 187.602 622.627 187.602C621.528 187.602 620.627 187.261 619.923 186.578C619.219 185.885 618.867 184.994 618.867 183.906C618.867 183.064 619.096 182.317 619.555 181.666L623.219 176.21H624.483L621.731 180.306C622.019 180.242 622.317 180.21 622.627 180.21ZM620.707 185.794C621.197 186.274 621.837 186.514 622.627 186.514C623.416 186.514 624.051 186.274 624.531 185.794C625.021 185.314 625.267 184.685 625.267 183.906C625.267 183.128 625.021 182.498 624.531 182.018C624.051 181.538 623.416 181.298 622.627 181.298C621.837 181.298 621.197 181.538 620.707 182.018C620.227 182.498 619.987 183.128 619.987 183.906C619.987 184.685 620.227 185.314 620.707 185.794ZM629.795 180.818C629.101 180.818 628.52 180.589 628.051 180.13C627.581 179.661 627.347 179.09 627.347 178.418C627.347 177.746 627.581 177.181 628.051 176.722C628.52 176.253 629.101 176.018 629.795 176.018C630.488 176.018 631.069 176.253 631.539 176.722C632.008 177.181 632.243 177.746 632.243 178.418C632.243 179.09 632.013 179.661 631.555 180.13C631.096 180.589 630.509 180.818 629.795 180.818ZM628.771 179.442C629.037 179.72 629.379 179.858 629.795 179.858C630.211 179.858 630.552 179.72 630.819 179.442C631.085 179.165 631.219 178.824 631.219 178.418C631.219 178.013 631.085 177.672 630.819 177.394C630.552 177.117 630.211 176.978 629.795 176.978C629.379 176.978 629.037 177.117 628.771 177.394C628.504 177.672 628.371 178.013 628.371 178.418C628.371 178.824 628.504 179.165 628.771 179.442ZM627.907 185.89L635.411 177.458L636.099 177.842L628.579 186.274L627.907 185.89ZM636.067 186.914C635.597 187.373 635.016 187.602 634.323 187.602C633.629 187.602 633.048 187.373 632.579 186.914C632.109 186.445 631.875 185.874 631.875 185.202C631.875 184.53 632.109 183.965 632.579 183.506C633.048 183.037 633.629 182.802 634.323 182.802C635.016 182.802 635.597 183.037 636.067 183.506C636.536 183.965 636.771 184.53 636.771 185.202C636.771 185.874 636.536 186.445 636.067 186.914ZM633.299 186.226C633.565 186.504 633.907 186.642 634.323 186.642C634.739 186.642 635.08 186.504 635.347 186.226C635.613 185.949 635.747 185.608 635.747 185.202C635.747 184.797 635.613 184.456 635.347 184.178C635.08 183.901 634.739 183.762 634.323 183.762C633.907 183.762 633.565 183.901 633.299 184.178C633.032 184.456 632.899 184.797 632.899 185.202C632.899 185.608 633.032 185.949 633.299 186.226Z" fill="black"/>
<path d="M595.484 171.411H454.272L414.713 156.719" stroke="black" stroke-width="0.817971"/>
<path d="M407.76 155.902C407.76 153.875 409.407 152.23 411.44 152.23C413.474 152.23 415.121 153.875 415.121 155.902C415.121 157.929 413.474 159.574 411.44 159.574C409.407 159.574 407.76 157.929 407.76 155.902Z" stroke="black" stroke-width="0.817971"/>
<path d="M626.627 99.2561L625.955 97.2401H621.491L620.819 99.2561H618.435L622.355 88.0561H625.091L629.027 99.2561H626.627ZM622.195 95.1761H625.267L623.731 90.6001L622.195 95.1761ZM635.221 91.2561H637.285V99.2561H635.221V98.3601C634.719 99.1068 633.925 99.4801 632.837 99.4801C631.962 99.4801 631.237 99.1868 630.661 98.6001C630.095 98.0134 629.813 97.2028 629.813 96.1681V91.2561H631.877V95.9121C631.877 96.4454 632.021 96.8561 632.309 97.1441C632.597 97.4214 632.981 97.5601 633.461 97.5601C633.994 97.5601 634.421 97.3948 634.741 97.0641C635.061 96.7334 635.221 96.2374 635.221 95.5761V91.2561ZM642.983 99.4801C641.778 99.4801 640.77 99.0748 639.959 98.2641C639.159 97.4534 638.759 96.4508 638.759 95.2561C638.759 94.0614 639.159 93.0588 639.959 92.2481C640.77 91.4374 641.778 91.0321 642.983 91.0321C643.762 91.0321 644.471 91.2188 645.111 91.5921C645.751 91.9654 646.236 92.4668 646.567 93.0961L644.791 94.1361C644.631 93.8054 644.386 93.5441 644.055 93.3521C643.735 93.1601 643.372 93.0641 642.967 93.0641C642.348 93.0641 641.836 93.2721 641.431 93.6881C641.026 94.0934 640.823 94.6161 640.823 95.2561C640.823 95.8854 641.026 96.4081 641.431 96.8241C641.836 97.2294 642.348 97.4321 642.967 97.4321C643.383 97.4321 643.751 97.3414 644.071 97.1601C644.402 96.9681 644.647 96.7068 644.807 96.3761L646.599 97.4001C646.247 98.0294 645.751 98.5361 645.111 98.9201C644.471 99.2934 643.762 99.4801 642.983 99.4801ZM652.267 93.2401H650.459V96.5681C650.459 96.8454 650.528 97.0481 650.667 97.1761C650.805 97.3041 651.008 97.3788 651.275 97.4001C651.541 97.4108 651.872 97.4054 652.267 97.3841V99.2561C650.848 99.4161 649.845 99.2828 649.259 98.8561C648.683 98.4294 648.395 97.6668 648.395 96.5681V93.2401H647.003V91.2561H648.395V89.6401L650.459 89.0161V91.2561H652.267V93.2401ZM654.746 90.2961C654.404 90.2961 654.106 90.1734 653.85 89.9281C653.604 89.6721 653.482 89.3734 653.482 89.0321C653.482 88.6908 653.604 88.3921 653.85 88.1361C654.106 87.8801 654.404 87.7521 654.746 87.7521C655.098 87.7521 655.396 87.8801 655.642 88.1361C655.898 88.3921 656.026 88.6908 656.026 89.0321C656.026 89.3734 655.898 89.6721 655.642 89.9281C655.396 90.1734 655.098 90.2961 654.746 90.2961ZM653.722 99.2561V91.2561H655.786V99.2561H653.722ZM664.491 98.2641C663.67 99.0748 662.667 99.4801 661.483 99.4801C660.299 99.4801 659.296 99.0748 658.475 98.2641C657.664 97.4428 657.259 96.4401 657.259 95.2561C657.259 94.0721 657.664 93.0748 658.475 92.2641C659.296 91.4428 660.299 91.0321 661.483 91.0321C662.667 91.0321 663.67 91.4428 664.491 92.2641C665.312 93.0748 665.723 94.0721 665.723 95.2561C665.723 96.4401 665.312 97.4428 664.491 98.2641ZM659.931 96.8401C660.347 97.2561 660.864 97.4641 661.483 97.4641C662.102 97.4641 662.619 97.2561 663.035 96.8401C663.451 96.4241 663.659 95.8961 663.659 95.2561C663.659 94.6161 663.451 94.0881 663.035 93.6721C662.619 93.2561 662.102 93.0481 661.483 93.0481C660.864 93.0481 660.347 93.2561 659.931 93.6721C659.526 94.0881 659.323 94.6161 659.323 95.2561C659.323 95.8961 659.526 96.4241 659.931 96.8401ZM671.623 91.0321C672.498 91.0321 673.218 91.3254 673.783 91.9121C674.359 92.4988 674.647 93.3094 674.647 94.3441V99.2561H672.583V94.6001C672.583 94.0668 672.439 93.6614 672.151 93.3841C671.863 93.0961 671.479 92.9521 670.999 92.9521C670.466 92.9521 670.039 93.1174 669.719 93.4481C669.399 93.7788 669.239 94.2748 669.239 94.9361V99.2561H667.175V91.2561H669.239V92.1521C669.74 91.4054 670.535 91.0321 671.623 91.0321Z" fill="black"/>
<path d="M619.027 122.111V121.103L623.059 117.039C624.211 115.887 624.787 114.9 624.787 114.079C624.787 113.364 624.563 112.81 624.115 112.415C623.678 112.01 623.15 111.807 622.531 111.807C621.379 111.807 620.542 112.335 620.019 113.391L619.075 112.831C619.427 112.138 619.907 111.615 620.515 111.263C621.123 110.9 621.795 110.719 622.531 110.719C623.427 110.719 624.211 111.023 624.883 111.631C625.566 112.228 625.907 113.044 625.907 114.079C625.907 114.73 625.726 115.354 625.363 115.951C625.001 116.548 624.489 117.178 623.827 117.839L620.627 121.023H626.147V122.111H619.027ZM630.045 115.519C629.352 115.519 628.771 115.29 628.301 114.831C627.832 114.362 627.597 113.791 627.597 113.119C627.597 112.447 627.832 111.882 628.301 111.423C628.771 110.954 629.352 110.719 630.045 110.719C630.739 110.719 631.32 110.954 631.789 111.423C632.259 111.882 632.493 112.447 632.493 113.119C632.493 113.791 632.264 114.362 631.805 114.831C631.347 115.29 630.76 115.519 630.045 115.519ZM629.021 114.143C629.288 114.42 629.629 114.559 630.045 114.559C630.461 114.559 630.803 114.42 631.069 114.143C631.336 113.866 631.469 113.524 631.469 113.119C631.469 112.714 631.336 112.372 631.069 112.095C630.803 111.818 630.461 111.679 630.045 111.679C629.629 111.679 629.288 111.818 629.021 112.095C628.755 112.372 628.621 112.714 628.621 113.119C628.621 113.524 628.755 113.866 629.021 114.143ZM628.157 120.591L635.661 112.159L636.349 112.543L628.829 120.975L628.157 120.591ZM636.317 121.615C635.848 122.074 635.267 122.303 634.573 122.303C633.88 122.303 633.299 122.074 632.829 121.615C632.36 121.146 632.125 120.575 632.125 119.903C632.125 119.231 632.36 118.666 632.829 118.207C633.299 117.738 633.88 117.503 634.573 117.503C635.267 117.503 635.848 117.738 636.317 118.207C636.787 118.666 637.021 119.231 637.021 119.903C637.021 120.575 636.787 121.146 636.317 121.615ZM633.549 120.927C633.816 121.204 634.157 121.343 634.573 121.343C634.989 121.343 635.331 121.204 635.597 120.927C635.864 120.65 635.997 120.308 635.997 119.903C635.997 119.498 635.864 119.156 635.597 118.879C635.331 118.602 634.989 118.463 634.573 118.463C634.157 118.463 633.816 118.602 633.549 118.879C633.283 119.156 633.149 119.498 633.149 119.903C633.149 120.308 633.283 120.65 633.549 120.927Z" fill="black"/>
<path d="M595.483 106.112H436.276L396.717 120.804" stroke="black" stroke-width="0.817971"/>
<path d="M389.764 121.62C389.764 123.647 391.411 125.292 393.445 125.292C395.479 125.292 397.126 123.647 397.126 121.62C397.126 119.592 395.479 117.948 393.445 117.948C391.411 117.948 389.764 119.592 389.764 121.62Z" stroke="black" stroke-width="0.817971"/>
<path d="M621.635 13.888H625.907V16H619.427V4.8H621.635V13.888ZM632.989 8H635.053V16H632.989V15.056C632.37 15.8347 631.501 16.224 630.381 16.224C629.314 16.224 628.397 15.8187 627.629 15.008C626.872 14.1867 626.493 13.184 626.493 12C626.493 10.816 626.872 9.81867 627.629 9.008C628.397 8.18667 629.314 7.776 630.381 7.776C631.501 7.776 632.37 8.16533 632.989 8.944V8ZM629.181 13.632C629.597 14.048 630.125 14.256 630.765 14.256C631.405 14.256 631.933 14.048 632.349 13.632C632.776 13.2053 632.989 12.6613 632.989 12C632.989 11.3387 632.776 10.8 632.349 10.384C631.933 9.95733 631.405 9.744 630.765 9.744C630.125 9.744 629.597 9.95733 629.181 10.384C628.765 10.8 628.557 11.3387 628.557 12C628.557 12.6613 628.765 13.2053 629.181 13.632ZM642.204 8H644.268V16H642.204V15.104C641.703 15.8507 640.908 16.224 639.82 16.224C638.946 16.224 638.22 15.9307 637.644 15.344C637.079 14.7573 636.796 13.9467 636.796 12.912V8H638.86V12.656C638.86 13.1893 639.004 13.6 639.292 13.888C639.58 14.1653 639.964 14.304 640.444 14.304C640.978 14.304 641.404 14.1387 641.724 13.808C642.044 13.4773 642.204 12.9813 642.204 12.32V8ZM650.607 7.776C651.482 7.776 652.202 8.06933 652.767 8.656C653.343 9.24267 653.631 10.0533 653.631 11.088V16H651.567V11.344C651.567 10.8107 651.423 10.4053 651.135 10.128C650.847 9.84 650.463 9.696 649.983 9.696C649.45 9.696 649.023 9.86133 648.703 10.192C648.383 10.5227 648.223 11.0187 648.223 11.68V16H646.159V8H648.223V8.896C648.724 8.14933 649.519 7.776 650.607 7.776ZM659.201 16.224C657.996 16.224 656.988 15.8187 656.177 15.008C655.377 14.1973 654.977 13.1947 654.977 12C654.977 10.8053 655.377 9.80267 656.177 8.992C656.988 8.18133 657.996 7.776 659.201 7.776C659.98 7.776 660.689 7.96267 661.329 8.336C661.969 8.70933 662.455 9.21067 662.785 9.84L661.009 10.88C660.849 10.5493 660.604 10.288 660.273 10.096C659.953 9.904 659.591 9.808 659.185 9.808C658.567 9.808 658.055 10.016 657.649 10.432C657.244 10.8373 657.041 11.36 657.041 12C657.041 12.6293 657.244 13.152 657.649 13.568C658.055 13.9733 658.567 14.176 659.185 14.176C659.601 14.176 659.969 14.0853 660.289 13.904C660.62 13.712 660.865 13.4507 661.025 13.12L662.817 14.144C662.465 14.7733 661.969 15.28 661.329 15.664C660.689 16.0373 659.98 16.224 659.201 16.224ZM668.357 7.776C669.232 7.776 669.952 8.06933 670.517 8.656C671.093 9.24267 671.381 10.0533 671.381 11.088V16H669.317V11.344C669.317 10.8107 669.173 10.4053 668.885 10.128C668.597 9.84 668.213 9.696 667.733 9.696C667.2 9.696 666.773 9.86133 666.453 10.192C666.133 10.5227 665.973 11.0187 665.973 11.68V16H663.909V4.8H665.973V8.896C666.474 8.14933 667.269 7.776 668.357 7.776ZM677.799 7.776C678.877 7.776 679.794 8.18667 680.551 9.008C681.319 9.81867 681.703 10.816 681.703 12C681.703 13.184 681.319 14.1867 680.551 15.008C679.794 15.8187 678.877 16.224 677.799 16.224C676.679 16.224 675.815 15.8347 675.207 15.056V19.2H673.143V8H675.207V8.944C675.815 8.16533 676.679 7.776 677.799 7.776ZM675.831 13.632C676.247 14.048 676.775 14.256 677.415 14.256C678.055 14.256 678.583 14.048 678.999 13.632C679.426 13.2053 679.639 12.6613 679.639 12C679.639 11.3387 679.426 10.8 678.999 10.384C678.583 9.95733 678.055 9.744 677.415 9.744C676.775 9.744 676.247 9.95733 675.831 10.384C675.415 10.8 675.207 11.3387 675.207 12C675.207 12.6613 675.415 13.2053 675.831 13.632ZM689.975 15.008C689.154 15.8187 688.151 16.224 686.967 16.224C685.783 16.224 684.78 15.8187 683.959 15.008C683.148 14.1867 682.743 13.184 682.743 12C682.743 10.816 683.148 9.81867 683.959 9.008C684.78 8.18667 685.783 7.776 686.967 7.776C688.151 7.776 689.154 8.18667 689.975 9.008C690.796 9.81867 691.207 10.816 691.207 12C691.207 13.184 690.796 14.1867 689.975 15.008ZM685.415 13.584C685.831 14 686.348 14.208 686.967 14.208C687.586 14.208 688.103 14 688.519 13.584C688.935 13.168 689.143 12.64 689.143 12C689.143 11.36 688.935 10.832 688.519 10.416C688.103 10 687.586 9.792 686.967 9.792C686.348 9.792 685.831 10 685.415 10.416C685.01 10.832 684.807 11.36 684.807 12C684.807 12.64 685.01 13.168 685.415 13.584ZM699.475 15.008C698.654 15.8187 697.651 16.224 696.467 16.224C695.283 16.224 694.28 15.8187 693.459 15.008C692.648 14.1867 692.243 13.184 692.243 12C692.243 10.816 692.648 9.81867 693.459 9.008C694.28 8.18667 695.283 7.776 696.467 7.776C697.651 7.776 698.654 8.18667 699.475 9.008C700.296 9.81867 700.707 10.816 700.707 12C700.707 13.184 700.296 14.1867 699.475 15.008ZM694.915 13.584C695.331 14 695.848 14.208 696.467 14.208C697.086 14.208 697.603 14 698.019 13.584C698.435 13.168 698.643 12.64 698.643 12C698.643 11.36 698.435 10.832 698.019 10.416C697.603 10 697.086 9.792 696.467 9.792C695.848 9.792 695.331 10 694.915 10.416C694.51 10.832 694.307 11.36 694.307 12C694.307 12.64 694.51 13.168 694.915 13.584ZM702.159 16V4.32H704.223V16H702.159Z" fill="black"/>
<path d="M622.627 32.1665C623.672 32.1665 624.557 32.4758 625.283 33.0945C626.019 33.7025 626.387 34.5398 626.387 35.6065C626.387 36.6732 626.019 37.5158 625.283 38.1345C624.557 38.7425 623.672 39.0465 622.627 39.0465C621.784 39.0465 621.032 38.8438 620.371 38.4385C619.709 38.0225 619.261 37.4305 619.027 36.6625L619.971 36.1185C620.131 36.7158 620.445 37.1745 620.915 37.4945C621.395 37.8038 621.965 37.9585 622.627 37.9585C623.395 37.9585 624.024 37.7558 624.515 37.3505C625.016 36.9345 625.267 36.3532 625.267 35.6065C625.267 34.8598 625.016 34.2838 624.515 33.8785C624.024 33.4625 623.395 33.2545 622.627 33.2545H619.587L619.987 27.6545H625.987V28.7105H620.979L620.739 32.1665H622.627ZM630.123 32.2625C629.43 32.2625 628.848 32.0332 628.379 31.5745C627.91 31.1052 627.675 30.5345 627.675 29.8625C627.675 29.1905 627.91 28.6252 628.379 28.1665C628.848 27.6972 629.43 27.4625 630.123 27.4625C630.816 27.4625 631.398 27.6972 631.867 28.1665C632.336 28.6252 632.571 29.1905 632.571 29.8625C632.571 30.5345 632.342 31.1052 631.883 31.5745C631.424 32.0332 630.838 32.2625 630.123 32.2625ZM629.099 30.8865C629.366 31.1638 629.707 31.3025 630.123 31.3025C630.539 31.3025 630.88 31.1638 631.147 30.8865C631.414 30.6092 631.547 30.2678 631.547 29.8625C631.547 29.4572 631.414 29.1158 631.147 28.8385C630.88 28.5612 630.539 28.4225 630.123 28.4225C629.707 28.4225 629.366 28.5612 629.099 28.8385C628.832 29.1158 628.699 29.4572 628.699 29.8625C628.699 30.2678 628.832 30.6092 629.099 30.8865ZM628.235 37.3345L635.739 28.9025L636.427 29.2865L628.907 37.7185L628.235 37.3345ZM636.395 38.3585C635.926 38.8172 635.344 39.0465 634.651 39.0465C633.958 39.0465 633.376 38.8172 632.907 38.3585C632.438 37.8892 632.203 37.3185 632.203 36.6465C632.203 35.9745 632.438 35.4092 632.907 34.9505C633.376 34.4812 633.958 34.2465 634.651 34.2465C635.344 34.2465 635.926 34.4812 636.395 34.9505C636.864 35.4092 637.099 35.9745 637.099 36.6465C637.099 37.3185 636.864 37.8892 636.395 38.3585ZM633.627 37.6705C633.894 37.9478 634.235 38.0865 634.651 38.0865C635.067 38.0865 635.408 37.9478 635.675 37.6705C635.942 37.3932 636.075 37.0518 636.075 36.6465C636.075 36.2412 635.942 35.8998 635.675 35.6225C635.408 35.3452 635.067 35.2065 634.651 35.2065C634.235 35.2065 633.894 35.3452 633.627 35.6225C633.36 35.8998 633.227 36.2412 633.227 36.6465C633.227 37.0518 633.36 37.3932 633.627 37.6705Z" fill="black"/>
<path d="M595.484 22.8545H428.097L388.537 37.5466" stroke="black" stroke-width="0.817971"/>
<path d="M381.585 38.3629C381.585 40.3901 383.232 42.035 385.266 42.035C387.299 42.035 388.946 40.3901 388.946 38.3629C388.946 36.3356 387.299 34.6907 385.266 34.6907C383.232 34.6907 381.585 36.3356 381.585 38.3629Z" stroke="black" stroke-width="0.817971"/>
<path d="M5.21698 300.276C3.96898 300.276 2.94498 299.924 2.14498 299.22C1.34498 298.516 0.944977 297.572 0.944977 296.388V288.852H3.13698V296.212C3.13698 296.798 3.30231 297.262 3.63298 297.604C3.97431 297.945 4.50231 298.116 5.21698 298.116C5.93164 298.116 6.45431 297.945 6.78498 297.604C7.12631 297.262 7.29698 296.798 7.29698 296.212V288.852H9.50498V296.388C9.50498 297.572 9.10498 298.516 8.30498 299.22C7.50498 299.924 6.47564 300.276 5.21698 300.276ZM13.224 294.324C13.224 294.537 13.3626 294.713 13.64 294.852C13.928 294.98 14.2746 295.097 14.68 295.204C15.0853 295.3 15.4906 295.428 15.896 295.588C16.3013 295.737 16.6426 295.993 16.92 296.356C17.208 296.718 17.352 297.172 17.352 297.716C17.352 298.537 17.0426 299.172 16.424 299.62C15.816 300.057 15.0533 300.276 14.136 300.276C12.4933 300.276 11.3733 299.641 10.776 298.372L12.568 297.364C12.8026 298.057 13.3253 298.404 14.136 298.404C14.872 298.404 15.24 298.174 15.24 297.716C15.24 297.502 15.096 297.332 14.808 297.204C14.5306 297.065 14.1893 296.942 13.784 296.836C13.3786 296.729 12.9733 296.596 12.568 296.436C12.1626 296.276 11.816 296.025 11.528 295.684C11.2506 295.332 11.112 294.894 11.112 294.372C11.112 293.582 11.4 292.964 11.976 292.516C12.5626 292.057 13.288 291.828 14.152 291.828C14.8026 291.828 15.3946 291.977 15.928 292.276C16.4613 292.564 16.8826 292.98 17.192 293.524L15.432 294.484C15.176 293.94 14.7493 293.668 14.152 293.668C13.8853 293.668 13.6613 293.726 13.48 293.844C13.3093 293.961 13.224 294.121 13.224 294.324ZM20.314 296.9C20.5913 297.902 21.3433 298.404 22.57 298.404C23.3593 298.404 23.9566 298.137 24.362 297.604L26.026 298.564C25.2366 299.705 24.074 300.276 22.538 300.276C21.2153 300.276 20.154 299.876 19.354 299.076C18.554 298.276 18.154 297.268 18.154 296.052C18.154 294.846 18.5486 293.844 19.338 293.044C20.1273 292.233 21.1406 291.828 22.378 291.828C23.5513 291.828 24.5166 292.233 25.274 293.044C26.042 293.854 26.426 294.857 26.426 296.052C26.426 296.318 26.3993 296.601 26.346 296.9H20.314ZM20.282 295.3H24.362C24.2446 294.756 23.9993 294.35 23.626 294.084C23.2633 293.817 22.8473 293.684 22.378 293.684C21.8233 293.684 21.3646 293.828 21.002 294.116C20.6393 294.393 20.3993 294.788 20.282 295.3ZM29.9309 293.428C30.1229 292.916 30.4375 292.532 30.8749 292.276C31.3229 292.02 31.8189 291.892 32.3629 291.892V294.196C31.7335 294.121 31.1682 294.249 30.6669 294.58C30.1762 294.91 29.9309 295.46 29.9309 296.228V300.052H27.8669V292.052H29.9309V293.428ZM48.658 294.036V294.9C48.658 296.5 48.146 297.796 47.122 298.788C46.098 299.78 44.7753 300.276 43.154 300.276C41.426 300.276 39.9913 299.716 38.85 298.596C37.7193 297.465 37.154 296.089 37.154 294.468C37.154 292.836 37.714 291.454 38.834 290.324C39.9646 289.193 41.362 288.628 43.026 288.628C44.0713 288.628 45.026 288.868 45.89 289.348C46.754 289.817 47.426 290.446 47.906 291.236L46.018 292.324C45.7513 291.865 45.346 291.492 44.802 291.204C44.2686 290.916 43.6713 290.772 43.01 290.772C41.9433 290.772 41.0633 291.124 40.37 291.828C39.6873 292.521 39.346 293.401 39.346 294.468C39.346 295.524 39.6926 296.398 40.386 297.092C41.09 297.774 42.018 298.116 43.17 298.116C44.0233 298.116 44.7273 297.929 45.282 297.556C45.8473 297.172 46.2313 296.649 46.434 295.988H43.042V294.036H48.658ZM52.1965 293.428C52.3885 292.916 52.7031 292.532 53.1405 292.276C53.5885 292.02 54.0845 291.892 54.6285 291.892V294.196C53.9991 294.121 53.4338 294.249 52.9325 294.58C52.4418 294.91 52.1965 295.46 52.1965 296.228V300.052H50.1325V292.052H52.1965V293.428ZM62.3547 299.06C61.5334 299.87 60.5307 300.276 59.3467 300.276C58.1627 300.276 57.1601 299.87 56.3387 299.06C55.5281 298.238 55.1227 297.236 55.1227 296.052C55.1227 294.868 55.5281 293.87 56.3387 293.06C57.1601 292.238 58.1627 291.828 59.3467 291.828C60.5307 291.828 61.5334 292.238 62.3547 293.06C63.1761 293.87 63.5867 294.868 63.5867 296.052C63.5867 297.236 63.1761 298.238 62.3547 299.06ZM57.7947 297.636C58.2107 298.052 58.7281 298.26 59.3467 298.26C59.9654 298.26 60.4827 298.052 60.8987 297.636C61.3147 297.22 61.5227 296.692 61.5227 296.052C61.5227 295.412 61.3147 294.884 60.8987 294.468C60.4827 294.052 59.9654 293.844 59.3467 293.844C58.7281 293.844 58.2107 294.052 57.7947 294.468C57.3894 294.884 57.1867 295.412 57.1867 296.052C57.1867 296.692 57.3894 297.22 57.7947 297.636ZM73.7342 292.052H75.9262L73.3822 300.052H71.4142L69.9422 295.204L68.4702 300.052H66.5022L63.9582 292.052H66.1502L67.5102 296.964L68.9662 292.052H70.9182L72.3742 296.98L73.7342 292.052ZM81.6147 294.036H79.8067V297.364C79.8067 297.641 79.8761 297.844 80.0147 297.972C80.1534 298.1 80.3561 298.174 80.6227 298.196C80.8894 298.206 81.2201 298.201 81.6147 298.18V300.052C80.1961 300.212 79.1934 300.078 78.6067 299.652C78.0307 299.225 77.7427 298.462 77.7427 297.364V294.036H76.3507V292.052H77.7427V290.436L79.8067 289.812V292.052H81.6147V294.036ZM87.518 291.828C88.3926 291.828 89.1126 292.121 89.678 292.708C90.254 293.294 90.542 294.105 90.542 295.14V300.052H88.478V295.396C88.478 294.862 88.334 294.457 88.046 294.18C87.758 293.892 87.374 293.748 86.894 293.748C86.3606 293.748 85.934 293.913 85.614 294.244C85.294 294.574 85.134 295.07 85.134 295.732V300.052H83.07V288.852H85.134V292.948C85.6353 292.201 86.43 291.828 87.518 291.828Z" fill="black"/>
<path d="M8.88 319.61V320.666H7.44V322.906H6.32V320.666H0.4V319.61L4.56 311.706H5.792L1.632 319.61H6.32V316.186H7.44V319.61H8.88ZM17.4413 321.53C16.7053 322.575 15.6653 323.098 14.3213 323.098C12.9773 323.098 11.9319 322.575 11.1853 321.53C10.4493 320.474 10.0813 319.066 10.0813 317.306C10.0813 315.546 10.4493 314.143 11.1853 313.098C11.9319 312.042 12.9773 311.514 14.3213 311.514C15.6653 311.514 16.7053 312.042 17.4413 313.098C18.1879 314.143 18.5613 315.546 18.5613 317.306C18.5613 319.066 18.1879 320.474 17.4413 321.53ZM12.0173 320.778C12.5719 321.599 13.3399 322.01 14.3213 322.01C15.3026 322.01 16.0653 321.599 16.6093 320.778C17.1639 319.957 17.4413 318.799 17.4413 317.306C17.4413 315.813 17.1639 314.655 16.6093 313.834C16.0653 313.013 15.3026 312.602 14.3213 312.602C13.3399 312.602 12.5719 313.013 12.0173 313.834C11.4733 314.655 11.2013 315.813 11.2013 317.306C11.2013 318.799 11.4733 319.957 12.0173 320.778ZM22.4549 316.314C21.7615 316.314 21.1802 316.085 20.7109 315.626C20.2415 315.157 20.0069 314.586 20.0069 313.914C20.0069 313.242 20.2415 312.677 20.7109 312.218C21.1802 311.749 21.7615 311.514 22.4549 311.514C23.1482 311.514 23.7295 311.749 24.1989 312.218C24.6682 312.677 24.9029 313.242 24.9029 313.914C24.9029 314.586 24.6735 315.157 24.2149 315.626C23.7562 316.085 23.1695 316.314 22.4549 316.314ZM21.4309 314.938C21.6975 315.215 22.0389 315.354 22.4549 315.354C22.8709 315.354 23.2122 315.215 23.4789 314.938C23.7455 314.661 23.8789 314.319 23.8789 313.914C23.8789 313.509 23.7455 313.167 23.4789 312.89C23.2122 312.613 22.8709 312.474 22.4549 312.474C22.0389 312.474 21.6975 312.613 21.4309 312.89C21.1642 313.167 21.0309 313.509 21.0309 313.914C21.0309 314.319 21.1642 314.661 21.4309 314.938ZM20.5669 321.386L28.0709 312.954L28.7589 313.338L21.2389 321.77L20.5669 321.386ZM28.7269 322.41C28.2575 322.869 27.6762 323.098 26.9829 323.098C26.2895 323.098 25.7082 322.869 25.2389 322.41C24.7695 321.941 24.5349 321.37 24.5349 320.698C24.5349 320.026 24.7695 319.461 25.2389 319.002C25.7082 318.533 26.2895 318.298 26.9829 318.298C27.6762 318.298 28.2575 318.533 28.7269 319.002C29.1962 319.461 29.4309 320.026 29.4309 320.698C29.4309 321.37 29.1962 321.941 28.7269 322.41ZM25.9589 321.722C26.2255 321.999 26.5669 322.138 26.9829 322.138C27.3989 322.138 27.7402 321.999 28.0069 321.722C28.2735 321.445 28.4069 321.103 28.4069 320.698C28.4069 320.293 28.2735 319.951 28.0069 319.674C27.7402 319.397 27.3989 319.258 26.9829 319.258C26.5669 319.258 26.2255 319.397 25.9589 319.674C25.6922 319.951 25.5589 320.293 25.5589 320.698C25.5589 321.103 25.6922 321.445 25.9589 321.722Z" fill="black"/>
<path d="M107.972 306.906H195.198L234.758 292.214" stroke="black" stroke-width="0.817971"/>
<path d="M241.711 291.398C241.711 289.371 240.064 287.726 238.03 287.726C235.996 287.726 234.349 289.371 234.349 291.398C234.349 293.425 235.996 295.07 238.03 295.07C240.064 295.07 241.711 293.425 241.711 291.398Z" stroke="black" stroke-width="0.817971"/>
<path d="M8.44946 4.8V6.912H5.42547V16H3.21746V6.912H0.209465V4.8H8.44946ZM9.87697 12.848C10.1543 13.8507 10.9063 14.352 12.133 14.352C12.9223 14.352 13.5196 14.0853 13.925 13.552L15.589 14.512C14.7996 15.6533 13.637 16.224 12.101 16.224C10.7783 16.224 9.71696 15.824 8.91696 15.024C8.11696 14.224 7.71696 13.216 7.71696 12C7.71696 10.7947 8.11163 9.792 8.90096 8.992C9.6903 8.18133 10.7036 7.776 11.941 7.776C13.1143 7.776 14.0796 8.18133 14.837 8.992C15.605 9.80267 15.989 10.8053 15.989 12C15.989 12.2667 15.9623 12.5493 15.909 12.848H9.87697ZM9.84496 11.248H13.925C13.8076 10.704 13.5623 10.2987 13.189 10.032C12.8263 9.76533 12.4103 9.632 11.941 9.632C11.3863 9.632 10.9276 9.776 10.565 10.064C10.2023 10.3413 9.9623 10.736 9.84496 11.248ZM23.4473 8H25.5113V16H23.4473V15.056C22.8287 15.8347 21.9593 16.224 20.8393 16.224C19.7727 16.224 18.8553 15.8187 18.0873 15.008C17.33 14.1867 16.9513 13.184 16.9513 12C16.9513 10.816 17.33 9.81867 18.0873 9.008C18.8553 8.18667 19.7727 7.776 20.8393 7.776C21.9593 7.776 22.8287 8.16533 23.4473 8.944V8ZM19.6393 13.632C20.0553 14.048 20.5833 14.256 21.2233 14.256C21.8633 14.256 22.3913 14.048 22.8073 13.632C23.234 13.2053 23.4473 12.6613 23.4473 12C23.4473 11.3387 23.234 10.8 22.8073 10.384C22.3913 9.95733 21.8633 9.744 21.2233 9.744C20.5833 9.744 20.0553 9.95733 19.6393 10.384C19.2233 10.8 19.0153 11.3387 19.0153 12C19.0153 12.6613 19.2233 13.2053 19.6393 13.632ZM36.231 7.776C37.1483 7.776 37.879 8.07467 38.423 8.672C38.9776 9.26933 39.255 10.0693 39.255 11.072V16H37.191V11.216C37.191 10.736 37.0736 10.3627 36.839 10.096C36.6043 9.82933 36.2736 9.696 35.847 9.696C35.3776 9.696 35.0096 9.85067 34.743 10.16C34.487 10.4693 34.359 10.9173 34.359 11.504V16H32.295V11.216C32.295 10.736 32.1776 10.3627 31.943 10.096C31.7083 9.82933 31.3776 9.696 30.951 9.696C30.4923 9.696 30.1243 9.85067 29.847 10.16C29.5803 10.4693 29.447 10.9173 29.447 11.504V16H27.383V8H29.447V8.848C29.927 8.13333 30.6683 7.776 31.671 7.776C32.6523 7.776 33.3776 8.16 33.847 8.928C34.3803 8.16 35.175 7.776 36.231 7.776Z" fill="black"/>
<path d="M3.20049 27.654H4.16049V38.854H3.04049V28.886L0.528488 29.638L0.240488 28.678L3.20049 27.654ZM9.67799 32.166C10.7233 32.166 11.6087 32.4753 12.334 33.094C13.07 33.702 13.438 34.5393 13.438 35.606C13.438 36.6727 13.07 37.5153 12.334 38.134C11.6087 38.742 10.7233 39.046 9.67799 39.046C8.83532 39.046 8.08332 38.8433 7.42199 38.438C6.76066 38.022 6.31265 37.43 6.07799 36.662L7.02199 36.118C7.18199 36.7153 7.49666 37.174 7.96599 37.494C8.44599 37.8033 9.01666 37.958 9.67799 37.958C10.446 37.958 11.0753 37.7553 11.566 37.35C12.0673 36.934 12.318 36.3527 12.318 35.606C12.318 34.8593 12.0673 34.2833 11.566 33.878C11.0753 33.462 10.446 33.254 9.67799 33.254H6.63799L7.03799 27.654H13.038V28.71H8.02999L7.78999 32.166H9.67799ZM17.1741 32.262C16.4808 32.262 15.8994 32.0327 15.4301 31.574C14.9608 31.1047 14.7261 30.534 14.7261 29.862C14.7261 29.19 14.9608 28.6247 15.4301 28.166C15.8994 27.6967 16.4808 27.462 17.1741 27.462C17.8674 27.462 18.4488 27.6967 18.9181 28.166C19.3874 28.6247 19.6221 29.19 19.6221 29.862C19.6221 30.534 19.3928 31.1047 18.9341 31.574C18.4754 32.0327 17.8888 32.262 17.1741 32.262ZM16.1501 30.886C16.4168 31.1633 16.7581 31.302 17.1741 31.302C17.5901 31.302 17.9314 31.1633 18.1981 30.886C18.4648 30.6087 18.5981 30.2673 18.5981 29.862C18.5981 29.4567 18.4648 29.1153 18.1981 28.838C17.9314 28.5607 17.5901 28.422 17.1741 28.422C16.7581 28.422 16.4168 28.5607 16.1501 28.838C15.8834 29.1153 15.7501 29.4567 15.7501 29.862C15.7501 30.2673 15.8834 30.6087 16.1501 30.886ZM15.2861 37.334L22.7901 28.902L23.4781 29.286L15.9581 37.718L15.2861 37.334ZM23.4461 38.358C22.9768 38.8167 22.3954 39.046 21.7021 39.046C21.0088 39.046 20.4274 38.8167 19.9581 38.358C19.4888 37.8887 19.2541 37.318 19.2541 36.646C19.2541 35.974 19.4888 35.4087 19.9581 34.95C20.4274 34.4807 21.0088 34.246 21.7021 34.246C22.3954 34.246 22.9768 34.4807 23.4461 34.95C23.9154 35.4087 24.1501 35.974 24.1501 36.646C24.1501 37.318 23.9154 37.8887 23.4461 38.358ZM20.6781 37.67C20.9448 37.9473 21.2861 38.086 21.7021 38.086C22.1181 38.086 22.4594 37.9473 22.7261 37.67C22.9928 37.3927 23.1261 37.0513 23.1261 36.646C23.1261 36.2407 22.9928 35.8993 22.7261 35.622C22.4594 35.3447 22.1181 35.206 21.7021 35.206C21.2861 35.206 20.9448 35.3447 20.6781 35.622C20.4114 35.8993 20.2781 36.2407 20.2781 36.646C20.2781 37.0513 20.4114 37.3927 20.6781 37.67Z" fill="black"/>
<path d="M107.973 22.854H276.996L316.555 37.5463" stroke="black" stroke-width="0.817971"/>
<path d="M323.509 38.3624C323.509 40.3897 321.861 42.0347 319.828 42.0347C317.794 42.0347 316.147 40.3897 316.147 38.3624C316.147 36.3352 317.794 34.6902 319.828 34.6902C321.861 34.6902 323.509 36.3352 323.509 38.3624Z" stroke="black" stroke-width="0.817971"/>
</svg>
