<svg width="32" height="32" viewBox="0 0 32 32" fill="none" xmlns="http://www.w3.org/2000/svg">
<rect width="32" height="32" rx="16" fill="white"/>
<path d="M19.7 9.0028L17.78 9C15.62 9 14.23 10.3524 14.23 12.4459V14.0344H12.3C12.14 14.0344 12 14.1623 12 14.32V16.6216C12 16.7793 12.14 16.9063 12.3 16.9063H14.23V22.7144C14.23 22.8721 14.37 23 14.53 23H17.05C17.22 23 17.35 22.8721 17.35 22.7144V16.9063H19.61C19.77 16.9063 19.91 16.7793 19.91 16.6216V14.32C19.91 14.2435 19.88 14.1716 19.82 14.1175C19.77 14.0643 19.69 14.0344 19.61 14.0344H17.35V12.6876C17.35 12.0399 17.51 11.7113 18.41 11.7113H19.7C19.86 11.7113 20 11.5835 20 11.4257V9.2884C20 9.13067 19.87 9.0028 19.7 9.0028Z" fill="black"/>
</svg>
