<svg width="108" height="50" viewBox="0 0 108 50" fill="none" xmlns="http://www.w3.org/2000/svg">
<path d="M9 2.44678V16.4543" stroke="#BFCFFF" stroke-width="3" stroke-linecap="round" stroke-linejoin="round"/>
<path d="M2 9.45068L16 9.45068" stroke="#BFCFFF" stroke-width="3" stroke-linecap="round" stroke-linejoin="round"/>
<path d="M102 20.4565V28.4609" stroke="#BFCFFF" stroke-width="3" stroke-linecap="round" stroke-linejoin="round"/>
<path d="M98 24.4587L106 24.4587" stroke="#BFCFFF" stroke-width="3" stroke-linecap="round" stroke-linejoin="round"/>
<path d="M61.8431 40.9904C63.7843 40.9904 65.3725 39.4014 65.3725 37.4591C65.3725 35.5169 63.7844 33.9278 61.8431 33.9278C59.9019 33.9278 58.3137 35.5168 58.3137 37.4591C58.3138 39.4013 59.902 40.9904 61.8431 40.9904Z" fill="#304CCF"/>
<path d="M40.6666 23.3698C38.8333 23.3698 37.3333 21.8931 37.3333 20.0881C37.3333 18.2832 38.8332 16.8065 40.6666 16.8065H67.3333V20.0881H70.6666V13.5249H40.6666C37 13.5249 34 16.4784 34 20.0882V41.4188C34 46.013 37.6667 49.6229 42.3334 49.6229H74V23.3698H40.6666ZM70.6666 46.3412H42.3334C39.5 46.3412 37.3334 44.2081 37.3334 41.4188V25.667C38.3334 26.3233 39.5 26.6514 40.6667 26.6514H70.6667V46.3412H70.6666Z" fill="#304CCF"/>
</svg>
