<svg width="222" height="170" viewBox="0 0 222 170" fill="none" xmlns="http://www.w3.org/2000/svg">
<path d="M123.97 103.46C112.439 96.8099 93.805 96.8099 82.3492 103.46C76.64 106.774 73.792 111.114 73.7981 115.457C73.7981 115.444 73.7971 115.43 73.7971 115.417L73.7737 118.78C73.7545 125.617 80.4647 130.505 86.8436 132.989C98.3795 137.484 114.041 136.733 124.082 130.904C133.654 125.348 132.634 119.127 132.658 115.584C132.655 116.654 133.955 109.218 123.97 103.46Z" fill="url(#paint0_linear)"/>
<path d="M128.783 113.9L128.76 117.263C128.748 121.592 125.899 125.916 120.208 129.219C108.752 135.869 90.1176 135.869 78.5868 129.219C72.7844 125.873 69.8867 121.48 69.8988 117.095L69.9222 113.732C69.91 118.118 72.8077 122.51 78.6101 125.857C90.1419 132.507 108.775 132.507 120.231 125.857C125.922 122.554 128.771 118.23 128.783 113.9Z" fill="#CDD1F6"/>
<mask id="mask0" mask-type="alpha" maskUnits="userSpaceOnUse" x="69" y="113" width="60" height="22">
<path d="M128.783 113.9L128.76 117.263C128.748 121.592 125.899 125.916 120.208 129.219C108.752 135.869 90.1176 135.869 78.5868 129.219C72.7844 125.873 69.8867 121.48 69.8988 117.095L69.9222 113.732C69.91 118.118 72.8077 122.51 78.6101 125.857C90.1419 132.507 108.775 132.507 120.231 125.857C125.922 122.554 128.771 118.23 128.783 113.9Z" fill="white"/>
</mask>
<g mask="url(#mask0)">
<path d="M128.783 113.901L128.76 117.264C128.753 119.86 127.724 122.454 125.676 124.827L125.699 121.464C127.747 119.091 128.776 116.497 128.783 113.901Z" fill="#CDD1F6"/>
<path d="M125.699 121.465L125.676 124.828C124.309 126.412 122.486 127.899 120.208 129.22C119.26 129.77 118.264 130.274 117.227 130.733L117.25 127.37C118.288 126.911 119.284 126.407 120.231 125.857C122.508 124.535 124.331 123.049 125.699 121.465Z" fill="#CDD1F6"/>
<path d="M117.25 127.37L117.227 130.733C110.546 133.689 102.163 134.759 94.2358 133.943L94.2591 130.58C102.186 131.396 110.569 130.326 117.25 127.37Z" fill="#CDD1F6"/>
<path d="M94.2595 130.579L94.2362 133.942C89.9455 133.5 85.7895 132.505 82.1086 130.958L82.1319 127.595C85.8128 129.143 89.9698 130.138 94.2595 130.579Z" fill="#CDD1F6"/>
<path d="M82.1318 127.597L82.1085 130.96C80.8765 130.442 79.6992 129.863 78.5868 129.221C72.7844 125.875 69.8867 121.482 69.8988 117.097L69.9222 113.734C69.91 118.12 72.8077 122.512 78.6101 125.859C79.7215 126.499 80.9008 127.079 82.1318 127.597Z" fill="#CDD1F6"/>
</g>
<path d="M120.096 101.776C131.627 108.426 131.688 119.207 120.232 125.857C108.776 132.507 90.1419 132.507 78.611 125.857C67.0802 119.207 67.0194 108.426 78.4753 101.776C89.9311 95.1263 108.565 95.1263 120.096 101.776Z" fill="#E8ECF2"/>
<path d="M118.399 113.985C118.403 116.509 116.515 118.925 113.083 120.786C109.32 122.827 104.368 123.847 99.4073 123.847C94.4469 123.847 89.4793 122.826 85.6901 120.785C82.2068 118.909 80.2879 116.474 80.2828 113.928C80.2828 113.844 80.2848 113.762 80.2879 113.679C80.2848 113.603 80.2828 113.528 80.2828 113.452C80.2798 110.928 82.1673 108.512 85.5999 106.65C89.3638 104.61 94.3151 103.59 99.2746 103.59C104.236 103.59 109.204 104.611 112.992 106.652C116.475 108.528 118.395 110.963 118.399 113.507C118.399 113.587 118.397 113.666 118.394 113.746V113.752C118.397 113.83 118.399 113.907 118.399 113.985ZM116.502 103.505C111.872 101.006 105.749 99.6328 99.2645 99.6328C92.7812 99.6328 86.6728 101.006 82.0629 103.505C77.2595 106.111 74.6182 109.643 74.6243 113.452C74.6243 113.54 74.6243 113.627 74.6294 113.71C74.6344 113.802 74.6344 113.89 74.6446 113.983C74.8847 117.607 77.5371 120.959 82.1774 123.458C86.8086 125.952 92.9312 127.331 99.4154 127.331C105.9 127.331 112.007 125.952 116.617 123.458C121.179 120.983 123.795 117.666 124.035 114.076C124.045 113.984 124.045 113.896 124.051 113.803C124.056 113.706 124.056 113.609 124.056 113.511C124.052 109.677 121.368 106.126 116.502 103.505Z" fill="#B5B9DC"/>
<path d="M116.502 104.601C111.872 102.107 105.749 100.733 99.2644 100.733C92.7812 100.733 86.6728 102.106 82.0629 104.606C77.5006 107.075 74.8847 110.393 74.6445 113.983C74.8847 117.607 77.5371 120.959 82.1774 123.458C86.8086 125.952 92.9311 127.331 99.4154 127.331C105.9 127.331 112.007 125.952 116.617 123.458C121.179 120.983 123.795 117.666 124.035 114.076C123.796 110.451 121.144 107.1 116.502 104.601Z" fill="url(#paint1_linear)"/>
<path d="M111.3 107.836C108.073 106.098 103.807 105.141 99.2889 105.141C94.7712 105.141 90.5149 106.098 87.3032 107.839C84.1239 109.561 82.3012 111.872 82.134 114.373C82.3012 116.898 84.1492 119.233 87.3832 120.974C90.6102 122.712 94.8766 123.673 99.3943 123.673C103.912 123.673 108.168 122.713 111.38 120.974C114.559 119.25 116.382 116.938 116.549 114.436C116.381 111.912 114.533 109.578 111.3 107.836Z" fill="#B5B9DC"/>
<path d="M111.3 106.816C108.073 105.078 103.807 104.121 99.2889 104.121C94.7712 104.121 90.5149 105.078 87.3032 106.819C84.1239 108.54 82.3012 110.851 82.134 113.352C82.3012 115.877 84.1492 118.213 87.3832 119.954C90.6102 121.691 94.8766 122.652 99.3943 122.652C103.912 122.652 108.168 121.691 111.38 119.954C114.559 118.229 116.382 115.918 116.549 113.416C116.381 110.892 114.533 108.558 111.3 106.816Z" fill="#E8ECF2"/>
<g opacity="0.7">
<path opacity="0.1667" d="M69.4029 64.388C85.9459 71.7736 112.679 71.7736 129.114 64.388C145.549 57.0023 145.462 45.0282 128.919 37.6425C112.376 30.2569 85.6429 30.2569 69.2074 37.6425C52.7728 45.0282 52.86 57.0023 69.4029 64.388Z" fill="#29F589"/>
<path opacity="0.3333" d="M71.8861 79.9638C87.0481 86.9841 111.551 86.9841 126.615 79.9638C141.679 72.9435 141.6 61.5614 126.437 54.54C111.274 47.5187 86.7715 47.5197 71.7078 54.54C56.643 61.5604 56.7231 72.9425 71.8861 79.9638Z" fill="#29F589"/>
<path opacity="0.5" d="M74.3681 93.7203C88.1502 100.376 110.423 100.376 124.116 93.7203C137.808 87.0643 137.736 76.2742 123.953 69.6182C110.171 62.9622 87.8989 62.9622 74.206 69.6182C60.5131 76.2742 60.5861 87.0653 74.3681 93.7203Z" fill="#29F589"/>
<path opacity="0.6667" d="M76.8516 105.596C89.2537 111.887 109.295 111.887 121.617 105.596C133.939 99.3056 133.873 89.1065 121.471 82.8169C109.069 76.5262 89.0278 76.5262 76.7057 82.8169C64.3835 89.1075 64.4494 99.3066 76.8516 105.596Z" fill="#29F589"/>
<path opacity="0.8333" d="M79.3336 115.906C90.3558 121.831 108.167 121.831 119.118 115.906C130.068 109.981 130.01 100.374 118.988 94.4484C107.966 88.5231 90.1542 88.5231 79.2039 94.4484C68.2536 100.374 68.3124 109.981 79.3336 115.906Z" fill="#29F589"/>
</g>
<path opacity="0.9" d="M105.403 98.2648C105.403 99.1667 104.651 99.768 103.9 99.768C102.998 99.768 102.397 99.0164 102.397 98.2648C102.397 97.5131 103.149 96.7615 103.9 96.7615C104.651 96.7615 105.403 97.3628 105.403 98.2648Z" fill="#25DC89"/>
<path opacity="0.3" d="M84.663 85.6373C84.663 86.2386 84.2121 86.5393 83.7612 86.5393C83.1601 86.5393 82.8595 86.0883 82.8595 85.6373C82.8595 85.036 83.3104 84.7354 83.7612 84.7354C84.2121 84.7354 84.663 85.1863 84.663 85.6373Z" fill="#25DC89"/>
<path opacity="0.2" d="M91.5764 74.6634C91.5764 75.2647 91.1255 75.7157 90.5243 75.7157C89.9232 75.7157 89.4723 75.2647 89.4723 74.6634C89.4723 74.0621 89.9232 73.6111 90.5243 73.6111C91.1255 73.6111 91.5764 74.0621 91.5764 74.6634Z" fill="#25DC89"/>
<path opacity="0.2" d="M120.666 70.8806C120.666 71.1689 120.382 71.4571 120.098 71.4571C119.814 71.4571 119.53 71.1689 119.53 70.8806C119.53 70.5923 119.814 70.304 120.098 70.304C120.382 70.304 120.666 70.5923 120.666 70.8806Z" fill="#25DC89"/>
<path opacity="0.2" d="M118.929 67.4477C118.929 68.1993 118.328 68.8006 117.577 68.8006C116.825 68.8006 116.224 68.1993 116.224 67.4477C116.224 66.696 116.825 66.0947 117.577 66.0947C118.328 66.2451 118.929 66.696 118.929 67.4477Z" fill="#25DC89"/>
<path opacity="0.2" d="M87.9696 73.3103C88.3016 73.3103 88.5707 73.0411 88.5707 72.709C88.5707 72.3769 88.3016 72.1077 87.9696 72.1077C87.6376 72.1077 87.3684 72.3769 87.3684 72.709C87.3684 73.0411 87.6376 73.3103 87.9696 73.3103Z" fill="#25DC89"/>
<path opacity="0.3" d="M87.6688 103.676C87.6688 104.278 87.218 104.578 86.7671 104.578C86.1659 104.578 85.8654 104.127 85.8654 103.676C85.8654 103.225 86.3162 102.774 86.7671 102.774C87.218 102.774 87.6688 103.225 87.6688 103.676Z" fill="#25DC89"/>
<path opacity="0.2" d="M94.5822 92.7024C94.5822 93.3038 94.1313 93.7547 93.5302 93.7547C92.929 93.7547 92.4781 93.3038 92.4781 92.7024C92.4781 92.1011 92.929 91.6501 93.5302 91.6501C94.1313 91.8005 94.5822 92.2515 94.5822 92.7024Z" fill="#25DC89"/>
<path opacity="0.2" d="M90.9751 91.3498C91.3071 91.3498 91.5762 91.0806 91.5762 90.7485C91.5762 90.4164 91.3071 90.1472 90.9751 90.1472C90.6431 90.1472 90.3739 90.4164 90.3739 90.7485C90.3739 91.0806 90.6431 91.3498 90.9751 91.3498Z" fill="#25DC89"/>
<path opacity="0.9" d="M100.091 82.4742C100.251 83.2102 101.05 83.6518 101.849 83.5046C102.648 83.3574 103.128 82.6214 102.968 81.8855C102.808 81.1495 102.009 80.7079 101.21 80.8551C100.251 81.0023 99.7718 81.7383 100.091 82.4742Z" fill="#25DC89"/>
<path opacity="0.3" d="M115.022 66.931C115.182 67.4008 115.663 67.714 116.143 67.5574C116.624 67.4008 116.944 66.931 116.784 66.4613C116.624 65.9915 116.143 65.6783 115.663 65.8349C115.182 65.8349 115.022 66.4613 115.022 66.931Z" fill="#25DC89"/>
<path opacity="0.2" d="M106.605 58.8131C106.765 59.2829 107.246 59.5961 107.726 59.4395C108.207 59.2829 108.527 58.8131 108.367 58.3434C108.207 57.8736 107.726 57.5604 107.246 57.717C106.765 57.717 106.605 58.3434 106.605 58.8131Z" fill="#25DC89"/>
<path opacity="0.2" d="M81.0938 62.0049C81.2357 62.2932 81.5195 62.4374 81.8034 62.4374C82.0872 62.2932 82.2292 62.0049 82.2292 61.7166C82.0872 61.4283 81.8034 61.2842 81.5195 61.2842C81.2357 61.4283 80.9519 61.7166 81.0938 62.0049Z" fill="#25DC89"/>
<path opacity="0.2" d="M81.3875 58.8128C81.5437 59.4381 82.1688 59.907 82.7939 59.7507C83.419 59.5944 83.8878 58.9691 83.7315 58.3439C83.5753 57.7186 82.9502 57.2497 82.3251 57.406C81.7 57.406 81.2312 58.1876 81.3875 58.8128Z" fill="#25DC89"/>
<path opacity="0.2" d="M109.048 56.5931C109.19 56.8814 109.473 57.0255 109.757 57.0255C110.041 56.8814 110.183 56.5931 110.183 56.3048C110.041 56.0165 109.757 55.8723 109.473 55.8723C109.19 56.0165 108.906 56.3048 109.048 56.5931Z" fill="#25DC89"/>
<path opacity="0.2" d="M115.98 104.349C115.696 104.493 115.412 104.493 115.128 104.349C114.986 104.061 114.986 103.772 115.128 103.484C115.412 103.34 115.696 103.34 115.98 103.484C116.264 103.772 116.264 104.205 115.98 104.349Z" fill="#25DC89"/>
<path opacity="0.2" d="M117.579 100.936C116.94 101.406 116.142 101.406 115.664 100.78C115.185 100.153 115.185 99.3702 115.823 98.9004C116.462 98.4305 117.26 98.4305 117.738 99.057C118.217 99.5268 118.058 100.467 117.579 100.936Z" fill="#25DC89"/>
<path opacity="0.3" d="M115.198 97.7391C114.875 98.2103 115.036 98.6816 115.359 98.9957C115.843 99.3099 116.327 99.1528 116.649 98.8386C116.972 98.3674 116.811 97.8962 116.488 97.582C116.166 97.2678 115.52 97.2678 115.198 97.7391Z" fill="#25DC89"/>
<path opacity="0.2" d="M116.099 85.9747C115.777 86.4587 115.938 86.9428 116.261 87.2655C116.745 87.5882 117.228 87.4268 117.551 87.1041C117.874 86.6201 117.712 86.136 117.39 85.8133C117.067 85.4907 116.422 85.652 116.099 85.9747Z" fill="#25DC89"/>
<path opacity="0.2" d="M119.624 86.1418C119.482 86.4301 119.482 86.7184 119.766 86.8626C120.049 87.0067 120.333 87.0067 120.475 86.7184C120.617 86.4301 120.617 86.1418 120.333 85.9977C120.049 85.8535 119.766 85.9977 119.624 86.1418Z" fill="#25DC89"/>
<path d="M96.4137 114.644C96.5609 115.38 97.2966 115.822 98.0324 115.675C98.7682 115.528 99.2097 114.792 99.0625 114.056C98.9154 113.32 98.1796 112.878 97.4438 113.025C96.708 113.172 96.2665 113.908 96.4137 114.644Z" fill="#25DC89"/>
<path d="M100.333 107.067C100.489 107.69 100.956 108.002 101.579 107.846C102.202 107.69 102.513 107.223 102.358 106.6C102.202 105.976 101.735 105.665 101.112 105.821C100.489 105.976 100.177 106.444 100.333 107.067Z" fill="#25DC89"/>
<path opacity="0.9" d="M105.403 79.3233C105.403 80.2253 104.651 80.8266 103.9 80.8266C102.998 80.8266 102.397 80.075 102.397 79.3233C102.397 78.5717 103.149 77.8201 103.9 77.8201C104.651 77.8201 105.403 78.5717 105.403 79.3233Z" fill="#25DC89"/>
<path opacity="0.3" d="M84.663 66.6962C84.663 67.2975 84.2121 67.5981 83.7612 67.5981C83.1601 67.5981 82.8595 67.1471 82.8595 66.6962C82.8595 66.0948 83.3104 65.7942 83.7612 65.7942C84.2121 65.7942 84.663 66.2452 84.663 66.6962Z" fill="#25DC89"/>
<path opacity="0.2" d="M91.5764 55.4214C91.5764 56.0227 91.1255 56.4737 90.5243 56.4737C89.9232 56.4737 89.4723 56.0227 89.4723 55.4214C89.4723 54.8201 89.9232 54.3691 90.5243 54.3691C91.1255 54.3691 91.5764 54.8201 91.5764 55.4214Z" fill="#25DC89"/>
<path opacity="0.2" d="M120.666 51.9391C120.666 52.2274 120.382 52.5157 120.098 52.5157C119.814 52.5157 119.53 52.2274 119.53 51.9391C119.53 51.6508 119.814 51.3625 120.098 51.3625C120.382 51.3625 120.666 51.6508 120.666 51.9391Z" fill="#25DC89"/>
<path opacity="0.2" d="M117.877 49.8595C118.624 49.8595 119.23 49.2537 119.23 48.5065C119.23 47.7593 118.624 47.1536 117.877 47.1536C117.13 47.1536 116.525 47.7593 116.525 48.5065C116.525 49.2537 117.13 49.8595 117.877 49.8595Z" fill="#25DC89"/>
<path opacity="0.2" d="M87.9696 54.0686C88.3016 54.0686 88.5707 53.7994 88.5707 53.4673C88.5707 53.1352 88.3016 52.866 87.9696 52.866C87.6376 52.866 87.3684 53.1352 87.3684 53.4673C87.3684 53.7994 87.6376 54.0686 87.9696 54.0686Z" fill="#25DC89"/>
<path opacity="0.3" d="M87.6688 84.7355C87.6688 85.3368 87.218 85.6374 86.7671 85.6374C86.1659 85.6374 85.8654 85.1864 85.8654 84.7355C85.8654 84.1342 86.3162 83.8335 86.7671 83.8335C87.218 83.8335 87.6688 84.2845 87.6688 84.7355Z" fill="#25DC89"/>
<path opacity="0.2" d="M94.5822 73.4607C94.5822 74.0621 94.1313 74.513 93.5302 74.513C92.929 74.513 92.4781 74.0621 92.4781 73.4607C92.4781 72.8594 92.929 72.4084 93.5302 72.4084C94.1313 72.5588 94.5822 73.0098 94.5822 73.4607Z" fill="#25DC89"/>
<path opacity="0.2" d="M90.9751 72.1079C91.3071 72.1079 91.5762 71.8387 91.5762 71.5066C91.5762 71.1745 91.3071 70.9053 90.9751 70.9053C90.6431 70.9053 90.3739 71.1745 90.3739 71.5066C90.3739 71.8387 90.6431 72.1079 90.9751 72.1079Z" fill="#25DC89"/>
<path opacity="0.9" d="M100.091 63.5328C100.251 64.2688 101.05 64.7104 101.849 64.5632C102.648 64.416 103.128 63.68 102.968 62.9441C102.808 62.2081 102.009 61.7665 101.21 61.9137C100.251 62.0609 99.7718 62.7969 100.091 63.5328Z" fill="#25DC89"/>
<path opacity="0.3" d="M115.022 47.9896C115.182 48.4594 115.663 48.7726 116.143 48.616C116.624 48.4594 116.944 47.9896 116.784 47.5199C116.624 47.0501 116.143 46.7369 115.663 46.8935C115.182 47.0501 115.022 47.5199 115.022 47.9896Z" fill="#25DC89"/>
<path opacity="0.2" d="M106.605 39.872C106.765 40.3417 107.246 40.6549 107.726 40.4983C108.207 40.3417 108.527 39.872 108.367 39.4022C108.207 38.9324 107.726 38.6193 107.246 38.7758C106.765 38.7758 106.605 39.4022 106.605 39.872Z" fill="#25DC89"/>
<path opacity="0.2" d="M81.0938 43.0638C81.2357 43.3521 81.5195 43.4962 81.8034 43.4962C82.0872 43.3521 82.2292 43.0638 82.2292 42.7755C82.0872 42.4872 81.8034 42.343 81.5195 42.343C81.2357 42.4872 80.9519 42.7755 81.0938 43.0638Z" fill="#25DC89"/>
<path opacity="0.2" d="M81.3875 39.8714C81.5437 40.4967 82.1688 40.9656 82.7939 40.8093C83.419 40.653 83.8878 40.0277 83.7315 39.4025C83.5753 38.7772 82.9502 38.3083 82.3251 38.4646C81.7 38.6209 81.2312 39.2462 81.3875 39.8714Z" fill="#25DC89"/>
<path opacity="0.2" d="M109.048 37.3511C109.19 37.6394 109.473 37.7836 109.757 37.7836C110.041 37.6394 110.183 37.3511 110.183 37.0628C110.041 36.7745 109.757 36.6304 109.473 36.6304C109.19 36.6304 108.906 37.0628 109.048 37.3511Z" fill="#25DC89"/>
<path opacity="0.2" d="M115.98 85.4078C115.696 85.552 115.412 85.552 115.128 85.4078C114.986 85.1195 114.986 84.8312 115.128 84.5429C115.412 84.3988 115.696 84.3988 115.98 84.5429C116.264 84.8312 116.264 85.2637 115.98 85.4078Z" fill="#25DC89"/>
<path opacity="0.2" d="M117.579 81.995C116.94 82.4649 116.142 82.4649 115.664 81.8384C115.185 81.2119 115.185 80.4288 115.823 79.9589C116.462 79.4891 117.26 79.4891 117.738 80.1156C118.217 80.742 118.058 81.5251 117.579 81.995Z" fill="#25DC89"/>
<path opacity="0.3" d="M115.198 78.7977C114.875 79.2689 115.036 79.7402 115.359 80.0543C115.843 80.3685 116.327 80.2114 116.649 79.8972C116.972 79.426 116.811 78.9547 116.488 78.6406C116.166 78.3264 115.52 78.3264 115.198 78.7977Z" fill="#25DC89"/>
<path opacity="0.2" d="M116.099 67.1219C115.777 67.5766 115.938 68.0314 116.261 68.3345C116.745 68.6376 117.228 68.4861 117.551 68.1829C117.874 67.7282 117.712 67.2735 117.39 66.9704C117.067 66.5156 116.422 66.6672 116.099 67.1219Z" fill="#25DC89"/>
<path opacity="0.2" d="M119.624 67.2004C119.482 67.4887 119.482 67.777 119.766 67.9212C120.049 68.0653 120.333 68.0653 120.475 67.777C120.617 67.4887 120.617 67.2004 120.333 67.0563C120.049 66.9121 119.766 67.0563 119.624 67.2004Z" fill="#25DC89"/>
<path d="M96.4137 95.7028C96.5609 96.4387 97.2966 96.8803 98.0324 96.7331C98.7682 96.5859 99.2097 95.85 99.0625 95.114C98.9154 94.378 98.1796 93.9364 97.4438 94.0836C96.708 94.2308 96.2665 94.9668 96.4137 95.7028Z" fill="#25DC89"/>
<path d="M100.333 87.8253C100.489 88.4484 100.956 88.76 101.579 88.6042C102.202 88.4484 102.513 87.9811 102.358 87.3579C102.202 86.7348 101.735 86.4232 101.112 86.579C100.489 86.7348 100.177 87.3579 100.333 87.8253Z" fill="#25DC89"/>
<path fill-rule="evenodd" clip-rule="evenodd" d="M126.214 34.7829L125.925 28.8766L123.939 28.8696C122.637 27.0439 120.634 25.2334 118.109 23.8101C107.71 17.4969 91.3509 17.0505 81.534 22.8507C79.0939 24.2566 77.3575 25.9478 76.2056 27.6765L74.2195 27.6695L74.5088 33.5759C74.7215 37.5548 77.3288 41.5068 82.5577 44.7254C92.956 51.0385 109.315 51.485 119.132 45.6848C124.069 42.6964 126.427 38.7619 126.214 34.7829Z" fill="url(#paint2_linear)"/>
<path d="M99.5693 11.2639C113.927 11.669 125.863 18.8107 126.23 27.2155C126.596 35.6203 115.254 42.1053 100.897 41.7002C86.5393 41.2952 74.6031 34.1534 74.2365 25.7486C73.87 17.3439 85.2118 10.8588 99.5693 11.2639Z" fill="#BCD5FF"/>
<path d="M99.3958 11.0128C113.743 11.4146 125.67 18.5466 126.034 26.9426C126.399 35.3386 115.063 41.8192 100.716 41.4174C86.3684 41.0156 74.442 33.8836 74.0774 25.4876C73.7129 17.0915 85.0483 10.611 99.3958 11.0128Z" fill="url(#paint3_linear)"/>
<path d="M119.039 37.5504C109.234 43.2041 92.939 42.6702 82.6082 36.3955C76.2092 32.4476 73.0648 27.6556 74.2732 22.8505C72.8337 27.7602 75.9826 32.8544 82.5572 36.8748C92.948 43.2745 109.243 43.8084 118.988 38.0297C122.737 35.8769 125.021 33.0181 125.674 29.9851C124.786 32.8206 122.557 35.5021 119.039 37.5504Z" fill="white"/>
<path d="M99.4618 14.7996C110.71 15.2744 120.131 20.9372 120.504 27.4479C120.877 33.9586 112.062 38.8517 100.813 38.3769C89.5653 37.9022 80.1444 32.2393 79.7711 25.7286C79.3979 19.2179 88.2137 14.3248 99.4618 14.7996Z" stroke="white" stroke-width="0.875684"/>
<path d="M103.664 24.0591C104.625 23.7982 105.675 23.6822 106.753 23.7112C107.831 23.7402 108.88 24.0301 109.842 24.523C110.687 25.0159 111.241 25.5958 111.445 26.2626C111.678 26.9294 111.503 27.6542 110.978 28.4371C110.425 29.2199 109.492 29.9737 108.152 30.7565C107.015 31.4233 105.762 31.9742 104.392 32.4381C103.023 32.902 101.77 33.1919 100.633 33.3079L100.575 33.2209L100.429 33.3079L97.3983 31.5683L101.566 29.1909L102.935 29.9737C103.722 29.6837 104.451 29.3648 105.092 29.0169C106.607 28.1471 106.986 27.4803 106.228 27.0454C105.82 26.8135 105.325 26.7555 104.684 26.9004C104.043 27.0454 103.139 27.3353 101.944 27.7702C100.633 28.2341 99.4965 28.611 98.5348 28.872C97.5732 29.1329 96.5241 29.2199 95.4458 29.1909C94.3384 29.1619 93.3185 28.843 92.3276 28.2921C92.2985 28.2631 92.2402 28.2341 92.2111 28.2051L96.1744 25.9437L96.2349 25.9743C96.6026 26.1492 97.0501 26.168 97.6023 26.0307C98.2143 25.8857 99.0885 25.5958 100.254 25.1609C101.566 24.697 102.702 24.3201 103.664 24.0591ZM100.4 19.7102L103.431 21.4498L102.061 22.2326L99.4091 23.7692L98.4474 23.2183C97.952 23.3923 97.4857 23.6242 97.0778 23.8562C96.2909 24.2911 95.8247 24.697 95.7081 25.0449C95.5974 25.3479 95.697 25.6247 95.9321 25.8256L95.9704 25.8567L92.0973 23.639L88.073 25.9437L84.8091 24.0591L88.8306 21.7397L91.9399 23.52C92.357 23.1659 93.2429 22.4579 93.9596 22.0586C94.8921 21.5368 95.9121 21.0729 97.0195 20.667C98.1269 20.2611 99.3217 19.8842 100.4 19.7102Z" fill="white"/>
<path d="M165.5 60.7582L156.525 55.5558C155.638 55.0417 154.544 55.0407 153.656 55.5523L144.004 62.3923L152.642 68.1689H156.611L165.525 62.6864C166.249 62.2409 166.236 61.1846 165.5 60.7582Z" fill="url(#paint4_linear)"/>
<path d="M161.603 38.9609V62.9468C161.602 63.1598 161.496 63.3727 161.286 63.4945L153.836 67.7899C153.155 68.1822 152.317 68.1822 151.636 67.7899L144.211 63.5085C143.996 63.3848 143.896 63.1633 143.908 62.9468H143.862V38.9609H161.603Z" fill="url(#paint5_linear)"/>
<path d="M153.829 43.8388L161.279 39.5435C161.701 39.2999 161.701 38.6916 161.279 38.4486L153.789 34.1296C153.169 33.7729 152.407 33.7729 151.788 34.1296L144.204 38.5027C143.798 38.7372 143.798 39.3235 144.204 39.558L151.629 43.8393C152.309 44.2312 153.148 44.2312 153.829 43.8388Z" fill="url(#paint6_linear)"/>
<path d="M147.128 44.1646C147.128 43.8083 146.909 43.3909 146.642 43.2365C146.374 43.0822 146.156 43.2476 146.156 43.6039V52.7513L147.128 53.293V44.1646Z" fill="#37156C"/>
<path d="M146.156 52.7515V60.8552C146.156 61.2114 146.374 61.6288 146.642 61.7832C146.909 61.9375 147.128 61.7722 147.128 61.4159V53.2931L146.156 52.7515Z" fill="url(#paint7_linear)"/>
<path d="M149.689 45.4209C149.689 45.0646 149.47 44.6472 149.202 44.4929C148.935 44.3386 148.716 44.5039 148.716 44.8602V46.9177L149.689 47.4919V45.4209Z" fill="#37156C"/>
<path d="M148.716 46.9175V62.1112C148.716 62.4674 148.935 62.8848 149.202 63.0392C149.47 63.1935 149.689 63.0282 149.689 62.6719V47.4917L148.716 46.9175Z" fill="url(#paint8_linear)"/>
<path d="M157.777 60.2714L155.648 61.4985C155.292 61.704 155.001 62.2597 155.001 62.7337C155.001 63.2078 155.293 63.4278 155.648 63.2223L157.777 61.9946C158.134 61.7892 158.425 61.2335 158.425 60.7594C158.425 60.2859 158.133 60.0659 157.777 60.2714Z" fill="#25DC89"/>
<path d="M156.713 61.8901L173.161 69.3818C173.791 69.6688 174.069 70.4118 173.781 71.0415C173.673 71.2787 173.494 71.4762 173.268 71.6066L120.316 102.177" stroke="#29F589" stroke-width="0.313965"/>
<g opacity="0.65">
<path d="M77.4502 145.821L53.4962 131.936C51.13 130.564 48.2092 130.561 45.8394 131.927L16.2046 149.014L43.1324 165.6H53.725L77.5169 150.968C79.4507 149.779 79.4135 146.959 77.4502 145.821Z" fill="url(#paint9_linear)"/>
</g>
<path d="M16.0777 146.481L40.2188 160.365C42.425 161.634 45.143 161.634 47.3493 160.365L71.4101 146.527C72.0684 146.148 72.398 145.486 72.398 144.823V149.096H72.2495C72.2886 149.795 71.9645 150.512 71.2706 150.912L47.2705 164.75C45.0698 166.019 42.3588 166.019 40.1581 164.75L16.0782 150.866C15.3958 150.473 15.0546 149.784 15.0526 149.096V144.719C15.0551 145.405 15.3963 146.089 16.0777 146.481Z" fill="url(#paint10_linear)"/>
<path d="M40.3499 128.982C42.3559 127.828 44.8276 127.828 46.8336 128.982L57.2832 134.992H29.9003L40.3499 128.982Z" fill="url(#paint11_linear)"/>
<path d="M71.4101 146.527L47.3493 160.366C45.143 161.634 42.425 161.634 40.2188 160.366L16.0777 146.481C15.3963 146.089 15.0551 145.404 15.0526 144.719C15.0551 144.018 15.3963 143.334 16.0777 142.942L29.9001 134.992H57.2831L71.4101 143.117C72.0684 143.496 72.398 144.158 72.398 144.821C72.398 145.486 72.0684 146.149 71.4101 146.527Z" fill="url(#paint12_linear)"/>
<path d="M41.2402 156.043L23.3992 145.756C22.3887 145.173 22.3887 143.717 23.3992 143.134L41.337 132.791C42.8197 131.936 44.6461 131.936 46.1288 132.791L64.2915 143.263C65.2654 143.825 65.2654 145.229 64.2915 145.79L46.5097 156.043C44.8795 156.983 42.8704 156.983 41.2402 156.043Z" fill="#37156C"/>
<path d="M23.3861 144.513L41.357 134.193C42.8422 133.34 44.6721 133.34 46.1573 134.193L64.3531 144.643C64.5854 144.776 64.761 144.958 64.8824 145.164C65.2718 144.505 65.0962 143.591 64.3531 143.164L46.1573 132.715C44.6721 131.862 42.8422 131.862 41.357 132.715L23.3861 143.035C22.6254 143.472 22.4367 144.401 22.8186 145.083C22.945 144.857 23.1342 144.658 23.3861 144.513Z" fill="url(#paint13_linear)"/>
<path d="M36.3026 148.866C32.0322 146.403 32.0101 142.409 36.2545 139.962C40.4983 137.515 47.4261 137.528 51.6966 139.99C55.9675 142.452 55.9891 146.447 51.7453 148.894C47.5009 151.341 40.5736 151.329 36.3026 148.866ZM51.1893 140.283C47.1998 137.983 40.7297 137.971 36.7653 140.257C32.8009 142.543 32.821 146.273 36.8104 148.573C40.7999 150.873 47.2706 150.885 51.2345 148.599C55.1988 146.314 55.1783 142.583 51.1893 140.283Z" fill="#25DC89"/>
<path d="M39.2724 147.154C36.6492 145.641 36.6362 143.188 39.2428 141.685C41.8494 140.182 46.1038 140.19 48.727 141.702C51.3502 143.214 51.3633 145.668 48.7566 147.171C46.15 148.674 41.8951 148.666 39.2724 147.154ZM48.4731 141.849C45.9909 140.417 41.9643 140.41 39.4977 141.832C37.0311 143.255 37.0436 145.576 39.5258 147.008C42.008 148.439 46.0346 148.446 48.5012 147.024C50.9679 145.601 50.9553 143.28 48.4731 141.849Z" fill="#25DC89"/>
<path d="M52.3539 148.251C51.8576 147.965 51.0548 147.964 50.5616 148.248C46.8887 150.315 41.0543 150.289 37.4456 148.208C33.8084 146.111 33.7898 142.709 37.405 140.625C40.9855 138.561 46.8074 138.553 50.4517 140.592C51.0573 140.893 51.8014 140.884 52.2701 140.613C52.7387 140.343 52.7543 139.914 52.3298 139.626C52.2329 139.562 52.1968 139.548 52.1627 139.532C47.528 136.961 40.1561 136.978 35.6167 139.595C31.0231 142.244 31.0462 146.568 35.6689 149.233C40.2434 151.871 47.6318 151.909 52.2369 149.343C52.2786 149.325 52.3212 149.308 52.3594 149.286C52.8531 149.001 52.8506 148.538 52.3539 148.251Z" fill="url(#paint14_linear)"/>
<path d="M49.1487 141.458C46.3092 139.821 41.7151 139.803 38.8712 141.41C38.551 141.6 38.5525 141.884 38.8576 142.06C39.1627 142.236 39.6554 142.237 39.9585 142.062C42.2284 140.79 45.825 140.808 48.0513 142.091C50.2992 143.388 50.3107 145.49 48.0769 146.778C45.8431 148.066 42.1963 148.06 39.9484 146.764C39.6318 146.581 39.1391 146.581 38.836 146.755C38.533 146.929 38.5345 147.214 38.8396 147.389C41.7076 149.043 46.3423 149.052 49.1818 147.415C52.0197 145.778 52.0057 143.106 49.1487 141.458Z" fill="url(#paint15_linear)"/>
<path d="M17.209 148.4L19.338 149.627C19.6942 149.833 19.9853 150.388 19.9853 150.862C19.9853 151.336 19.6937 151.556 19.338 151.351L17.209 150.123C16.8528 149.918 16.5618 149.363 16.5618 148.888C16.5618 148.415 16.8533 148.195 17.209 148.4Z" fill="#25DC89"/>
<path d="M75.6811 124.813L77.81 126.04C78.1663 126.246 78.4573 126.801 78.4573 127.275C78.4573 127.75 78.1658 127.97 77.81 127.764L75.6811 126.536C75.3248 126.331 75.0338 125.775 75.0338 125.301C75.0338 124.828 75.3253 124.608 75.6811 124.813Z" fill="#25DC89"/>
<path d="M59.3422 136.54L76.5712 126.245C76.8357 126.09 77.1287 126.335 76.7529 126.554L59.7026 136.743L59.3422 136.54Z" fill="#29F589"/>
<g opacity="0.65">
<path d="M62.3975 77.5201L38.4436 63.6353C36.0773 62.2633 33.1565 62.2603 30.7867 63.6262L1.15192 80.7136L28.0798 97.2993H38.6724L62.4642 82.6668C64.398 81.4777 64.3609 78.6586 62.3975 77.5201Z" fill="url(#paint16_linear)"/>
</g>
<path d="M1.02509 78.1798L25.1662 92.0641C27.3724 93.3329 30.0904 93.3329 32.2966 92.0641L56.3574 78.2259C57.0158 77.8471 57.3454 77.1852 57.3454 76.5222V80.7945H57.1969C57.236 81.4936 56.9119 82.2106 56.218 82.611L32.2179 96.4492C30.0172 97.718 27.3062 97.718 25.1055 96.4492L1.02559 82.5649C0.343202 82.1715 0.00200703 81.483 0 80.7945V76.4175C0.00250879 77.1035 0.343704 77.788 1.02509 78.1798Z" fill="url(#paint17_linear)"/>
<path d="M25.2972 60.6809C27.3032 59.5269 29.7749 59.5269 31.7809 60.6809L42.2305 66.6911H14.8476L25.2972 60.6809Z" fill="url(#paint18_linear)"/>
<path d="M56.3574 78.2263L32.2966 92.0646C30.0904 93.3333 27.3724 93.3333 25.1662 92.0646L1.02509 78.1803C0.343704 77.7884 0.00250879 77.1034 0 76.4179C0.00250879 75.7174 0.343704 75.0329 1.02509 74.641L14.8475 66.6912H42.2305L56.3574 74.8159C57.0158 75.1947 57.3454 75.8567 57.3454 76.5196C57.3454 77.1851 57.0158 77.8475 56.3574 78.2263Z" fill="url(#paint19_linear)"/>
<path d="M26.1875 87.7421L8.34647 77.4551C7.33593 76.8723 7.33593 75.4156 8.34647 74.8329L26.2843 64.4898C27.767 63.6349 29.5934 63.6349 31.0761 64.4898L49.2387 74.9621C50.2126 75.5239 50.2126 76.9279 49.2387 77.4892L31.4569 87.7421C29.8267 88.6821 27.8177 88.6821 26.1875 87.7421Z" fill="#37156C"/>
<path d="M8.33345 76.2118L26.3044 65.8913C27.7896 65.0384 29.6195 65.0384 31.1047 65.8913L49.3005 76.3411C49.5328 76.4744 49.7084 76.6563 49.8298 76.8628C50.2192 76.2033 50.0436 75.2898 49.3005 74.8629L31.1047 64.4131C29.6195 63.5602 27.7896 63.5602 26.3044 64.4131L8.33345 74.7336C7.57278 75.1706 7.38412 76.0996 7.76596 76.7811C7.8924 76.5556 8.08156 76.3567 8.33345 76.2118Z" fill="url(#paint20_linear)"/>
<path d="M21.25 80.5646C16.9796 78.1022 16.9575 74.108 21.2019 71.6606C25.4457 69.2133 32.3735 69.2263 36.644 71.6887C40.9149 74.1511 40.9365 78.1458 36.6926 80.5926C32.4483 83.04 25.521 83.0275 21.25 80.5646ZM36.1367 71.9813C32.1472 69.6813 25.677 69.6693 21.7127 71.9553C17.7483 74.2413 17.7683 77.9719 21.7578 80.2719C25.7473 82.572 32.218 82.584 36.1818 80.298C40.1462 78.0125 40.1257 74.2814 36.1367 71.9813Z" fill="#25DC89"/>
<path d="M24.2199 78.8523C21.5967 77.34 21.5837 74.8867 24.1903 73.3839C26.7969 71.8811 31.0513 71.8886 33.6745 73.4009C36.2977 74.9132 36.3108 77.3666 33.7041 78.8699C31.0975 80.3726 26.8426 80.3651 24.2199 78.8523ZM33.4206 73.5472C30.9385 72.1161 26.9118 72.1091 24.4452 73.5312C21.9786 74.9533 21.9911 77.2749 24.4733 78.7065C26.9555 80.1376 30.9821 80.1451 33.4487 78.7225C35.9154 77.2999 35.9028 74.9784 33.4206 73.5472Z" fill="#25DC89"/>
<path d="M37.3012 79.9504C36.805 79.6642 36.0022 79.6627 35.509 79.9473C31.8361 82.0139 26.0017 81.9878 22.393 79.9073C18.7558 77.8102 18.7372 74.4082 22.3524 72.3242C25.9329 70.2597 31.7548 70.2517 35.3991 72.2906C36.0047 72.5918 36.7488 72.5828 37.2175 72.3122C37.6861 72.0421 37.7016 71.6126 37.2772 71.325C37.1803 71.2609 37.1442 71.2468 37.1101 71.2313C32.4753 68.6602 25.1035 68.6767 20.5641 71.2939C15.9705 73.9427 15.9936 78.2667 20.6163 80.932C25.1908 83.5698 32.5792 83.6083 37.1843 81.0422C37.226 81.0237 37.2686 81.0067 37.3068 80.9846C37.8005 80.6995 37.798 80.2365 37.3012 79.9504Z" fill="url(#paint21_linear)"/>
<path d="M34.0961 73.1574C31.2567 71.5198 26.6626 71.5023 23.8186 73.1093C23.4985 73.2992 23.5 73.5833 23.8051 73.7592C24.1101 73.9351 24.6029 73.9361 24.9059 73.7612C27.1759 72.4889 30.7725 72.5065 32.9988 73.7903C35.2466 75.0866 35.2582 77.1892 33.0244 78.477C30.7905 79.7653 27.1438 79.7588 24.8959 78.4625C24.5793 78.2801 24.0865 78.2796 23.7835 78.454C23.4804 78.6283 23.4819 78.913 23.787 79.0884C26.655 80.7425 31.2898 80.751 34.1292 79.1139C36.9672 77.4768 36.9531 74.8045 34.0961 73.1574Z" fill="url(#paint22_linear)"/>
<path d="M2.15673 80.099L4.28569 81.3262C4.64193 81.5316 4.93295 82.0873 4.93295 82.5614C4.93295 83.0354 4.64143 83.2554 4.28569 83.0499L2.15673 81.8223C1.80048 81.6168 1.50946 81.0616 1.50946 80.5871C1.50946 80.1135 1.80098 79.8936 2.15673 80.099Z" fill="#25DC89"/>
<path d="M46.2663 85.3361L44.1374 86.5632C43.7811 86.7687 43.4901 87.3244 43.4901 87.7984C43.4901 88.2725 43.7816 88.4925 44.1374 88.287L46.2663 87.0593C46.6226 86.8539 46.9136 86.2982 46.9136 85.8241C46.9136 85.3506 46.6221 85.1306 46.2663 85.3361Z" fill="#25DC89"/>
<path d="M45.202 86.9089L74.625 104.578" stroke="#29F589" stroke-width="0.313965"/>
<g opacity="0.3">
<path opacity="0.3" d="M184.709 170C205.304 170 222 160.394 222 148.545C222 136.695 205.304 127.089 184.709 127.089C164.114 127.089 147.418 136.695 147.418 148.545C147.418 160.394 164.114 170 184.709 170Z" fill="url(#paint23_linear)"/>
<path d="M184.709 167.824C205.305 167.824 222 158.218 222 146.368C222 134.518 205.305 124.911 184.709 124.911C164.114 124.911 147.419 134.518 147.419 146.368C147.419 158.218 164.114 167.824 184.709 167.824Z" fill="url(#paint24_linear)"/>
</g>
<path d="M197.386 157.355C197.369 157.355 197.351 157.351 197.336 157.342L177.435 145.785C177.388 145.757 177.371 145.696 177.398 145.647C177.426 145.6 177.488 145.583 177.535 145.61L197.436 157.168C197.483 157.196 197.5 157.257 197.472 157.305C197.454 157.338 197.42 157.355 197.386 157.355Z" fill="white"/>
<path d="M194.955 162.331C194.937 162.362 194.904 162.381 194.869 162.381C194.852 162.381 194.835 162.377 194.819 162.368L193.993 161.889L184.98 156.654L184.781 156.538L184.98 156.423L185.179 156.539L194.192 161.772L194.919 162.194C194.967 162.222 194.984 162.283 194.955 162.331Z" fill="white"/>
<path d="M181.552 158.625C181.535 158.625 181.517 158.621 181.502 158.612L168.3 150.971C168.252 150.943 168.236 150.882 168.263 150.833C168.29 150.786 168.351 150.769 168.399 150.796L181.601 158.437C181.648 158.465 181.665 158.526 181.638 158.575C181.62 158.607 181.586 158.625 181.552 158.625Z" fill="white"/>
<path d="M187.457 140.007C187.44 140.007 187.423 140.003 187.407 139.994L178.804 134.998C178.757 134.97 178.74 134.909 178.767 134.86C178.794 134.813 178.856 134.796 178.904 134.823L187.507 139.819C187.554 139.847 187.571 139.908 187.543 139.957C187.525 139.989 187.491 140.007 187.457 140.007Z" fill="white"/>
<path d="M197.386 157.355C197.352 157.355 197.318 157.337 197.299 157.305C197.271 157.257 197.288 157.196 197.336 157.168L207.303 151.379C207.35 151.351 207.412 151.368 207.439 151.416C207.467 151.464 207.45 151.526 207.402 151.554L197.435 157.342C197.42 157.351 197.402 157.355 197.386 157.355Z" fill="white"/>
<path d="M186.865 151.204C186.831 151.204 186.797 151.186 186.778 151.154C186.75 151.106 186.767 151.044 186.815 151.017L200.225 143.229C200.273 143.201 200.334 143.218 200.361 143.266C200.389 143.314 200.373 143.376 200.324 143.404L186.914 151.191C186.899 151.2 186.882 151.204 186.865 151.204Z" fill="white"/>
<path d="M190.529 153.431L185.18 156.538L184.981 156.654L181.602 158.616C181.586 158.626 181.569 158.629 181.552 158.629C181.517 158.629 181.484 158.612 181.466 158.579C181.437 158.531 181.454 158.469 181.502 158.442L184.781 156.538L184.98 156.422L190.43 153.257C190.477 153.229 190.539 153.245 190.566 153.294C190.593 153.342 190.577 153.404 190.529 153.431Z" fill="white"/>
<path d="M177.485 145.799C177.451 145.799 177.417 145.78 177.398 145.748C177.371 145.701 177.387 145.639 177.435 145.611L187.408 139.819C187.455 139.791 187.517 139.808 187.544 139.856C187.572 139.904 187.555 139.966 187.508 139.994L177.535 145.785C177.519 145.794 177.502 145.799 177.485 145.799Z" fill="white"/>
<path d="M169.744 157.326C170.355 157.326 170.851 157.038 170.851 156.683C170.851 156.328 170.355 156.04 169.744 156.04C169.133 156.04 168.637 156.328 168.637 156.683C168.637 157.038 169.133 157.326 169.744 157.326Z" fill="white"/>
<path d="M195.652 161.826C195.22 161.575 194.519 161.575 194.087 161.826C193.654 162.077 193.654 162.484 194.087 162.735C194.519 162.986 195.22 162.986 195.652 162.735C196.084 162.484 196.084 162.077 195.652 161.826Z" fill="white"/>
<path d="M207.353 152.061C207.964 152.061 208.46 151.773 208.46 151.418C208.46 151.063 207.964 150.775 207.353 150.775C206.741 150.775 206.246 151.063 206.246 151.418C206.246 151.773 206.741 152.061 207.353 152.061Z" fill="white"/>
<path d="M169.576 156.881C169.541 156.881 169.508 156.863 169.489 156.831C169.461 156.783 169.477 156.721 169.526 156.693L173.965 154.116C174.012 154.088 174.074 154.104 174.101 154.153C174.128 154.201 174.112 154.263 174.064 154.291L169.625 156.868C169.61 156.877 169.593 156.881 169.576 156.881Z" fill="white"/>
<path d="M169.088 150.436C168.656 150.185 167.955 150.185 167.523 150.436C167.09 150.687 167.09 151.094 167.523 151.345C167.955 151.596 168.656 151.596 169.088 151.345C169.52 151.094 169.52 150.687 169.088 150.436Z" fill="white"/>
<path d="M174.11 149.807L172.392 148.362C171.413 147.539 170.851 146.331 170.851 145.046V133.497H171.396V145.046C171.396 146.168 171.887 147.223 172.741 147.941L174.669 149.569L174.11 149.807Z" fill="#B5B9DC"/>
<path d="M176.889 151.626H176.882V152.011L174.113 149.809L174.098 149.794L174.379 149.628L174.434 149.676L176.889 151.626Z" fill="#F3E7E0"/>
<path d="M176.889 151.626H176.882V152.011L174.113 149.809L174.098 149.794V149.4L174.286 149.55L174.379 149.628L174.434 149.676L176.889 151.626Z" fill="#B5B9DC"/>
<path d="M190.695 143.679L176.89 151.626L174.434 149.675L174.379 149.628L174.285 149.55H174.262L174.098 149.408L172.549 148.102L172.494 148.055C171.642 147.347 171.157 146.309 171.149 145.208V134.015L171.399 133.881L179.981 129.105L183.039 126.305H183.586V137.851C183.586 137.922 183.586 137.993 183.594 138.056C183.649 139.102 184.125 140.077 184.931 140.745C184.977 140.785 185.041 140.832 185.118 140.879C185.894 141.391 188.232 142.524 190.695 143.679Z" fill="#F5F5FD"/>
<path d="M183.595 138.056L171.15 145.208V134.848C172.026 133.983 172.674 133.401 172.76 133.495C172.964 133.739 180.904 131.519 183.586 131.149V137.851C183.587 137.923 183.587 137.993 183.595 138.056Z" fill="#B5B9DC"/>
<path d="M176.889 151.626L190.695 143.679V144.072L176.882 152.011L176.889 151.626Z" fill="#F2EAE6"/>
<path d="M185.12 140.88L172.55 148.102L172.495 148.055C171.642 147.347 171.158 146.31 171.15 145.208L183.595 138.056C183.649 139.102 184.126 140.078 184.931 140.745C184.979 140.785 185.041 140.833 185.12 140.88Z" fill="#CDD1F6"/>
<path d="M198.846 92.6931L198.547 92.7507H198.543L197.919 92.8742C197.931 92.9401 197.943 93.0101 197.956 93.0809C197.98 93.2588 197.993 93.4482 197.993 93.6508L197.931 100.234L197.779 122.69C197.767 124.444 196.692 126.475 195.378 127.226L155.24 150.459C155.219 150.471 155.194 150.484 155.17 150.496L155.478 151.619L154.111 150.812C153.66 150.548 153.357 149.982 153.299 149.174C153.291 149.075 153.291 148.971 153.291 148.868L153.509 119.878V119.829C153.513 118.619 154.026 117.282 154.777 116.32C155.113 115.887 155.499 115.528 155.909 115.293L196.044 92.059C196.618 91.7329 197.139 91.7082 197.546 91.9231V91.919L198.678 92.5934L198.846 92.6931Z" fill="#B5B9DC"/>
<path d="M198.678 92.5934L198.547 92.7499H198.543L197.957 93.0801L156.151 116.974L154.777 116.32C155.113 115.887 155.499 115.528 155.909 115.293L196.044 92.059C196.618 91.7329 197.14 91.7082 197.546 91.9231V91.919L198.678 92.5934Z" fill="#F5F5FD"/>
<path d="M157.908 117.845L156.414 121.54L153.509 119.879V119.829C153.513 118.619 154.026 117.282 154.777 116.32L157.908 117.845Z" fill="#B5B9DC"/>
<path d="M199.684 94.6422L199.656 97.5384V97.5433L199.622 101.227L199.47 123.681C199.46 125.434 198.382 127.465 197.064 128.219L182.364 136.603L166.57 145.606L166.202 145.827L156.93 151.45C155.856 152.065 154.959 151.632 154.668 150.494C154.625 150.326 154.596 150.144 154.582 149.938C154.577 149.837 154.577 149.736 154.577 149.631L154.6 146.327L154.663 137.813L154.787 120.593C154.801 118.836 155.881 116.804 157.193 116.055L173.756 106.615L173.79 106.596L179.452 103.215L186.627 98.9267H186.632L194.924 94.1917L197.326 92.8231C198.204 92.3241 198.963 92.5209 199.374 93.2266C199.575 93.5807 199.684 94.0616 199.684 94.6422Z" fill="#E3E5F5"/>
<path d="M198.086 95.1321V124.706C189.906 129.513 189.885 129.523 172.168 139.941C167.561 142.649 172.75 139.6 156.123 149.369V119.794C179.497 106.048 190.921 99.3425 197.788 95.31L198.086 95.1321Z" fill="#25DC89"/>
<path d="M197.485 95.478V124.379L156.122 148.694V149.37L198.084 124.705V95.1296L197.485 95.478Z" fill="#B5B9DC"/>
<path d="M156.121 149.37L198.084 124.705L197.485 124.379L156.121 148.694V149.37Z" fill="#F5F5FD"/>
<path opacity="0.3" d="M197.788 95.3091L172.168 139.94L168.764 141.942L168.607 142.033L156.123 149.368V147.87L180.445 105.494L181.329 104.976L181.511 104.869L181.738 104.737L182.218 104.453L182.99 104L183.359 103.782L197.788 95.3091Z" fill="white"/>
<path d="M170.767 125.555C170.81 126.155 171.117 126.704 171.594 127.068C173.829 128.774 174.391 129.245 176.697 130.887C177.491 131.453 178.228 131.965 178.86 132.393C180.047 133.195 180.871 133.693 181.045 133.667C181.949 133.527 182.773 131.979 183.389 131.298C185.144 129.352 187.338 127.87 189.509 126.408C190.008 126.072 190.509 125.735 191.025 125.428C191.676 125.041 192.077 124.338 192.069 123.577C192.06 122.622 191.421 121.778 190.499 121.548C189.717 121.352 188.955 120.905 188.27 120.458C187.411 119.898 182.915 116.207 181.21 115.938C180.369 115.805 179.494 115.888 178.664 116.092C177.904 116.279 177.199 116.66 176.536 117.071C174.069 118.598 171.576 121.091 170.887 124.012C170.765 124.529 170.73 125.043 170.767 125.555Z" fill="#F5C2A6"/>
<path d="M176.697 130.887C177.491 131.453 176.926 130.984 177.558 131.412C177.013 129.594 176.995 128.941 178.027 127.088C178.702 125.879 180.05 124.893 180.987 123.787C180.4 124.091 179.84 124.79 179.329 125.231C178.47 125.968 177.88 126.802 177.284 127.773C176.674 128.768 176.594 129.735 176.697 130.887Z" fill="#F5C2A6"/>
<path d="M178.694 134.791C178.791 135.063 178.895 135.337 179.005 135.606C179.278 136.283 179.583 136.947 179.887 137.592C180.356 138.589 180.829 139.59 181.452 140.495C181.511 140.58 181.57 140.662 181.631 140.745C181.771 140.935 181.918 141.118 182.071 141.298C182.879 142.246 183.864 143.042 184.961 143.628C186.178 144.279 195.943 150.723 197.792 151.532C200.03 152.51 201.766 150.587 201.646 150.277C201.649 150.278 201.65 150.28 201.652 150.281C202.067 150.633 202.454 150.951 202.818 151.242C204.762 152.795 206.065 153.57 207.762 154.436C210.311 155.738 212.503 154.347 211.94 153.44C211.943 153.443 211.946 153.448 211.95 153.451C211.95 153.452 211.952 153.453 211.952 153.453C212.167 153.683 212.465 153.918 212.822 154.125C213.973 154.801 215.714 155.2 217.074 154.278C218.172 153.532 216.559 150.659 215.61 149.729C215.942 149.826 216.267 149.95 216.592 150.07C217.01 150.225 217.428 150.372 217.868 150.441C218.648 150.564 219.557 150.369 219.981 149.698C220.662 148.623 219.713 147.279 218.824 146.369C218.661 146.203 217.454 145.355 215.74 144.116C215.653 144.053 215.567 143.99 215.479 143.927C213.823 142.725 211.745 141.19 209.694 139.563C209.502 139.411 209.31 139.257 209.119 139.103C206.934 137.344 204.827 135.504 203.348 133.875C203.318 133.841 203.287 133.808 203.257 133.774C202.871 133.344 202.531 132.93 202.247 132.537C202.052 132.268 201.883 132.009 201.744 131.761C201.442 131.229 201.276 130.749 201.276 130.339C201.276 130.282 201.368 130.267 201.537 130.285C201.808 130.314 202.274 130.43 202.864 130.602C205.373 131.334 210.116 133.087 211.559 133.511C213.07 133.956 214.788 134.394 216.116 133.545C216.985 132.988 217.713 131.908 217.31 130.955C217.161 130.604 216.881 130.329 216.594 130.079C215.308 128.957 213.81 128.182 212.228 127.55C212.188 127.534 212.148 127.519 212.108 127.502C210.192 126.749 208.159 126.196 206.227 125.485C203.851 124.609 201.581 123.466 199.227 122.532C198.172 122.114 197.096 121.737 195.983 121.52C194.164 121.166 192.268 121.276 190.489 121.791C188.591 122.2 186.55 122.805 185.278 123.41C182.374 124.793 179.17 126.516 178.271 129.619C177.776 131.326 178.093 133.085 178.694 134.791Z" fill="#FFD6BF"/>
<path d="M201.525 129.989C201.525 130.093 201.529 130.192 201.535 130.286C201.806 130.314 202.272 130.43 202.862 130.603C202.655 130.169 202.494 129.777 202.394 129.521C201.929 128.326 201.851 127.184 201.862 125.895C201.631 127.258 201.528 128.601 201.525 129.989Z" fill="#F5C2A6"/>
<path d="M210.849 132.52C211.187 131.71 211.259 128.558 212.228 127.55C212.188 127.535 212.148 127.519 212.109 127.502C210.856 128.323 209.344 130.811 210.849 132.52Z" fill="#F5C2A6"/>
<path d="M201.286 137.811C201.497 138.532 202.701 139.332 203.296 139.836C204.346 140.727 205.487 141.491 206.574 142.334C208.702 143.982 210.622 145.89 212.772 147.503C213.79 148.265 214.67 148.866 215.608 149.73C215.941 149.827 216.265 149.951 216.59 150.071C215.238 148.555 213.182 147.464 211.679 146.164C209.269 144.08 206.454 142.297 204.195 140.049C203.4 139.256 202.42 137.955 201.286 137.811Z" fill="#F5C2A6"/>
<path d="M195.947 138.984C198.373 141.042 200.904 142.946 203.295 145.063C205.245 146.79 207.195 148.532 209.105 150.293C209.951 151.071 210.971 152.063 211.63 152.991C211.733 153.136 211.841 153.294 211.951 153.452C211.951 153.453 211.952 153.454 211.952 153.454C212.022 153.528 212.1 153.603 212.186 153.678C212.367 153.833 211.901 152.598 208.825 149.592C206.272 147.098 203.787 144.458 201.029 142.173C199.628 141.013 197.78 139.234 195.947 138.984Z" fill="#F5C2A6"/>
<path d="M192.931 141.258C193.589 142.475 195.345 143.575 196.373 144.543C197.27 145.388 198.232 146.168 199.103 147.041C200.159 148.097 200.939 149.044 201.652 150.281C201.652 150.281 201.484 149.414 200.992 148.626C198.816 145.144 194.616 142.953 192.931 141.258Z" fill="#F5C2A6"/>
<path d="M189.457 126.581C189.721 129.262 190.969 131.666 193.358 133.033C194.423 133.64 195.703 133.778 196.89 134.031C198.615 134.4 201.554 134.812 203.112 133.938L203.346 133.877C203.316 133.843 203.285 133.809 203.255 133.775C199.656 134.244 193.134 134.031 190.995 129.459C190.017 127.371 190.944 124.425 190.652 122.351C189.517 123.407 189.312 125.089 189.457 126.581Z" fill="#F5C2A6"/>
<path d="M194.552 127.922C195.222 132.401 201.509 132.642 201.908 132.561C202.019 132.539 202.132 132.538 202.247 132.538C202.051 132.269 201.882 132.01 201.743 131.762C196.189 131.871 194.659 128.37 194.552 127.922Z" fill="#F5C2A6"/>
<path d="M194.546 127.884C194.546 127.893 194.549 127.904 194.553 127.923C194.55 127.91 194.549 127.899 194.546 127.884Z" fill="#F5C2A6"/>
<path d="M198.544 135.972C195.702 135.972 192.989 135.959 190.272 135.069C187.179 134.056 184.135 132.208 180.798 132.198C183.659 132.227 186.609 134.285 189.21 135.276C191.012 135.963 192.8 136.281 194.712 136.55C196.508 136.802 198.666 136.215 200.382 136.743L198.544 135.972Z" fill="#F5C2A6"/>
<path d="M193.643 137.743C192.114 137.855 190.302 136.558 188.795 136.222C186.877 135.794 184.838 135.738 182.958 135.275C183.695 135.29 184.566 135.71 185.242 135.97C186.429 136.427 187.561 136.686 188.818 136.894C190.462 137.166 192.57 137.159 193.643 137.743Z" fill="#F5C2A6"/>
<path d="M192.983 141.309C191.811 140.465 188.88 140.585 187.793 141.928C187.761 141.957 187.76 141.956 187.789 141.923C188.612 141.658 190.04 141.298 190.898 141.257C191.507 141.228 192.106 141.118 192.983 141.309Z" fill="#F5C2A6"/>
<path d="M198.781 146.312C197.778 146.025 196.615 145.95 195.554 146.058C194.576 146.158 194.041 146.634 193.226 147.107C194.115 146.533 195.653 146.588 196.692 146.4C197.156 146.316 197.656 146.149 198.119 146.146C198.633 146.143 199.099 146.41 198.781 146.312Z" fill="#F5C2A6"/>
<path d="M207.136 148.143C206.839 147.536 204.012 149 203.697 149.736C204.096 149.154 205.05 149.353 205.65 149.057C206.328 148.722 206.561 148.301 207.136 148.143Z" fill="#F5C2A6"/>
<path d="M201.842 143.649C201.823 143.573 201.85 143.491 201.83 143.412C200.698 143.321 199.191 143.921 198.314 144.651C198.917 144.69 201.901 143.87 202.341 143.807C202.323 143.705 202.267 143.624 201.842 143.649Z" fill="#F5C2A6"/>
<path d="M196.96 139.322C195.963 139.369 195.079 139.139 194.067 139.447C193.433 139.639 192.876 139.959 192.27 140.241C194.364 140.284 196.405 139.931 196.96 139.322Z" fill="#F5C2A6"/>
<path d="M213.838 147.976C212.675 147.514 210.619 148.391 209.561 149.042C210.313 149.156 213.599 148.649 213.838 147.976Z" fill="#F5C2A6"/>
<path d="M207.057 142.651C205.913 142.651 204.031 142.633 203.196 143.574C204.55 143.012 205.917 143.221 207.057 142.651Z" fill="#F5C2A6"/>
<path d="M201.58 138.16C200.801 137.509 198.37 137.971 197.447 138.432C199.538 137.995 200.297 137.909 201.58 138.16Z" fill="#F5C2A6"/>
<path d="M213.358 146.552C213.685 146.168 213.805 145.661 214.247 145.213C214.56 144.896 215.169 144.385 215.74 144.117C215.653 144.054 215.567 143.991 215.479 143.927C214.288 144.204 213.259 145.444 213.358 146.552Z" fill="#F5C2A6"/>
<path d="M207.317 141.558C208.081 141.257 208.759 139.838 209.693 139.563C209.501 139.411 209.309 139.257 209.118 139.103C208.14 139.488 207.163 140.726 207.317 141.558Z" fill="#F5C2A6"/>
<path d="M181.63 140.745C181.77 140.935 181.917 141.118 182.071 141.298C182.07 141.209 182.071 141.12 182.071 141.033C182.077 140.511 182.22 140.112 182.468 139.658C182.723 139.196 183.012 138.79 183.449 138.487C183.619 138.37 183.773 138.267 183.905 138.107C183.66 138.337 183.278 138.461 183.015 138.696C182.722 138.958 182.493 139.307 182.277 139.634C182.028 140.01 181.786 140.319 181.63 140.745Z" fill="#F5C2A6"/>
<path d="M178.695 134.791C178.791 135.063 178.895 135.337 179.005 135.606C179.163 135.437 179.328 135.274 179.46 135.131C179.927 134.619 180.555 134.259 180.98 133.718C180.212 133.363 179.156 134.251 178.695 134.791Z" fill="#F5C2A6"/>
<path d="M201.627 137.977C201.473 137.731 201.712 137.308 201.837 137.095C202.137 136.589 202.616 136.185 203.101 135.86C203.441 135.632 203.928 135.514 204.335 135.541C204.454 135.549 204.661 135.581 204.742 135.657C204.305 135.707 203.918 136 203.546 136.221C203.25 136.396 203.001 136.572 202.758 136.816C202.568 137.006 202.325 137.116 202.169 137.337C202.016 137.554 201.915 137.824 201.799 138.062C201.786 138.09 201.767 138.197 201.742 138.214C201.65 138.272 201.411 138.077 201.38 138.001C201.418 137.987 201.459 137.983 201.627 137.977Z" fill="#F5C2A6"/>
<path fill-rule="evenodd" clip-rule="evenodd" d="M206.017 137.241L205.903 134.838L205.093 134.836C204.563 134.095 203.747 133.359 202.718 132.782C198.48 130.22 191.806 130.05 187.797 132.416C186.8 132.99 186.091 133.679 185.619 134.383L184.809 134.381L184.923 136.784C185.007 138.403 186.068 140.009 188.199 141.315C192.437 143.876 199.111 144.047 203.12 141.681C205.136 140.462 206.101 138.859 206.017 137.241Z" fill="url(#paint25_linear)"/>
<path d="M195.163 127.69C201.02 127.845 205.885 130.743 206.028 134.162C206.172 137.581 201.54 140.227 195.683 140.072C189.826 139.917 184.961 137.019 184.817 133.6C184.674 130.181 189.305 127.535 195.163 127.69Z" fill="#BCD5FF"/>
<path d="M195.092 127.588C200.945 127.742 205.806 130.635 205.949 134.051C206.092 137.467 201.462 140.111 195.609 139.957C189.756 139.803 184.895 136.909 184.752 133.494C184.61 130.078 189.239 127.434 195.092 127.588Z" fill="url(#paint26_linear)"/>
<path d="M203.087 138.371C199.083 140.678 192.436 140.472 188.225 137.926C185.617 136.324 184.338 134.376 184.834 132.421C184.244 134.419 185.525 136.489 188.204 138.121C192.439 140.718 199.087 140.924 203.066 138.566C204.597 137.688 205.531 136.524 205.8 135.289C205.435 136.443 204.524 137.536 203.087 138.371Z" fill="white"/>
<path d="M195.116 129.129C199.705 129.314 203.545 131.612 203.692 134.261C203.84 136.909 200.24 138.906 195.651 138.72C191.062 138.534 187.223 136.237 187.075 133.588C186.927 130.939 190.528 128.943 195.116 129.129Z" stroke="white" stroke-width="0.355954"/>
<path d="M197.924 132.742L198.07 132.744C198.508 132.756 198.935 132.874 199.326 133.076C199.669 133.277 199.894 133.513 199.977 133.786C200.072 134.058 200.001 134.354 199.788 134.674C199.563 134.993 199.184 135.301 198.639 135.62C198.177 135.893 197.667 136.118 197.111 136.307C196.554 136.496 196.044 136.615 195.583 136.662L195.559 136.627L195.5 136.662L194.268 135.952L195.962 134.981L196.518 135.301C196.838 135.182 197.134 135.052 197.395 134.91C198.011 134.555 198.165 134.283 197.857 134.105C197.691 134.011 197.49 133.987 197.229 134.046C196.968 134.105 196.601 134.224 196.116 134.401C195.583 134.591 195.121 134.745 194.73 134.851C194.339 134.958 193.912 134.993 193.474 134.981C193.024 134.969 192.609 134.839 192.206 134.614C192.195 134.602 192.171 134.591 192.159 134.579L193.77 133.656L193.813 133.676C193.959 133.74 194.135 133.745 194.351 133.691C194.599 133.632 194.955 133.513 195.429 133.336C195.962 133.147 196.424 132.993 196.814 132.886C197.205 132.78 197.632 132.732 198.07 132.744L197.924 132.742ZM195.488 131.111L196.72 131.821L196.163 132.14L195.085 132.768L194.694 132.543C194.493 132.614 194.303 132.709 194.137 132.803C193.817 132.981 193.628 133.147 193.581 133.289C193.537 133.408 193.573 133.517 193.662 133.599L193.687 133.62L192.113 132.715L190.477 133.656L189.15 132.886L190.785 131.939L192.049 132.666C192.218 132.522 192.578 132.233 192.87 132.069C193.249 131.856 193.663 131.667 194.114 131.501C194.564 131.335 195.049 131.182 195.488 131.111Z" fill="white"/>
<path fill-rule="evenodd" clip-rule="evenodd" d="M211.33 133.942L211.216 131.539L210.406 131.538C209.876 130.796 209.06 130.061 208.031 129.483C203.793 126.922 197.119 126.751 193.11 129.117C192.113 129.691 191.404 130.38 190.932 131.084L190.122 131.082L190.236 133.485C190.32 135.104 191.381 136.71 193.512 138.016C197.75 140.577 204.424 140.748 208.433 138.382C210.449 137.163 211.414 135.561 211.33 133.942Z" fill="url(#paint27_linear)"/>
<path d="M200.476 124.391C206.333 124.547 211.198 127.444 211.341 130.863C211.485 134.282 206.853 136.928 200.996 136.773C195.139 136.618 190.274 133.72 190.13 130.301C189.987 126.882 194.618 124.236 200.476 124.391Z" fill="#BCD5FF"/>
<path d="M200.405 124.289C206.258 124.443 211.119 127.337 211.262 130.752C211.405 134.168 206.776 136.812 200.922 136.658C195.069 136.504 190.208 133.61 190.066 130.195C189.923 126.779 194.552 124.135 200.405 124.289Z" fill="url(#paint28_linear)"/>
<path d="M208.4 135.073C204.396 137.379 197.749 137.173 193.538 134.627C190.93 133.025 189.651 131.077 190.147 129.122C189.556 131.12 190.838 133.191 193.517 134.822C197.752 137.419 204.4 137.625 208.379 135.268C209.91 134.389 210.844 133.225 211.113 131.99C210.748 133.145 209.837 134.237 208.4 135.073Z" fill="white"/>
<path d="M200.429 125.83C205.018 126.016 208.858 128.314 209.005 130.962C209.153 133.611 205.553 135.607 200.964 135.422C196.375 135.236 192.536 132.938 192.388 130.29C192.24 127.641 195.841 125.644 200.429 125.83Z" stroke="white" stroke-width="0.355954"/>
<path d="M203.238 129.444L203.383 129.445C203.822 129.457 204.248 129.575 204.639 129.777C204.982 129.978 205.207 130.215 205.29 130.487C205.385 130.759 205.314 131.055 205.101 131.375C204.876 131.694 204.497 132.002 203.952 132.322C203.49 132.594 202.98 132.819 202.424 133.008C201.867 133.198 201.358 133.316 200.896 133.363L200.872 133.328L200.813 133.363L199.581 132.653L201.275 131.682L201.831 132.002C202.151 131.884 202.447 131.753 202.708 131.611C203.324 131.256 203.478 130.984 203.17 130.807C203.004 130.712 202.803 130.688 202.542 130.747C202.282 130.807 201.914 130.925 201.429 131.102C200.896 131.292 200.434 131.446 200.043 131.552C199.652 131.659 199.225 131.694 198.787 131.682C198.337 131.671 197.922 131.54 197.52 131.315C197.508 131.304 197.484 131.292 197.472 131.28L199.083 130.357L199.126 130.378C199.272 130.441 199.448 130.446 199.664 130.392C199.912 130.333 200.268 130.215 200.742 130.037C201.275 129.848 201.737 129.694 202.128 129.587C202.518 129.481 202.945 129.433 203.383 129.445L203.238 129.444ZM200.801 127.812L202.033 128.522L201.476 128.842L200.398 129.469L200.007 129.244C199.806 129.315 199.616 129.41 199.45 129.504C199.131 129.682 198.941 129.848 198.894 129.99C198.85 130.109 198.886 130.219 198.975 130.3L199 130.321L197.426 129.416L195.79 130.357L194.463 129.587L196.098 128.64L197.362 129.367C197.531 129.223 197.891 128.934 198.183 128.771C198.562 128.557 198.977 128.368 199.427 128.202C199.877 128.037 200.363 127.883 200.801 127.812Z" fill="white"/>
<path fill-rule="evenodd" clip-rule="evenodd" d="M206.269 129.374L206.155 126.971L205.345 126.97C204.815 126.228 203.999 125.493 202.97 124.915C198.732 122.354 192.058 122.183 188.049 124.549C187.052 125.123 186.342 125.812 185.871 126.516L185.061 126.515L185.175 128.917C185.259 130.536 186.32 132.142 188.451 133.448C192.689 136.01 199.363 136.18 203.372 133.814C205.388 132.595 206.353 130.993 206.269 129.374Z" fill="url(#paint29_linear)"/>
<path d="M195.414 119.824C201.272 119.979 206.136 122.877 206.28 126.296C206.424 129.715 201.792 132.361 195.935 132.205C190.077 132.05 185.213 129.153 185.069 125.733C184.925 122.314 189.557 119.668 195.414 119.824Z" fill="#BCD5FF"/>
<path d="M195.344 119.722C201.197 119.875 206.058 122.769 206.2 126.185C206.343 129.6 201.714 132.244 195.861 132.09C190.008 131.937 185.147 129.043 185.004 125.627C184.861 122.212 189.491 119.568 195.344 119.722Z" fill="url(#paint30_linear)"/>
<path d="M203.339 130.505C199.335 132.812 192.687 132.605 188.477 130.059C185.869 128.457 184.59 126.51 185.086 124.554C184.495 126.553 185.776 128.623 188.456 130.254C192.691 132.851 199.338 133.058 203.318 130.7C204.849 129.822 205.783 128.657 206.052 127.423C205.687 128.577 204.776 129.669 203.339 130.505Z" fill="white"/>
<path d="M195.368 121.262C199.957 121.448 203.796 123.746 203.944 126.394C204.092 129.043 200.492 131.039 195.903 130.854C191.314 130.668 187.475 128.37 187.327 125.722C187.179 123.073 190.779 121.076 195.368 121.262Z" stroke="white" stroke-width="0.355954"/>
<path d="M198.176 124.876L198.322 124.878C198.76 124.889 199.187 125.008 199.578 125.209C199.921 125.41 200.146 125.647 200.229 125.919C200.324 126.192 200.253 126.487 200.04 126.807C199.815 127.127 199.436 127.434 198.891 127.754C198.429 128.026 197.919 128.251 197.363 128.441C196.806 128.63 196.296 128.748 195.834 128.796L195.811 128.76L195.752 128.796L194.52 128.085L196.214 127.115L196.77 127.434C197.09 127.316 197.386 127.186 197.647 127.044C198.263 126.689 198.417 126.416 198.109 126.239C197.943 126.144 197.742 126.121 197.481 126.18C197.22 126.239 196.853 126.357 196.368 126.535C195.834 126.724 195.372 126.878 194.982 126.985C194.591 127.091 194.164 127.127 193.726 127.115C193.276 127.103 192.861 126.973 192.458 126.748C192.447 126.736 192.423 126.724 192.411 126.712L194.022 125.789L194.065 125.81C194.211 125.874 194.387 125.878 194.603 125.825C194.851 125.765 195.207 125.647 195.68 125.469C196.214 125.28 196.676 125.126 197.066 125.02C197.457 124.913 197.884 124.866 198.322 124.878L198.176 124.876ZM195.74 123.244L196.972 123.954L196.415 124.274L195.337 124.901L194.946 124.676C194.745 124.747 194.555 124.842 194.389 124.937C194.069 125.114 193.88 125.28 193.833 125.422C193.789 125.541 193.825 125.651 193.914 125.732L193.939 125.754L192.365 124.848L190.729 125.789L189.402 125.02L191.037 124.073L192.3 124.8C192.47 124.655 192.83 124.366 193.122 124.203C193.501 123.99 193.915 123.8 194.366 123.635C194.816 123.469 195.301 123.315 195.74 123.244Z" fill="white"/>
<path d="M121.894 127.488L119.765 128.716C119.408 128.921 119.117 128.701 119.117 128.227C119.117 127.753 119.408 127.198 119.765 126.992L121.894 125.765C122.25 125.559 122.541 125.779 122.541 126.253C122.541 126.727 122.25 127.283 121.894 127.488Z" fill="url(#paint31_linear)"/>
<path d="M120.735 127.229L124.197 129.544C124.801 129.948 125.584 129.968 126.208 129.595L145.267 118.213C145.875 117.85 146.637 117.859 147.236 118.238L153.143 121.967" stroke="#29F589" stroke-width="0.313965"/>
<defs>
<linearGradient id="paint0_linear" x1="41.4948" y1="122.884" x2="41.4948" y2="168.39" gradientUnits="userSpaceOnUse">
<stop stop-color="#ABB7F4"/>
<stop offset="1" stop-color="#3E57D2"/>
</linearGradient>
<linearGradient id="paint1_linear" x1="82.3323" y1="122.041" x2="98.3881" y2="95.8393" gradientUnits="userSpaceOnUse">
<stop stop-color="#21C588"/>
<stop offset="1" stop-color="#29F589"/>
</linearGradient>
<linearGradient id="paint2_linear" x1="81.8242" y1="42.6424" x2="122.544" y2="31.4769" gradientUnits="userSpaceOnUse">
<stop stop-color="#21C588"/>
<stop offset="1" stop-color="#29F589"/>
</linearGradient>
<linearGradient id="paint3_linear" x1="101.856" y1="36.7746" x2="97.252" y2="18.2057" gradientUnits="userSpaceOnUse">
<stop stop-color="#21C588"/>
<stop offset="1" stop-color="#29F589"/>
</linearGradient>
<linearGradient id="paint4_linear" x1="131.924" y1="63.6502" x2="131.924" y2="79.4595" gradientUnits="userSpaceOnUse">
<stop stop-color="#ABB7F4"/>
<stop offset="1" stop-color="#3E57D2"/>
</linearGradient>
<linearGradient id="paint5_linear" x1="151.875" y1="96.8406" x2="158.714" y2="-71.2888" gradientUnits="userSpaceOnUse">
<stop stop-color="#3023AE"/>
<stop offset="1" stop-color="#518AEC"/>
</linearGradient>
<linearGradient id="paint6_linear" x1="154.046" y1="56.9983" x2="153.653" y2="26.9003" gradientUnits="userSpaceOnUse">
<stop stop-color="#BFB9FF"/>
<stop offset="1" stop-color="#518AEC"/>
</linearGradient>
<linearGradient id="paint7_linear" x1="146.638" y1="66.7201" x2="147.289" y2="48.2635" gradientUnits="userSpaceOnUse">
<stop stop-color="#21C588"/>
<stop offset="1" stop-color="#29F589"/>
</linearGradient>
<linearGradient id="paint8_linear" x1="149.201" y1="71.7818" x2="149.853" y2="38.9012" gradientUnits="userSpaceOnUse">
<stop stop-color="#21C588"/>
<stop offset="1" stop-color="#29F589"/>
</linearGradient>
<linearGradient id="paint9_linear" x1="-18.1568" y1="153.54" x2="-18.1568" y2="195.734" gradientUnits="userSpaceOnUse">
<stop stop-color="#ABB7F4"/>
<stop offset="1" stop-color="#3E57D2"/>
</linearGradient>
<linearGradient id="paint10_linear" x1="36.2499" y1="159.395" x2="39.8356" y2="139.745" gradientUnits="userSpaceOnUse">
<stop stop-color="#3023AE"/>
<stop offset="1" stop-color="#518AEC"/>
</linearGradient>
<linearGradient id="paint11_linear" x1="43.7992" y1="183.524" x2="43.7992" y2="107.458" gradientUnits="userSpaceOnUse">
<stop stop-color="#3023AE"/>
<stop offset="1" stop-color="#518AEC"/>
</linearGradient>
<linearGradient id="paint12_linear" x1="47.9336" y1="177.015" x2="47.1375" y2="128.726" gradientUnits="userSpaceOnUse">
<stop stop-color="#B7AFFF"/>
<stop offset="1" stop-color="#518AEC"/>
</linearGradient>
<linearGradient id="paint13_linear" x1="38.3207" y1="140.473" x2="40.5455" y2="130.201" gradientUnits="userSpaceOnUse">
<stop stop-color="#3023AE"/>
<stop offset="1" stop-color="#518AEC"/>
</linearGradient>
<linearGradient id="paint14_linear" x1="43.9648" y1="175.594" x2="43.3702" y2="123.494" gradientUnits="userSpaceOnUse">
<stop stop-color="#3023AE"/>
<stop offset="1" stop-color="#518AEC"/>
</linearGradient>
<linearGradient id="paint15_linear" x1="40.5851" y1="148.274" x2="45.2846" y2="138.827" gradientUnits="userSpaceOnUse">
<stop stop-color="#21C588"/>
<stop offset="1" stop-color="#29F589"/>
</linearGradient>
<linearGradient id="paint16_linear" x1="-33.2095" y1="85.2389" x2="-33.2095" y2="127.434" gradientUnits="userSpaceOnUse">
<stop stop-color="#ABB7F4"/>
<stop offset="1" stop-color="#3E57D2"/>
</linearGradient>
<linearGradient id="paint17_linear" x1="21.1973" y1="91.0942" x2="24.783" y2="71.4443" gradientUnits="userSpaceOnUse">
<stop stop-color="#3023AE"/>
<stop offset="1" stop-color="#518AEC"/>
</linearGradient>
<linearGradient id="paint18_linear" x1="28.7466" y1="115.223" x2="28.7466" y2="39.1572" gradientUnits="userSpaceOnUse">
<stop stop-color="#3023AE"/>
<stop offset="1" stop-color="#518AEC"/>
</linearGradient>
<linearGradient id="paint19_linear" x1="32.8809" y1="108.714" x2="32.0849" y2="60.4253" gradientUnits="userSpaceOnUse">
<stop stop-color="#B7AFFF"/>
<stop offset="1" stop-color="#518AEC"/>
</linearGradient>
<linearGradient id="paint20_linear" x1="23.2681" y1="72.1714" x2="25.4928" y2="61.8992" gradientUnits="userSpaceOnUse">
<stop stop-color="#3023AE"/>
<stop offset="1" stop-color="#518AEC"/>
</linearGradient>
<linearGradient id="paint21_linear" x1="28.9121" y1="107.292" x2="28.3176" y2="55.1927" gradientUnits="userSpaceOnUse">
<stop stop-color="#3023AE"/>
<stop offset="1" stop-color="#518AEC"/>
</linearGradient>
<linearGradient id="paint22_linear" x1="25.5326" y1="79.9727" x2="30.2321" y2="70.5255" gradientUnits="userSpaceOnUse">
<stop stop-color="#21C588"/>
<stop offset="1" stop-color="#29F589"/>
</linearGradient>
<linearGradient id="paint23_linear" x1="190.182" y1="222.445" x2="188.557" y2="98.8781" gradientUnits="userSpaceOnUse">
<stop stop-color="#3023AE"/>
<stop offset="1" stop-color="#518AEC"/>
</linearGradient>
<linearGradient id="paint24_linear" x1="190.183" y1="220.276" x2="188.557" y2="96.6955" gradientUnits="userSpaceOnUse">
<stop stop-color="#3023AE"/>
<stop offset="1" stop-color="#518AEC"/>
</linearGradient>
<linearGradient id="paint25_linear" x1="187.901" y1="140.468" x2="204.52" y2="135.897" gradientUnits="userSpaceOnUse">
<stop stop-color="#21C588"/>
<stop offset="1" stop-color="#29F589"/>
</linearGradient>
<linearGradient id="paint26_linear" x1="196.062" y1="138.034" x2="194.211" y2="130.544" gradientUnits="userSpaceOnUse">
<stop stop-color="#21C588"/>
<stop offset="1" stop-color="#29F589"/>
</linearGradient>
<linearGradient id="paint27_linear" x1="193.214" y1="137.169" x2="209.833" y2="132.598" gradientUnits="userSpaceOnUse">
<stop stop-color="#21C588"/>
<stop offset="1" stop-color="#29F589"/>
</linearGradient>
<linearGradient id="paint28_linear" x1="201.375" y1="134.735" x2="199.524" y2="127.245" gradientUnits="userSpaceOnUse">
<stop stop-color="#21C588"/>
<stop offset="1" stop-color="#29F589"/>
</linearGradient>
<linearGradient id="paint29_linear" x1="188.153" y1="132.601" x2="204.772" y2="128.03" gradientUnits="userSpaceOnUse">
<stop stop-color="#21C588"/>
<stop offset="1" stop-color="#29F589"/>
</linearGradient>
<linearGradient id="paint30_linear" x1="196.313" y1="130.168" x2="194.462" y2="122.677" gradientUnits="userSpaceOnUse">
<stop stop-color="#21C588"/>
<stop offset="1" stop-color="#29F589"/>
</linearGradient>
<linearGradient id="paint31_linear" x1="119.65" y1="129.894" x2="121.591" y2="124.56" gradientUnits="userSpaceOnUse">
<stop stop-color="#21C588"/>
<stop offset="1" stop-color="#29F589"/>
</linearGradient>
</defs>
</svg>
