<svg width="17" height="17" viewBox="0 0 17 17" fill="none" xmlns="http://www.w3.org/2000/svg">
<path d="M8.39062 16.7422C12.8359 16.7422 16.4609 13.1172 16.4609 8.67188C16.4609 4.22656 12.8359 0.601562 8.39062 0.601562C3.94531 0.601562 0.320312 4.22656 0.320312 8.67188C0.320312 13.1172 3.94531 16.7422 8.39062 16.7422ZM8.4375 6.69531C7.78906 6.69531 7.23438 6.14062 7.23438 5.5C7.23438 4.8125 7.78906 4.27344 8.4375 4.27344C9.10156 4.27344 9.64062 4.8125 9.64062 5.5C9.64062 6.14062 9.10156 6.69531 8.4375 6.69531ZM7.03906 12.4844C6.57812 12.4844 6.21875 12.1641 6.21875 11.6875C6.21875 11.25 6.57812 10.8984 7.03906 10.8984H7.77344V9.07812H7.1875C6.72656 9.07812 6.36719 8.75781 6.36719 8.28125C6.36719 7.84375 6.72656 7.49219 7.1875 7.49219H8.66406C9.25781 7.49219 9.5625 7.89844 9.5625 8.53125V10.8984H9.98438C10.4453 10.8984 10.7969 11.25 10.7969 11.6875C10.7969 12.1641 10.4453 12.4844 9.98438 12.4844H7.03906Z" fill="#304CCF"/>
</svg>
