<svg width="60" height="75" viewBox="0 0 60 75" fill="none" xmlns="http://www.w3.org/2000/svg">
<g opacity="0.1">
<path fill-rule="evenodd" clip-rule="evenodd" d="M20.9445 0H1.23199V14.078H20.9445L20.9445 30.6479C21.0677 29.1529 21.9301 27.907 23.5318 27.035C25.2566 26.0383 28.0903 25.54 32.0328 25.54C34.0041 25.54 36.0985 25.6645 38.193 26.0383V30.1495H51.1293H57.9055V17.1928C54.579 15.4487 50.0205 14.452 45.5852 13.5799C41.1499 12.7078 36.7145 12.2095 32.156 12.2095C28.5831 12.2095 23.2854 12.957 20.9445 13.3308L20.9445 0ZM47.3101 40.2411C50.7598 41.3624 53.7166 43.1066 56.3039 45.5982C58.768 48.0899 60 51.3291 60 55.5649C60 59.1779 58.8912 62.417 56.5503 65.407C54.2094 68.2725 50.7598 70.6396 46.2012 72.3837C41.6427 74.1279 35.9754 75 29.4456 75C23.9014 75 18.4805 74.3771 13.1828 73.1312C7.88501 71.8854 3.6961 70.2658 0.369609 68.2725L0.616016 67.7741H0V54.8174H20.4517V60.6729C23.5318 61.2958 26.6119 61.6695 29.692 61.6695C37.2074 61.6695 40.9035 60.05 40.9035 56.8108C40.9035 55.0666 39.7947 53.8208 37.7002 52.9487C35.4825 52.0766 32.0329 51.2045 27.3511 50.3324C22.0534 49.3358 17.7413 48.3391 14.2916 47.2178C10.8419 46.0966 7.76181 44.3524 5.29774 41.8607C2.83367 39.4936 1.60164 36.1299 1.60164 31.894V31.2711H21.0678C21.0678 32.7661 22.1766 33.8874 24.1478 34.6349C26.2423 35.3824 29.5688 36.2545 34.2505 37.1266C39.5483 38.1232 43.8604 39.1199 47.3101 40.2411Z" fill="white"/>
</g>
</svg>
