<svg width="101" height="202" viewBox="0 0 101 202" fill="none" xmlns="http://www.w3.org/2000/svg">
<g opacity="0.1">
<path fill-rule="evenodd" clip-rule="evenodd" d="M56.5502 0H3.32639V37.9166H56.5502L56.5502 82.545C56.8829 78.5184 59.2114 75.163 63.5358 72.8141C68.1929 70.1298 75.8438 68.7876 86.4886 68.7876C91.811 68.7876 97.466 69.1231 103.121 70.1298V81.2028H138.049H156.345V46.3061C147.363 41.6084 135.055 38.9241 123.08 36.5752C111.105 34.2264 99.1292 32.8842 86.8212 32.8842C77.1744 32.8842 62.8705 34.8975 56.5502 35.9042L56.5502 0ZM127.737 108.383C137.051 111.403 145.035 116.1 152.021 122.811C158.674 129.522 162 138.246 162 149.655C162 159.386 159.006 168.11 152.686 176.163C146.366 183.881 137.051 190.256 124.743 194.954C112.435 199.651 97.1335 202 79.5031 202C64.5339 202 49.8973 200.322 35.5934 196.967C21.2895 193.611 9.97946 189.249 0.997944 183.881L1.66324 182.538H0V147.642H55.2197V163.412C63.5359 165.09 71.8522 166.097 80.1684 166.097C100.46 166.097 110.439 161.735 110.439 153.01C110.439 148.313 107.446 144.957 101.791 142.608C95.8029 140.26 86.4887 137.911 73.8481 135.562C59.5442 132.878 47.9014 130.193 38.5873 127.173C29.2731 124.153 20.9569 119.456 14.3039 112.745C7.65092 106.37 4.32443 97.3098 4.32443 85.9013V84.2235H56.883C56.883 88.2501 59.8768 91.27 65.1992 93.2833C70.8542 95.2965 79.8357 97.6454 92.4764 99.9942C106.78 102.679 118.423 105.363 127.737 108.383Z" fill="white"/>
</g>
</svg>
