<svg width="77" height="65" viewBox="0 0 77 65" fill="none" xmlns="http://www.w3.org/2000/svg">
<g opacity="0.1">
<path fill-rule="evenodd" clip-rule="evenodd" d="M43.2853 -90H2.54612V-60.9056H43.2853L43.2853 -26.661C43.54 -29.7507 45.3223 -32.3254 48.6324 -34.1278C52.197 -36.1875 58.0533 -37.2174 66.2011 -37.2174C70.2751 -37.2174 74.6036 -36.96 78.9322 -36.1875V-27.6909H105.667H119.671V-54.4681C112.797 -58.0727 103.376 -60.1325 94.2094 -61.9348C85.043 -63.7372 75.8767 -64.767 66.4558 -64.767C59.0718 -64.767 48.1231 -63.2222 43.2853 -62.4498L43.2853 -90ZM97.7741 -6.83497C104.904 -4.51771 111.014 -0.913086 116.361 4.23637C121.454 9.38583 124 16.0801 124 24.8342C124 32.3009 121.708 38.9952 116.871 45.1746C112.033 51.0965 104.904 55.9884 95.4826 59.5931C86.0616 63.1977 74.3491 65 60.8542 65C49.3963 65 38.193 63.7126 27.2444 61.1379C16.2957 58.5632 7.6386 55.216 0.763858 51.0965L1.2731 50.0666H0V23.2894H42.2669V35.3906C48.6324 36.678 54.9979 37.4504 61.3635 37.4504C76.8953 37.4504 84.5339 34.1032 84.5339 27.409C84.5339 23.8043 82.2423 21.2296 77.9138 19.4273C73.3306 17.625 66.2012 15.8227 56.5257 14.0203C45.577 11.9606 36.6653 9.90077 29.5359 7.58352C22.4066 5.26626 16.0411 1.66164 10.9487 -3.48782C5.85626 -8.37981 3.31006 -15.3316 3.31006 -24.0857V-25.373H43.54C43.54 -22.2833 45.8316 -19.9661 49.9055 -18.4212C54.2341 -16.8764 61.1088 -15.0741 70.7844 -13.2718C81.7331 -11.212 90.6448 -9.15222 97.7741 -6.83497Z" fill="white"/>
</g>
</svg>
