<svg width="19" height="24" viewBox="0 0 19 24" fill="none" xmlns="http://www.w3.org/2000/svg">
<path fill-rule="evenodd" clip-rule="evenodd" d="M6.38311 0.714355H0.375466V5.00478H6.38311V10.0547C6.42065 9.59904 6.68349 9.21936 7.17161 8.95358C7.69728 8.64983 8.56087 8.49796 9.7624 8.49796C10.3632 8.49796 11.0015 8.53593 11.6398 8.64983V9.90279H15.5823H17.6474V5.95408C16.6336 5.42252 15.2444 5.11877 13.8927 4.853C12.5409 4.58722 11.1892 4.43534 9.79995 4.43534C8.71107 4.43534 7.09651 4.66315 6.38311 4.77706V0.714355ZM14.4183 12.9783C15.4697 13.32 16.3708 13.8516 17.1593 14.611C17.9103 15.3703 18.2858 16.3575 18.2858 17.6484C18.2858 18.7495 17.9478 19.7367 17.2344 20.6479C16.521 21.5212 15.4697 22.2426 14.0804 22.7742C12.6911 23.3057 10.9639 23.5715 8.97391 23.5715C7.28427 23.5715 5.63216 23.3817 4.01761 23.002C2.40306 22.6223 1.12643 22.1287 0.112643 21.5212L0.187739 21.3693H0V17.4206H6.23293V19.2051C7.17162 19.395 8.11031 19.5089 9.04901 19.5089C11.3394 19.5089 12.4659 19.0153 12.4659 18.0281C12.4659 17.4966 12.1279 17.1169 11.4896 16.8511C10.8138 16.5853 9.76242 16.3195 8.3356 16.0538C6.72105 15.75 5.40688 15.4463 4.35554 15.1045C3.3042 14.7628 2.36551 14.2313 1.61455 13.4719C0.863598 12.7505 0.488121 11.7254 0.488121 10.4344V10.2446H6.42067C6.42067 10.7002 6.7586 11.0419 7.35936 11.2697C7.99767 11.4976 9.01146 11.7633 10.4383 12.0291C12.0528 12.3329 13.367 12.6366 14.4183 12.9783Z" fill="white"/>
</svg>
