<svg width="138" height="32" viewBox="0 0 138 32" fill="none" xmlns="http://www.w3.org/2000/svg">
<path fill-rule="evenodd" clip-rule="evenodd" d="M6.38311 2.71436H0.375466V7.00478H6.38311V12.0547C6.42065 11.599 6.68349 11.2194 7.17161 10.9536C7.69728 10.6498 8.56087 10.498 9.7624 10.498C10.3632 10.498 11.0015 10.5359 11.6398 10.6498V11.9028H15.5823H17.6474V7.95408C16.6336 7.42252 15.2444 7.11877 13.8927 6.853C12.5409 6.58722 11.1892 6.43534 9.79995 6.43534C8.71107 6.43534 7.09651 6.66315 6.38311 6.77706V2.71436ZM14.4183 14.9783C15.4697 15.32 16.3708 15.8516 17.1593 16.611C17.9103 17.3703 18.2858 18.3575 18.2858 19.6484C18.2858 20.7495 17.9478 21.7367 17.2344 22.6479C16.521 23.5212 15.4697 24.2426 14.0804 24.7742C12.6911 25.3057 10.9639 25.5715 8.97391 25.5715C7.28427 25.5715 5.63216 25.3817 4.01761 25.002C2.40306 24.6223 1.12643 24.1287 0.112643 23.5212L0.187739 23.3693H0V19.4206H6.23293V21.2051C7.17162 21.395 8.11031 21.5089 9.04901 21.5089C11.3394 21.5089 12.4659 21.0153 12.4659 20.0281C12.4659 19.4966 12.1279 19.1169 11.4896 18.8511C10.8138 18.5853 9.76242 18.3195 8.3356 18.0538C6.72105 17.75 5.40688 17.4463 4.35554 17.1045C3.3042 16.7628 2.36551 16.2313 1.61455 15.4719C0.863598 14.7505 0.488121 13.7254 0.488121 12.4344V12.2446H6.42067C6.42067 12.7002 6.7586 13.0419 7.35936 13.2697C7.99767 13.4976 9.01146 13.7633 10.4383 14.0291C12.0528 14.3329 13.367 14.6366 14.4183 14.9783Z" fill="white"/>
<path d="M41.2315 10H45.3415L40.5715 25H36.8815L34.1215 15.91L31.3615 25H27.6715L22.9015 10H27.0115L29.5615 19.21L32.2915 10H35.9515L38.6815 19.24L41.2315 10ZM59.2415 10H63.1115V25H59.2415V23.23C58.0815 24.69 56.4515 25.42 54.3515 25.42C52.3515 25.42 50.6315 24.66 49.1915 23.14C47.7715 21.6 47.0615 19.72 47.0615 17.5C47.0615 15.28 47.7715 13.41 49.1915 11.89C50.6315 10.35 52.3515 9.58 54.3515 9.58C56.4515 9.58 58.0815 10.31 59.2415 11.77V10ZM52.1015 20.56C52.8815 21.34 53.8715 21.73 55.0715 21.73C56.2715 21.73 57.2615 21.34 58.0415 20.56C58.8415 19.76 59.2415 18.74 59.2415 17.5C59.2415 16.26 58.8415 15.25 58.0415 14.47C57.2615 13.67 56.2715 13.27 55.0715 13.27C53.8715 13.27 52.8815 13.67 52.1015 14.47C51.3215 15.25 50.9315 16.26 50.9315 17.5C50.9315 18.74 51.3215 19.76 52.1015 20.56ZM71.4908 12.58C71.8508 11.62 72.4408 10.9 73.2608 10.42C74.1008 9.94 75.0308 9.7 76.0508 9.7V14.02C74.8708 13.88 73.8108 14.12 72.8708 14.74C71.9508 15.36 71.4908 16.39 71.4908 17.83V25H67.6208V10H71.4908V12.58ZM95.9042 9.58C97.6242 9.58 98.9942 10.14 100.014 11.26C101.054 12.38 101.574 13.88 101.574 15.76V25H97.7042V16.03C97.7042 15.13 97.4842 14.43 97.0442 13.93C96.6042 13.43 95.9842 13.18 95.1842 13.18C94.3042 13.18 93.6142 13.47 93.1142 14.05C92.6342 14.63 92.3942 15.47 92.3942 16.57V25H88.5242V16.03C88.5242 15.13 88.3042 14.43 87.8642 13.93C87.4242 13.43 86.8042 13.18 86.0042 13.18C85.1442 13.18 84.4542 13.47 83.9342 14.05C83.4342 14.63 83.1842 15.47 83.1842 16.57V25H79.3142V10H83.1842V11.59C84.0842 10.25 85.4742 9.58 87.3542 9.58C89.1942 9.58 90.5542 10.3 91.4342 11.74C92.4342 10.3 93.9242 9.58 95.9042 9.58ZM109.911 24.64C109.411 25.14 108.811 25.39 108.111 25.39C107.411 25.39 106.811 25.14 106.311 24.64C105.811 24.14 105.561 23.54 105.561 22.84C105.561 22.14 105.811 21.54 106.311 21.04C106.811 20.54 107.411 20.29 108.111 20.29C108.811 20.29 109.411 20.54 109.911 21.04C110.411 21.54 110.661 22.14 110.661 22.84C110.661 23.54 110.411 24.14 109.911 24.64ZM128.058 10V25H124.188V13.72H119.778V25H115.908V13.72H113.748V10H115.908V9.85C115.908 5.67 118.258 3.58 122.958 3.58C124.018 3.58 125.188 3.72 126.468 4V7.54C125.128 7.38 123.958 7.3 122.958 7.3C121.878 7.3 121.078 7.49 120.558 7.87C120.038 8.23 119.778 8.89 119.778 9.85V10H128.058Z" fill="white"/>
</svg>
