<svg width="76" height="95" viewBox="0 0 76 95" fill="none" xmlns="http://www.w3.org/2000/svg">
<g opacity="0.05">
<path fill-rule="evenodd" clip-rule="evenodd" d="M26.5297 0H1.56053V17.8321H26.5297L26.5297 38.8206C26.6858 36.927 27.7782 35.3489 29.8069 34.2443C31.9917 32.9818 35.5811 32.3506 40.5749 32.3506C43.0718 32.3506 45.7248 32.5084 48.3778 32.9818V38.1894H64.7638H73.347V21.7776C69.1334 19.5683 63.3593 18.3059 57.7412 17.2012C52.1232 16.0966 46.5051 15.4654 40.731 15.4654C36.2053 15.4654 29.4948 16.4122 26.5297 16.8856L26.5297 0ZM59.9261 50.9721C64.2957 52.3924 68.0411 54.6017 71.3183 57.7578C74.4394 60.9139 76 65.0169 76 70.3823C76 74.9586 74.5955 79.0616 71.6304 82.8489C68.6653 86.4785 64.2957 89.4768 58.5216 91.6861C52.7474 93.8954 45.5688 95 37.2977 95C30.2752 95 23.4086 94.211 16.6982 92.6329C9.98768 91.0548 4.68172 89.0034 0.468171 86.4785L0.780288 85.8472H0V69.4354H25.9055V76.8523C29.807 77.6413 33.7084 78.1147 37.6099 78.1147C47.1294 78.1147 51.8111 76.0633 51.8111 71.9603C51.8111 69.751 50.4066 68.173 47.7536 67.0683C44.9446 65.9637 40.575 64.859 34.6448 63.7544C27.9343 62.492 22.4723 61.2295 18.1027 59.8092C13.7331 58.389 9.83162 56.1797 6.71047 53.0236C3.58932 50.0253 2.02875 45.7645 2.02875 40.3991V39.6101H26.6858C26.6858 41.5038 28.0903 42.924 30.5873 43.8708C33.2402 44.8177 37.4538 45.9223 43.384 47.027C50.0945 48.2894 55.5565 49.5519 59.9261 50.9721Z" fill="white"/>
</g>
</svg>
