<svg width="35" height="177" viewBox="0 0 35 177" fill="none" xmlns="http://www.w3.org/2000/svg">
<g opacity="0.2">
<path fill-rule="evenodd" clip-rule="evenodd" d="M-57.4313 0H-104.084V33.224H-57.4313L-57.4313 72.329C-57.1397 68.8008 -55.0987 65.8606 -51.3081 63.8025C-47.226 61.4504 -40.5196 60.2743 -31.189 60.2743C-26.5237 60.2743 -21.5668 60.5683 -16.6099 61.4504V71.1529H14.0061H30.043V40.5751C22.1703 36.4589 11.3818 34.1067 0.884918 32.0486C-9.612 29.9905 -20.1089 28.8144 -30.8974 28.8144C-39.3533 28.8144 -51.8913 30.5785 -57.4313 31.4606L-57.4313 0ZM4.96716 94.9691C13.1314 97.6153 20.1294 101.732 26.2526 107.612C32.0842 113.492 35 121.137 35 131.133C35 139.66 32.3758 147.304 26.8357 154.361C21.2957 161.123 13.1314 166.709 2.34293 170.826C-8.44558 174.942 -21.8583 177 -37.3121 177C-50.4333 177 -63.2628 175.53 -75.8008 172.59C-88.3388 169.65 -98.2526 165.827 -106.125 161.123L-105.542 159.947H-107V129.369H-58.5975V143.188C-51.308 144.658 -44.0185 145.54 -36.729 145.54C-18.9425 145.54 -10.1951 141.718 -10.1951 134.073C-10.1951 129.957 -12.8193 127.017 -17.7762 124.959C-23.0246 122.901 -31.1889 120.843 -42.269 118.785C-54.807 116.432 -65.0123 114.08 -73.1766 111.434C-81.3409 108.788 -88.6304 104.672 -94.462 98.7913C-100.294 93.205 -103.209 85.2665 -103.209 75.2699V73.7998H-57.1396C-57.1396 77.328 -54.5154 79.9742 -49.8501 81.7383C-44.8932 83.5024 -37.0205 85.5605 -25.9404 87.6187C-13.4025 89.9708 -3.19711 92.3229 4.96716 94.9691Z" fill="white"/>
</g>
</svg>
