<svg width="62" height="77" viewBox="0 0 62 77" fill="none" xmlns="http://www.w3.org/2000/svg">
<g opacity="0.2">
<path fill-rule="evenodd" clip-rule="evenodd" d="M12.5297 -18H-12.4395V-0.167923H12.5297L12.5297 20.8206C12.6858 18.927 13.7782 17.3489 15.8069 16.2443C17.9917 14.9818 21.5811 14.3506 26.5749 14.3506C29.0718 14.3506 31.7248 14.5084 34.3778 14.9818V20.1894H50.7638H59.347V3.7776C55.1334 1.56832 49.3593 0.305866 43.7412 -0.798775C38.1232 -1.90342 32.5051 -2.53464 26.731 -2.53464C22.2053 -2.53464 15.4948 -1.5878 12.5297 -1.11438L12.5297 -18ZM45.9261 32.9721C50.2957 34.3924 54.0411 36.6017 57.3183 39.7578C60.4394 42.9139 62 47.0169 62 52.3823C62 56.9586 60.5955 61.0616 57.6304 64.8489C54.6653 68.4785 50.2957 71.4768 44.5216 73.6861C38.7474 75.8954 31.5688 77 23.2977 77C16.2752 77 9.40863 76.211 2.69815 74.6329C-4.01232 73.0548 -9.31828 71.0034 -13.5318 68.4785L-13.2197 67.8472H-14V51.4354H11.9055V58.8523C15.807 59.6413 19.7084 60.1147 23.6099 60.1147C33.1294 60.1147 37.8111 58.0633 37.8111 53.9603C37.8111 51.751 36.4066 50.173 33.7536 49.0683C30.9446 47.9637 26.575 46.859 20.6448 45.7544C13.9343 44.492 8.47228 43.2295 4.10267 41.8092C-0.266942 40.389 -4.16838 38.1797 -7.28953 35.0236C-10.4107 32.0253 -11.9713 27.7645 -11.9713 22.3991V21.6101H12.6858C12.6858 23.5038 14.0903 24.924 16.5873 25.8708C19.2402 26.8177 23.4538 27.9223 29.384 29.027C36.0945 30.2894 41.5565 31.5519 45.9261 32.9721Z" fill="white"/>
</g>
</svg>
