<svg width="270" height="54" viewBox="0 0 270 54" fill="none" xmlns="http://www.w3.org/2000/svg">
<path d="M16.5132 22.6913L27.0003 12.2048L37.4929 22.6968L43.595 16.5948L27.0003 0L10.4111 16.5893L16.5132 22.6913Z" fill="#99A7FF"/>
<path d="M12.204 26.9991L6.10205 20.8972L-0.000247165 26.9994L6.10175 33.1013L12.204 26.9991Z" fill="#99A7FF"/>
<path d="M16.5134 31.3088L27.0005 41.7953L37.4927 31.3037L43.5982 37.4023L43.5952 37.4057L27.0005 54.0001L10.4109 37.4112L10.4023 37.4027L16.5134 31.3088Z" fill="#99A7FF"/>
<path d="M47.8997 33.1041L54.002 27.002L47.9 20.9001L41.7977 27.0023L47.8997 33.1041Z" fill="#99A7FF"/>
<path d="M33.1898 26.9967H33.1924L27.0003 20.8047L22.4242 25.3806H22.4238L21.8983 25.9065L20.8137 26.9911L20.8052 26.9996L20.8137 27.0086L27.0003 33.195L33.1924 27.0031L33.1953 26.9996L33.1898 26.9967Z" fill="#99A7FF"/>
<path d="M63.5146 13.0847H76.7864C80.0804 13.0847 82.5712 13.93 84.2593 15.6207C85.5657 16.9301 86.2187 18.5529 86.2187 20.4888V20.5707C86.2187 21.3887 86.1176 22.1117 85.9142 22.7386C85.7112 23.3664 85.4399 23.9315 85.1008 24.4361C84.7626 24.9411 84.3694 25.3842 83.9224 25.7655C83.475 26.1477 82.9943 26.4752 82.4795 26.7473C84.1352 27.3751 85.4386 28.2269 86.3889 29.3042C87.3387 30.382 87.8143 31.8752 87.8143 33.7838V33.8652C87.8143 35.1746 87.5627 36.3198 87.0589 37.302C86.5552 38.2834 85.8336 39.1018 84.894 39.7565C83.9544 40.4112 82.8245 40.9017 81.5041 41.2292C80.1836 41.5564 78.7202 41.7197 77.1144 41.7197H63.5146V13.0847ZM75.4595 24.6613C76.8508 24.6613 77.9555 24.4233 78.7731 23.9456C79.5912 23.4684 80.0002 22.6977 80.0002 21.6344V21.5525C80.0002 20.5984 79.6453 19.8691 78.9365 19.3641C78.2272 18.8596 77.2044 18.6071 75.8686 18.6071H69.6504V24.6613H75.4595ZM77.137 36.1978C78.5279 36.1978 79.618 35.9461 80.4096 35.4412C81.2004 34.9366 81.5962 34.1523 81.5962 33.0886V33.0071C81.5962 32.0526 81.2277 31.296 80.4915 30.7364C79.7549 30.1781 78.5688 29.8983 76.9323 29.8983H69.6504V36.1982H77.137V36.1978Z" fill="#99A7FF"/>
<path d="M95.7183 13.0847H102.019V41.7206H95.7183V13.0847Z" fill="#99A7FF"/>
<path d="M111.561 13.0847H117.369L130.788 30.7164V13.0847H137.006V41.7206H131.647L117.779 23.5166V41.7206H111.561V13.0847Z" fill="#99A7FF"/>
<path d="M156.079 12.8804H161.888L174.161 41.7205H167.575L164.956 35.2982H152.847L150.229 41.7205H143.806L156.079 12.8804ZM162.707 29.7341L158.902 20.4482L155.098 29.7341H162.707Z" fill="#99A7FF"/>
<path d="M180.962 13.0847H186.772L200.19 30.7164V13.0847H206.408V41.7206H201.049L187.181 23.5166V41.7206H180.962V13.0847Z" fill="#99A7FF"/>
<path d="M229.081 42.211C226.98 42.211 225.031 41.8288 223.231 41.0658C221.43 40.3028 219.876 39.2592 218.567 37.9361C217.258 36.6136 216.235 35.0521 215.499 33.2523C214.763 31.452 214.395 29.5293 214.395 27.4838V27.4024C214.395 25.3569 214.763 23.4414 215.499 21.6548C216.235 19.8686 217.258 18.3004 218.567 16.9505C219.876 15.6006 221.444 14.5365 223.271 13.7594C225.098 12.9823 227.117 12.5938 229.326 12.5938C230.662 12.5938 231.882 12.7034 232.987 12.9209C234.091 13.1397 235.093 13.4391 235.994 13.8208C236.894 14.2029 237.725 14.6666 238.49 15.2116C239.252 15.7576 239.962 16.3572 240.616 17.0119L236.608 21.6343C235.489 20.6257 234.351 19.8341 233.192 19.2617C232.032 18.6893 230.73 18.4027 229.285 18.4027C228.085 18.4027 226.973 18.6347 225.951 19.0984C224.929 19.562 224.049 20.2026 223.312 21.0206C222.576 21.8386 222.004 22.7868 221.594 23.8637C221.185 24.9414 220.981 26.0934 220.981 27.3205V27.4019C220.981 28.629 221.185 29.7887 221.594 30.8788C222.004 31.9702 222.568 32.9243 223.292 33.7423C224.014 34.5604 224.887 35.2087 225.909 35.6859C226.933 36.1636 228.058 36.4016 229.285 36.4016C230.922 36.4016 232.305 36.1018 233.437 35.5017C234.569 34.9024 235.694 34.084 236.812 33.0471L240.821 37.0972C240.085 37.8884 239.32 38.5977 238.53 39.2242C237.739 39.852 236.873 40.3902 235.932 40.8406C234.992 41.2902 233.961 41.6318 232.844 41.863C231.725 42.0946 230.471 42.211 229.081 42.211Z" fill="#99A7FF"/>
<path d="M248.235 13.0847H269.794V18.6894H254.454V24.4984H267.954V30.1026H254.454V36.1163H270V41.7206H248.235V13.0847Z" fill="#99A7FF"/>
</svg>
