<svg width="32" height="32" viewBox="0 0 32 32" fill="none" xmlns="http://www.w3.org/2000/svg">
<rect width="32" height="32" rx="16" fill="#bebecc"/>
<path fill-rule="evenodd" clip-rule="evenodd" d="M15.7978 13.1922L15.8281 13.7112L15.3224 13.6477C13.4813 13.404 11.8729 12.5778 10.5073 11.1902L9.83961 10.5017L9.66764 11.0101C9.30347 12.1435 9.53614 13.3405 10.2948 14.1455C10.6994 14.5904 10.6084 14.654 9.91042 14.3891C9.66764 14.3044 9.45521 14.2408 9.43498 14.2726C9.36417 14.3468 9.60695 15.3107 9.79915 15.692C10.0622 16.2217 10.5983 16.7407 11.185 17.0479L11.6807 17.2915L11.094 17.3021C10.5275 17.3021 10.5073 17.3127 10.5679 17.5351C10.7703 18.2236 11.5694 18.9545 12.4596 19.2723L13.0868 19.4947L12.5405 19.8337C11.7313 20.321 10.7804 20.5964 9.82949 20.6175C9.37428 20.6281 9 20.6705 9 20.7023C9 20.8082 10.2341 21.4014 10.9523 21.6344C13.107 22.3229 15.6663 22.0264 17.5883 20.8506C18.9539 20.0138 20.3195 18.3507 20.9568 16.7407C21.3008 15.8827 21.6447 14.315 21.6447 13.5629C21.6447 13.0757 21.6751 13.0121 22.2415 12.4295C22.5754 12.0906 22.889 11.7198 22.9496 11.6139C23.0508 11.4126 23.0407 11.4126 22.5248 11.5927C21.6649 11.9105 21.5436 11.8681 21.9684 11.3915C22.282 11.0525 22.6563 10.4381 22.6563 10.2581C22.6563 10.2263 22.5046 10.2792 22.3326 10.3746C22.1505 10.4805 21.7459 10.6394 21.4424 10.7347L20.8961 10.9148L20.4005 10.5652C20.1273 10.3746 19.7429 10.1627 19.5406 10.0992C19.0247 9.95087 18.2357 9.97206 17.7704 10.1415C16.5059 10.6182 15.7068 11.8469 15.7978 13.1922Z" fill="white"/>
</svg>
